<svg xmlns="http://www.w3.org/2000/svg" xmlns:xlink="http://www.w3.org/1999/xlink" viewBox="0 0 1166.02 997.89"><defs><style>.cls-1{fill:#2a2e89;}.cls-2{fill:url(#linear-gradient);}.cls-3{fill:#c1cee3;}.cls-4{fill:url(#linear-gradient-2);}.cls-5{fill:url(#linear-gradient-3);}.cls-6{fill:url(#linear-gradient-4);}.cls-7{fill:url(#linear-gradient-5);}.cls-8{fill:url(#linear-gradient-6);}.cls-16,.cls-9{fill:#c3d7ed;}.cls-9{opacity:0.7;}.cls-10{fill:#fff;}.cls-11{fill:url(#linear-gradient-7);}.cls-12{fill:url(#linear-gradient-8);}.cls-13{fill:url(#linear-gradient-9);}.cls-14{fill:#2d318c;}.cls-15{fill:url(#New_Gradient_Swatch_1);}.cls-17{fill:#f0f3f8;}.cls-18{fill:#276cac;}.cls-19{fill:url(#linear-gradient-10);}.cls-20{fill:url(#linear-gradient-11);}.cls-21{fill:url(#New_Gradient_Swatch_1-2);}.cls-22{fill:url(#linear-gradient-12);}.cls-23{fill:url(#linear-gradient-13);}.cls-24{fill:url(#linear-gradient-14);}</style><linearGradient id="linear-gradient" x1="-29.33" y1="-441.2" x2="-23.92" y2="-441.2" gradientTransform="matrix(0, -1, -1, 0, 64.25, 389.05)" gradientUnits="userSpaceOnUse"><stop offset="0" stop-color="#7e77b2"/><stop offset="1" stop-color="#7e77b2"/></linearGradient><linearGradient id="linear-gradient-2" x1="439.22" y1="415.61" x2="755.52" y2="415.61" gradientUnits="userSpaceOnUse"><stop offset="0" stop-color="#eaedf2"/><stop offset="1" stop-color="#dbe4f2"/></linearGradient><linearGradient id="linear-gradient-3" x1="-89.26" y1="-441.2" x2="-83.85" y2="-441.2" xlink:href="#linear-gradient"/><linearGradient id="linear-gradient-4" x1="439.22" y1="475.54" x2="755.52" y2="475.54" xlink:href="#linear-gradient-2"/><linearGradient id="linear-gradient-5" x1="-149.17" y1="-441.2" x2="-143.76" y2="-441.2" xlink:href="#linear-gradient"/><linearGradient id="linear-gradient-6" x1="439.22" y1="535.44" x2="755.52" y2="535.44" xlink:href="#linear-gradient-2"/><linearGradient id="linear-gradient-7" x1="147.53" y1="197.78" x2="205.52" y2="135.61" gradientUnits="userSpaceOnUse"><stop offset="0.17" stop-color="#2b358f"/><stop offset="0.35" stop-color="#284399"/><stop offset="0.54" stop-color="#1f59a5"/><stop offset="0.74" stop-color="#1e75b1"/><stop offset="0.94" stop-color="#1b9ac4"/><stop offset="1" stop-color="#1ca3c9"/></linearGradient><linearGradient id="linear-gradient-8" x1="1005.83" y1="197.78" x2="1063.81" y2="135.61" xlink:href="#linear-gradient-7"/><linearGradient id="linear-gradient-9" x1="578.17" y1="197.78" x2="636.16" y2="135.61" xlink:href="#linear-gradient-7"/><linearGradient id="New_Gradient_Swatch_1" x1="72.54" y1="832.31" x2="165.6" y2="832.31" gradientUnits="userSpaceOnUse"><stop offset="0" stop-color="#2d318c"/><stop offset="1" stop-color="#1e75b1"/></linearGradient><linearGradient id="linear-gradient-10" x1="175.31" y1="907.35" x2="175.31" y2="872.48" gradientUnits="userSpaceOnUse"><stop offset="0.18" stop-color="#2ea9c4"/><stop offset="1" stop-color="#2a85b6"/></linearGradient><linearGradient id="linear-gradient-11" x1="928.17" y1="900.71" x2="928.17" y2="864.83" xlink:href="#linear-gradient-10"/><linearGradient id="New_Gradient_Swatch_1-2" x1="964.55" y1="832.24" x2="1057.51" y2="832.24" xlink:href="#New_Gradient_Swatch_1"/><linearGradient id="linear-gradient-12" x1="496.33" y1="895.91" x2="598.49" y2="793.75" gradientUnits="userSpaceOnUse"><stop offset="0" stop-color="#d9e4f4"/><stop offset="1" stop-color="#fff"/></linearGradient><linearGradient id="linear-gradient-13" x1="474.34" y1="842.29" x2="618.65" y2="842.29" gradientUnits="userSpaceOnUse"><stop offset="0" stop-color="#2a4898"/><stop offset="1" stop-color="#1b9ac4"/></linearGradient><linearGradient id="linear-gradient-14" x1="525.82" y1="862.74" x2="567.8" y2="820.76" gradientUnits="userSpaceOnUse"><stop offset="0" stop-color="#236cab"/><stop offset="1" stop-color="#1b9ac4"/></linearGradient></defs><g id="Layer_2" data-name="Layer 2"><g id="Layer_1-2" data-name="Layer 1"><path class="cls-1" d="M547.94,426.73h13.71v27.7H547.94Z"/><path class="cls-1" d="M460.44,390.83H649V445.2H460.44Z"/><rect class="cls-1" x="452.33" y="397.46" width="204.25" height="36.31" rx="3.01"/><rect class="cls-2" x="486.28" y="412.97" width="38.32" height="5.41" rx="2.2"/><path class="cls-3" d="M459.7,390.83H649.55v49.53H459.7Z"/><path class="cls-4" d="M459.07,397.46H650.18v36.3H459.07Z"/><rect class="cls-1" x="480.33" y="450.74" width="148.94" height="7.38" rx="3.01"/><rect class="cls-3" x="474.39" y="410" width="11.19" height="11.19" rx="3.01"/><rect class="cls-3" x="490.87" y="411.63" width="53.16" height="7.38" rx="3.01"/><rect class="cls-1" x="615.08" y="413.28" width="6.17" height="6.17" rx="2.51"/><rect class="cls-1" x="628.24" y="413.28" width="6.17" height="6.17" rx="2.51"/><rect class="cls-1" x="575.61" y="413.28" width="6.17" height="6.17" rx="2.51"/><rect class="cls-1" x="562.65" y="413.28" width="6.17" height="6.17" rx="2.51"/><rect class="cls-1" x="601.92" y="413.28" width="6.17" height="6.17" rx="2.51"/><rect class="cls-1" x="588.76" y="413.28" width="6.17" height="6.17" rx="2.51"/><rect class="cls-1" x="608.5" y="423.65" width="6.17" height="6.17" rx="2.51"/><rect class="cls-1" x="621.66" y="423.65" width="6.17" height="6.17" rx="2.51"/><rect class="cls-1" x="569.02" y="423.65" width="6.17" height="6.17" rx="2.51"/><rect class="cls-1" x="595.34" y="423.65" width="6.17" height="6.17" rx="2.51"/><rect class="cls-1" x="582.18" y="423.65" width="6.17" height="6.17" rx="2.51"/><rect class="cls-1" x="608.5" y="403.41" width="6.17" height="6.17" rx="2.51"/><rect class="cls-1" x="621.66" y="403.41" width="6.17" height="6.17" rx="2.51"/><rect class="cls-1" x="569.02" y="403.41" width="6.17" height="6.17" rx="2.51"/><rect class="cls-1" x="595.34" y="403.41" width="6.17" height="6.17" rx="2.51"/><rect class="cls-1" x="582.18" y="403.41" width="6.17" height="6.17" rx="2.51"/><path class="cls-1" d="M547.94,486.66h13.71v27.7H547.94Z"/><path class="cls-1" d="M460.44,450.76H649v54.37H460.44Z"/><rect class="cls-1" x="452.33" y="457.39" width="204.25" height="36.31" rx="3.01"/><rect class="cls-5" x="486.28" y="472.9" width="38.32" height="5.41" rx="2.2"/><path class="cls-3" d="M459.7,450.76H649.55v49.53H459.7Z"/><path class="cls-6" d="M459.07,457.39H650.18v36.3H459.07Z"/><rect class="cls-1" x="480.33" y="510.67" width="148.94" height="7.38" rx="3.01"/><rect class="cls-3" x="474.39" y="469.93" width="11.19" height="11.19" rx="3.01"/><rect class="cls-3" x="490.87" y="471.56" width="53.16" height="7.38" rx="3.01"/><rect class="cls-1" x="615.08" y="473.21" width="6.17" height="6.17" rx="2.51"/><rect class="cls-1" x="628.24" y="473.21" width="6.17" height="6.17" rx="2.51"/><rect class="cls-1" x="575.61" y="473.21" width="6.17" height="6.17" rx="2.51"/><rect class="cls-1" x="562.65" y="473.21" width="6.17" height="6.17" rx="2.51"/><rect class="cls-1" x="601.92" y="473.21" width="6.17" height="6.17" rx="2.51"/><rect class="cls-1" x="588.76" y="473.21" width="6.17" height="6.17" rx="2.51"/><rect class="cls-1" x="608.5" y="483.58" width="6.17" height="6.17" rx="2.51"/><rect class="cls-1" x="621.66" y="483.58" width="6.17" height="6.17" rx="2.51"/><rect class="cls-1" x="569.02" y="483.58" width="6.17" height="6.17" rx="2.51"/><rect class="cls-1" x="595.34" y="483.58" width="6.17" height="6.17" rx="2.51"/><rect class="cls-1" x="582.18" y="483.58" width="6.17" height="6.17" rx="2.51"/><rect class="cls-1" x="608.5" y="463.34" width="6.17" height="6.17" rx="2.51"/><rect class="cls-1" x="621.66" y="463.34" width="6.17" height="6.17" rx="2.51"/><rect class="cls-1" x="569.02" y="463.34" width="6.17" height="6.17" rx="2.51"/><rect class="cls-1" x="595.34" y="463.34" width="6.17" height="6.17" rx="2.51"/><rect class="cls-1" x="582.18" y="463.34" width="6.17" height="6.17" rx="2.51"/><path class="cls-1" d="M547.94,546.56h13.71v27.7H547.94Z"/><path class="cls-1" d="M460.44,510.67H649V565H460.44Z"/><rect class="cls-1" x="452.33" y="517.29" width="204.25" height="36.31" rx="3.01"/><rect class="cls-7" x="486.28" y="532.8" width="38.32" height="5.41" rx="2.2"/><path class="cls-3" d="M459.7,510.67H649.55V560.2H459.7Z"/><path class="cls-8" d="M459.07,517.29H650.18V553.6H459.07Z"/><rect class="cls-1" x="480.33" y="570.57" width="148.94" height="7.38" rx="3.01"/><rect class="cls-3" x="474.39" y="529.84" width="11.19" height="11.19" rx="3.01"/><rect class="cls-3" x="490.87" y="531.46" width="53.16" height="7.38" rx="3.01"/><rect class="cls-1" x="615.08" y="533.11" width="6.17" height="6.17" rx="2.51"/><rect class="cls-1" x="628.24" y="533.11" width="6.17" height="6.17" rx="2.51"/><rect class="cls-1" x="575.61" y="533.11" width="6.17" height="6.17" rx="2.51"/><rect class="cls-1" x="562.65" y="533.11" width="6.17" height="6.17" rx="2.51"/><rect class="cls-1" x="601.92" y="533.11" width="6.17" height="6.17" rx="2.51"/><rect class="cls-1" x="588.76" y="533.11" width="6.17" height="6.17" rx="2.51"/><rect class="cls-1" x="608.5" y="543.48" width="6.17" height="6.17" rx="2.51"/><rect class="cls-1" x="621.66" y="543.48" width="6.17" height="6.17" rx="2.51"/><rect class="cls-1" x="569.02" y="543.48" width="6.17" height="6.17" rx="2.51"/><rect class="cls-1" x="595.34" y="543.48" width="6.17" height="6.17" rx="2.51"/><rect class="cls-1" x="582.18" y="543.48" width="6.17" height="6.17" rx="2.51"/><rect class="cls-1" x="608.5" y="523.25" width="6.17" height="6.17" rx="2.51"/><rect class="cls-1" x="621.66" y="523.25" width="6.17" height="6.17" rx="2.51"/><rect class="cls-1" x="569.02" y="523.25" width="6.17" height="6.17" rx="2.51"/><rect class="cls-1" x="595.34" y="523.25" width="6.17" height="6.17" rx="2.51"/><rect class="cls-1" x="582.18" y="523.25" width="6.17" height="6.17" rx="2.51"/><path class="cls-1" d="M477.82,610.45V589.12h6.3a9.86,9.86,0,0,1,5,1.26,8.62,8.62,0,0,1,3.39,3.58,11.22,11.22,0,0,1,1.21,5.3v1.07a11.35,11.35,0,0,1-1.21,5.33,8.53,8.53,0,0,1-3.44,3.55,10.35,10.35,0,0,1-5.12,1.24Zm3.7-18.34v15.38h2.42a5.57,5.57,0,0,0,4.48-1.82,8,8,0,0,0,1.59-5.24v-1.18a8.2,8.2,0,0,0-1.51-5.31,5.36,5.36,0,0,0-4.38-1.83Z"/><path class="cls-1" d="M506.24,610.45a5.75,5.75,0,0,1-.41-1.48,6,6,0,0,1-8.05.41,4.33,4.33,0,0,1-1.51-3.37,4.51,4.51,0,0,1,1.88-3.89,9.13,9.13,0,0,1,5.38-1.35h2.19v-1a2.49,2.49,0,0,0-2.79-2.71,3.11,3.11,0,0,0-2,.61,1.87,1.87,0,0,0-.78,1.54H496.6a3.94,3.94,0,0,1,.87-2.44,5.85,5.85,0,0,1,2.35-1.78,8.43,8.43,0,0,1,3.32-.64,6.69,6.69,0,0,1,4.44,1.4,5,5,0,0,1,1.7,3.93v7.15a8.08,8.08,0,0,0,.6,3.41v.25Zm-3.91-2.56a4.07,4.07,0,0,0,2-.51,3.45,3.45,0,0,0,1.4-1.38v-3H503.8a5.27,5.27,0,0,0-3,.69,2.24,2.24,0,0,0-1,1.95,2.08,2.08,0,0,0,.68,1.63A2.6,2.6,0,0,0,502.33,607.89Z"/><path class="cls-1" d="M517.16,590.75v3.85H520v2.64h-2.8v8.85a2,2,0,0,0,.36,1.31,1.67,1.67,0,0,0,1.29.4,5.89,5.89,0,0,0,1.24-.14v2.75a9,9,0,0,1-2.34.34q-4.11,0-4.11-4.53v-9H511V594.6h2.6v-3.85Z"/><path class="cls-1" d="M531.85,610.45a5.36,5.36,0,0,1-.41-1.48,5.51,5.51,0,0,1-4.16,1.78,5.61,5.61,0,0,1-3.9-1.37,4.37,4.37,0,0,1-1.51-3.37,4.52,4.52,0,0,1,1.89-3.89,9.13,9.13,0,0,1,5.38-1.35h2.18v-1a2.77,2.77,0,0,0-.69-2,2.73,2.73,0,0,0-2.09-.74,3.09,3.09,0,0,0-2,.61,1.87,1.87,0,0,0-.78,1.54h-3.56a4,4,0,0,1,.86-2.44,5.82,5.82,0,0,1,2.36-1.78,8.38,8.38,0,0,1,3.31-.64,6.65,6.65,0,0,1,4.44,1.4,5,5,0,0,1,1.7,3.93v7.15a8.08,8.08,0,0,0,.6,3.41v.25Zm-3.91-2.56a4.06,4.06,0,0,0,2-.51,3.39,3.39,0,0,0,1.4-1.38v-3H529.4a5.21,5.21,0,0,0-3,.69,2.25,2.25,0,0,0-1,1.95,2.08,2.08,0,0,0,.68,1.63A2.65,2.65,0,0,0,527.94,607.89Z"/><path class="cls-1" d="M562.1,603.51a7.71,7.71,0,0,1-2.52,5.32,8.57,8.57,0,0,1-5.85,1.92,8.41,8.41,0,0,1-4.49-1.21,7.93,7.93,0,0,1-3-3.44,12.45,12.45,0,0,1-1.1-5.17v-2a12.57,12.57,0,0,1,1.07-5.32,8.07,8.07,0,0,1,3.07-3.54,8.55,8.55,0,0,1,4.62-1.25,8.25,8.25,0,0,1,5.68,1.91,8,8,0,0,1,2.51,5.42h-3.69a5.27,5.27,0,0,0-1.34-3.32,4.43,4.43,0,0,0-3.16-1,4.31,4.31,0,0,0-3.71,1.77,8.76,8.76,0,0,0-1.33,5.18v1.89a9.32,9.32,0,0,0,1.24,5.28,4.1,4.1,0,0,0,3.62,1.82,4.84,4.84,0,0,0,3.29-1,5.19,5.19,0,0,0,1.39-3.27Z"/><path class="cls-1" d="M571.75,610.75a7.37,7.37,0,0,1-5.49-2.13,7.76,7.76,0,0,1-2.1-5.68v-.44a9.5,9.5,0,0,1,.91-4.24,6.94,6.94,0,0,1,2.57-2.91,6.86,6.86,0,0,1,3.7-1,6.22,6.22,0,0,1,5,2.07,8.74,8.74,0,0,1,1.76,5.84v1.44H567.75a4.71,4.71,0,0,0,1.31,3.1A3.93,3.93,0,0,0,572,607.9a4.79,4.79,0,0,0,4-2l1.92,1.83a6.4,6.4,0,0,1-2.54,2.2A8,8,0,0,1,571.75,610.75Zm-.43-13.58a3,3,0,0,0-2.36,1,5.23,5.23,0,0,0-1.15,2.86h6.78v-.26a4.38,4.38,0,0,0-1-2.71A3,3,0,0,0,571.32,597.17Z"/><path class="cls-1" d="M583.87,594.6l.1,1.83a5.71,5.71,0,0,1,4.61-2.12c3.31,0,5,1.89,5,5.67v10.47h-3.56V600.18a3.23,3.23,0,0,0-.65-2.23,2.74,2.74,0,0,0-2.13-.72,3.44,3.44,0,0,0-3.21,1.94v11.28h-3.56V594.6Z"/><path class="cls-1" d="M601.41,590.75v3.85h2.8v2.64h-2.8v8.85a2,2,0,0,0,.36,1.31,1.65,1.65,0,0,0,1.28.4,5.89,5.89,0,0,0,1.24-.14v2.75a9,9,0,0,1-2.34.34q-4.1,0-4.1-4.53v-9h-2.61V594.6h2.61v-3.85Z"/><path class="cls-1" d="M613.6,610.75a7.36,7.36,0,0,1-5.48-2.13,7.76,7.76,0,0,1-2.1-5.68v-.44a9.5,9.5,0,0,1,.91-4.24,6.94,6.94,0,0,1,2.57-2.91,6.85,6.85,0,0,1,3.69-1,6.23,6.23,0,0,1,5,2.07,8.74,8.74,0,0,1,1.76,5.84v1.44H609.6a4.76,4.76,0,0,0,1.32,3.1,3.93,3.93,0,0,0,2.89,1.14,4.79,4.79,0,0,0,4-2l1.92,1.83a6.4,6.4,0,0,1-2.54,2.2A8,8,0,0,1,613.6,610.75Zm-.42-13.58a3,3,0,0,0-2.37,1,5.39,5.39,0,0,0-1.15,2.86h6.79v-.26a4.32,4.32,0,0,0-1-2.71A3,3,0,0,0,613.18,597.17Z"/><path class="cls-1" d="M630.72,597.86a8.6,8.6,0,0,0-1.45-.12,3.25,3.25,0,0,0-3.29,1.87v10.84h-3.56V594.6h3.39l.09,1.78a4,4,0,0,1,3.58-2.07,3.32,3.32,0,0,1,1.26.21Z"/><path class="cls-1" d="M510,282.5h-3.69V261.17H510Z"/><path class="cls-1" d="M517.22,266.65l.1,1.83a5.71,5.71,0,0,1,4.61-2.12q5,0,5,5.67V282.5h-3.56V272.23a3.23,3.23,0,0,0-.65-2.23,2.7,2.7,0,0,0-2.13-.73,3.44,3.44,0,0,0-3.21,2V282.5h-3.56V266.65Z"/><path class="cls-1" d="M534.76,262.8v3.85h2.8v2.64h-2.8v8.84a2,2,0,0,0,.36,1.32,1.7,1.7,0,0,0,1.28.4,5.4,5.4,0,0,0,1.25-.15v2.76a9,9,0,0,1-2.35.33q-4.09,0-4.1-4.52v-9h-2.61v-2.64h2.61V262.8Z"/><path class="cls-1" d="M547,282.79a7.36,7.36,0,0,1-5.48-2.13,7.72,7.72,0,0,1-2.1-5.67v-.44a9.54,9.54,0,0,1,.91-4.25,7,7,0,0,1,2.57-2.9,6.77,6.77,0,0,1,3.69-1,6.26,6.26,0,0,1,5,2.06,8.79,8.79,0,0,1,1.76,5.85v1.43H543a4.71,4.71,0,0,0,1.31,3.11,3.93,3.93,0,0,0,2.89,1.14,4.8,4.8,0,0,0,4-2l1.92,1.83a6.34,6.34,0,0,1-2.54,2.21A8,8,0,0,1,547,282.79Zm-.42-13.58a3,3,0,0,0-2.37,1A5.32,5.32,0,0,0,543,273.1h6.79v-.27a4.31,4.31,0,0,0-1-2.7A3,3,0,0,0,546.53,269.21Z"/><path class="cls-1" d="M564.07,269.9a8.61,8.61,0,0,0-1.45-.11,3.25,3.25,0,0,0-3.29,1.87V282.5h-3.56V266.65h3.39l.09,1.77a4,4,0,0,1,3.58-2.06,3.54,3.54,0,0,1,1.26.2Z"/><path class="cls-1" d="M569.32,266.65l.11,1.83a5.71,5.71,0,0,1,4.61-2.12q5,0,5,5.67V282.5h-3.56V272.23a3.28,3.28,0,0,0-.65-2.23,2.73,2.73,0,0,0-2.13-.73,3.42,3.42,0,0,0-3.21,2V282.5H566V266.65Z"/><path class="cls-1" d="M589.39,282.79a7.37,7.37,0,0,1-5.49-2.13,7.72,7.72,0,0,1-2.1-5.67v-.44a9.54,9.54,0,0,1,.91-4.25,7,7,0,0,1,2.57-2.9,6.78,6.78,0,0,1,3.7-1,6.25,6.25,0,0,1,5,2.06,8.79,8.79,0,0,1,1.76,5.85v1.43H585.39a4.71,4.71,0,0,0,1.31,3.11,3.93,3.93,0,0,0,2.89,1.14,4.8,4.8,0,0,0,4-2l1.92,1.83A6.34,6.34,0,0,1,593,282,8,8,0,0,1,589.39,282.79ZM589,269.21a3,3,0,0,0-2.36,1,5.25,5.25,0,0,0-1.16,2.86h6.79v-.27a4.31,4.31,0,0,0-1-2.7A3,3,0,0,0,589,269.21Z"/><path class="cls-1" d="M602.66,262.8v3.85h2.8v2.64h-2.8v8.84a2,2,0,0,0,.36,1.32,1.71,1.71,0,0,0,1.29.4,5.32,5.32,0,0,0,1.24-.15v2.76a8.92,8.92,0,0,1-2.34.33q-4.11,0-4.11-4.52v-9h-2.6v-2.64h2.6V262.8Z"/><path class="cls-1" d="M47.94,274.59v7.91h-3.7V261.17H52.4A8.24,8.24,0,0,1,58.07,263,6.26,6.26,0,0,1,60.18,268a6.05,6.05,0,0,1-2.06,4.88,8.63,8.63,0,0,1-5.77,1.75Zm0-3H52.4a4.4,4.4,0,0,0,3-.93,3.42,3.42,0,0,0,1-2.69,3.71,3.71,0,0,0-1.06-2.76,4.05,4.05,0,0,0-2.9-1.06H47.94Z"/><path class="cls-1" d="M72.37,281a5.51,5.51,0,0,1-4.45,1.84A4.93,4.93,0,0,1,64,281.28a6.42,6.42,0,0,1-1.32-4.36V266.65h3.56v10.22c0,2,.83,3,2.5,3a3.51,3.51,0,0,0,3.5-1.86V266.65h3.56V282.5H72.46Z"/><path class="cls-1" d="M93.05,274.74a9.49,9.49,0,0,1-1.65,5.87,5.35,5.35,0,0,1-4.53,2.18,5.19,5.19,0,0,1-4.34-2l-.18,1.71H79.13V260h3.56v8.17a5.16,5.16,0,0,1,4.15-1.81,5.43,5.43,0,0,1,4.55,2.15,9.64,9.64,0,0,1,1.66,6Zm-3.56-.31a6.7,6.7,0,0,0-.91-3.87,3,3,0,0,0-2.64-1.29,3.32,3.32,0,0,0-3.25,2v6.54A3.35,3.35,0,0,0,86,279.89a3,3,0,0,0,2.58-1.24,6.51,6.51,0,0,0,.94-3.77Z"/><path class="cls-1" d="M99.52,282.5H96V260h3.56Z"/><path class="cls-1" d="M103.1,262.53a1.88,1.88,0,0,1,.52-1.36,2,2,0,0,1,1.48-.54,2,2,0,0,1,1.5.54,1.89,1.89,0,0,1,.53,1.36,1.82,1.82,0,0,1-.53,1.34,2,2,0,0,1-1.5.54,2,2,0,0,1-1.48-.54A1.82,1.82,0,0,1,103.1,262.53Zm3.78,20h-3.56V266.65h3.56Z"/><path class="cls-1" d="M117,280a3.19,3.19,0,0,0,2.21-.78,2.61,2.61,0,0,0,.94-1.91h3.36a5.24,5.24,0,0,1-.93,2.76,6,6,0,0,1-2.34,2,7.09,7.09,0,0,1-3.19.74,6.75,6.75,0,0,1-5.28-2.15,8.55,8.55,0,0,1-2-5.95v-.36a8.4,8.4,0,0,1,1.94-5.8,6.7,6.7,0,0,1,5.27-2.17A6.51,6.51,0,0,1,121.6,268a5.88,5.88,0,0,1,1.87,4.32h-3.36a3.29,3.29,0,0,0-.93-2.24,3,3,0,0,0-2.22-.88,3.11,3.11,0,0,0-2.66,1.26,6.34,6.34,0,0,0-1,3.8v.57a6.47,6.47,0,0,0,.93,3.84A3.12,3.12,0,0,0,117,280Z"/><path class="cls-1" d="M149.64,275.56a7.65,7.65,0,0,1-2.52,5.32,8.54,8.54,0,0,1-5.84,1.91,8.27,8.27,0,0,1-4.49-1.21,8,8,0,0,1-3-3.43A12.48,12.48,0,0,1,132.7,273v-2a12.36,12.36,0,0,1,1.07-5.32,8.07,8.07,0,0,1,3.06-3.55,8.6,8.6,0,0,1,4.63-1.24,8.27,8.27,0,0,1,5.68,1.91,8,8,0,0,1,2.5,5.41H146a5.24,5.24,0,0,0-1.34-3.32,4.46,4.46,0,0,0-3.15-1,4.35,4.35,0,0,0-3.72,1.76,8.89,8.89,0,0,0-1.32,5.19v1.89a9.45,9.45,0,0,0,1.23,5.28,4.12,4.12,0,0,0,3.63,1.81,4.76,4.76,0,0,0,3.28-1,5.08,5.08,0,0,0,1.39-3.26Z"/><path class="cls-1" d="M156.1,282.5h-3.56V260h3.56Z"/><path class="cls-1" d="M159,274.43a9.32,9.32,0,0,1,.93-4.2,6.75,6.75,0,0,1,2.59-2.87,7.28,7.28,0,0,1,3.84-1,7,7,0,0,1,5.21,2.06,8.17,8.17,0,0,1,2.16,5.48v.84a9.45,9.45,0,0,1-.9,4.19,6.61,6.61,0,0,1-2.58,2.85,7.3,7.3,0,0,1-3.87,1,6.86,6.86,0,0,1-5.37-2.23,8.59,8.59,0,0,1-2-6Zm3.56.31a6.43,6.43,0,0,0,1,3.83,3.31,3.31,0,0,0,2.82,1.38,3.24,3.24,0,0,0,2.8-1.41,7,7,0,0,0,1-4.11,6.31,6.31,0,0,0-1-3.81,3.47,3.47,0,0,0-5.57,0A6.94,6.94,0,0,0,162.56,274.74Z"/><path class="cls-1" d="M186.05,281a5.51,5.51,0,0,1-4.45,1.84,4.89,4.89,0,0,1-3.9-1.51,6.37,6.37,0,0,1-1.33-4.36V266.65h3.56v10.22c0,2,.84,3,2.5,3a3.53,3.53,0,0,0,3.51-1.86V266.65h3.56V282.5h-3.36Z"/><path class="cls-1" d="M192.15,274.46a9.44,9.44,0,0,1,1.7-5.88,5.47,5.47,0,0,1,4.56-2.22,5.14,5.14,0,0,1,4.07,1.76V260H206v22.5h-3.22l-.18-1.64a5.23,5.23,0,0,1-4.26,1.93,5.37,5.37,0,0,1-4.5-2.24A9.73,9.73,0,0,1,192.15,274.46Zm3.56.31a6.61,6.61,0,0,0,.93,3.77,3,3,0,0,0,2.65,1.35,3.36,3.36,0,0,0,3.19-1.95v-6.76a3.31,3.31,0,0,0-3.16-1.91,3.06,3.06,0,0,0-2.67,1.37A7.42,7.42,0,0,0,195.71,274.77Z"/><path class="cls-1" d="M962.73,277a2.58,2.58,0,0,0-1-2.17,11.92,11.92,0,0,0-3.57-1.54,17,17,0,0,1-4.1-1.73,5.48,5.48,0,0,1-2.92-4.77,5.18,5.18,0,0,1,2.11-4.25,8.52,8.52,0,0,1,5.45-1.67,9.15,9.15,0,0,1,4,.82,6.54,6.54,0,0,1,2.74,2.34,5.94,5.94,0,0,1,1,3.36h-3.69a3.34,3.34,0,0,0-1.05-2.62,4.33,4.33,0,0,0-3-.94,4.57,4.57,0,0,0-2.82.77,2.58,2.58,0,0,0-1,2.17,2.35,2.35,0,0,0,1.08,2,12.63,12.63,0,0,0,3.58,1.52,16.38,16.38,0,0,1,4,1.69,6.45,6.45,0,0,1,2.21,2.16,5.65,5.65,0,0,1,.7,2.87,5.09,5.09,0,0,1-2,4.24,8.86,8.86,0,0,1-5.55,1.57,10.41,10.41,0,0,1-4.25-.85,7.1,7.1,0,0,1-3-2.37,5.9,5.9,0,0,1-1.08-3.52h3.71a3.46,3.46,0,0,0,1.2,2.82,5.28,5.28,0,0,0,3.44,1,4.59,4.59,0,0,0,2.91-.78A2.52,2.52,0,0,0,962.73,277Z"/><path class="cls-1" d="M978.51,282.5a5.47,5.47,0,0,1-.41-1.48,5.54,5.54,0,0,1-4.16,1.77,5.6,5.6,0,0,1-3.9-1.36,4.38,4.38,0,0,1-1.51-3.37,4.5,4.5,0,0,1,1.89-3.89,9.13,9.13,0,0,1,5.38-1.35H978v-1a2.77,2.77,0,0,0-.69-2,2.68,2.68,0,0,0-2.09-.74,3.11,3.11,0,0,0-2,.61,1.87,1.87,0,0,0-.78,1.54h-3.56a3.94,3.94,0,0,1,.87-2.44,5.78,5.78,0,0,1,2.35-1.78,8.21,8.21,0,0,1,3.31-.64,6.6,6.6,0,0,1,4.44,1.4,5,5,0,0,1,1.7,3.93v7.15a8.11,8.11,0,0,0,.6,3.41v.25Zm-3.91-2.56a4,4,0,0,0,2-.52,3.42,3.42,0,0,0,1.4-1.37v-3h-1.92a5.23,5.23,0,0,0-3,.69,2.25,2.25,0,0,0-1,1.95,2.1,2.1,0,0,0,.68,1.63A2.69,2.69,0,0,0,974.6,279.94Z"/><path class="cls-1" d="M994.44,282.5A5.47,5.47,0,0,1,994,281a5.54,5.54,0,0,1-4.16,1.77,5.6,5.6,0,0,1-3.9-1.36,4.37,4.37,0,0,1-1.5-3.37,4.5,4.5,0,0,1,1.88-3.89,9.13,9.13,0,0,1,5.38-1.35h2.18v-1a2.81,2.81,0,0,0-.68-2,2.71,2.71,0,0,0-2.1-.74,3.11,3.11,0,0,0-2,.61,1.87,1.87,0,0,0-.78,1.54H984.8a3.94,3.94,0,0,1,.87-2.44A5.78,5.78,0,0,1,988,267a8.23,8.23,0,0,1,3.32-.64,6.59,6.59,0,0,1,4.43,1.4,5,5,0,0,1,1.7,3.93v7.15a8.11,8.11,0,0,0,.6,3.41v.25Zm-3.91-2.56a4,4,0,0,0,2-.52,3.42,3.42,0,0,0,1.4-1.37v-3H992a5.23,5.23,0,0,0-3,.69,2.25,2.25,0,0,0-1,1.95,2.07,2.07,0,0,0,.69,1.63A2.65,2.65,0,0,0,990.53,279.94Z"/><path class="cls-1" d="M1012.39,277a2.58,2.58,0,0,0-1-2.17,11.83,11.83,0,0,0-3.56-1.54,17.24,17.24,0,0,1-4.11-1.73,5.47,5.47,0,0,1-2.91-4.77,5.2,5.2,0,0,1,2.1-4.25,8.53,8.53,0,0,1,5.46-1.67,9.18,9.18,0,0,1,4,.82,6.6,6.6,0,0,1,2.74,2.34,6,6,0,0,1,1,3.36h-3.69a3.34,3.34,0,0,0-1-2.62,4.29,4.29,0,0,0-3-.94,4.57,4.57,0,0,0-2.82.77,2.58,2.58,0,0,0-1,2.17,2.35,2.35,0,0,0,1.08,2,12.41,12.41,0,0,0,3.57,1.52,16.22,16.22,0,0,1,4,1.69,6.27,6.27,0,0,1,2.21,2.16,5.66,5.66,0,0,1,.71,2.87,5.09,5.09,0,0,1-2,4.24,8.9,8.9,0,0,1-5.55,1.57,10.49,10.49,0,0,1-4.26-.85,7.13,7.13,0,0,1-3-2.37,5.9,5.9,0,0,1-1.08-3.52h3.71a3.46,3.46,0,0,0,1.2,2.82,5.28,5.28,0,0,0,3.44,1,4.59,4.59,0,0,0,2.91-.78A2.51,2.51,0,0,0,1012.39,277Z"/><circle class="cls-9" cx="125" cy="125" r="125"/><path class="cls-10" d="M21.44,141.16a35.47,35.47,0,0,0,35.43,35.43H204.68a24.26,24.26,0,0,0,4.61-48.08,35.07,35.07,0,0,0,.76-7.3A35.45,35.45,0,0,0,164,87.41,57.7,57.7,0,0,0,52.62,106,35.48,35.48,0,0,0,21.44,141.16Z"/><circle class="cls-11" cx="173.11" cy="170.35" r="36.35"/><path class="cls-10" d="M194.93,164.57a5,5,0,0,0,1.63-3.74,5.1,5.1,0,0,0-10.19,0,5,5,0,0,0,1.63,3.74,9.18,9.18,0,0,0-5.64,7.34A20.22,20.22,0,0,0,178,170a9.43,9.43,0,0,0,4.62-8.16A9.52,9.52,0,1,0,168.22,170a15.61,15.61,0,0,0-4.35,1.9,9.2,9.2,0,0,0-5.64-7.34,5,5,0,0,0,1.63-3.74,5.1,5.1,0,0,0-10.19,0,5,5,0,0,0,1.63,3.74,9.24,9.24,0,0,0-5.71,8.5,1,1,0,0,0,2,0,7.14,7.14,0,1,1,14.27,0v.2a18,18,0,0,0-6.79,14.07,1,1,0,1,0,2,0,16,16,0,0,1,31.94,0,1,1,0,0,0,2,0,17.87,17.87,0,0,0-6.79-14.07v-.2a7.14,7.14,0,1,1,14.27,0,1,1,0,0,0,2,0A9.24,9.24,0,0,0,194.93,164.57Zm-40.16-.68a3.06,3.06,0,1,1,3-3.06A3,3,0,0,1,154.77,163.89Zm10.87-2a7.48,7.48,0,1,1,7.47,7.48A7.45,7.45,0,0,1,165.64,161.85Zm25.82,2a3.06,3.06,0,1,1,3.06-3.06A3,3,0,0,1,191.46,163.89Z"/><circle class="cls-9" cx="983.3" cy="125" r="125"/><path class="cls-10" d="M879.74,141.16a35.47,35.47,0,0,0,35.42,35.43H1063a24.26,24.26,0,0,0,4.61-48.08,35.07,35.07,0,0,0,.76-7.3,35.46,35.46,0,0,0-46.09-33.8A57.69,57.69,0,0,0,910.92,106,35.47,35.47,0,0,0,879.74,141.16Z"/><circle class="cls-12" cx="1031.41" cy="170.35" r="36.35"/><path class="cls-10" d="M1164.14,152h-41.55a1.91,1.91,0,0,0-1.88,1.88v33a1.9,1.9,0,0,0,1.88,1.88h41.55a1.9,1.9,0,0,0,1.88-1.88v-33A1.91,1.91,0,0,0,1164.14,152Zm-28,1.91H1162a1.66,1.66,0,0,1,0,3.32h-25.8a1.66,1.66,0,0,1,0-3.32Zm-5.82.66a1,1,0,1,1-1,1A1,1,0,0,1,1130.34,154.53Zm-3,0a1,1,0,1,1-1,1A1,1,0,0,1,1127.38,154.53Zm-3,0a1,1,0,1,1-1,1A1,1,0,0,1,1124.43,154.53Zm39.79,32.32s0,.07-.08.08h-41.55s-.07-.05-.07-.08V159.27h41.7ZM1134,179.13l9,5.2a.77.77,0,0,0,.36.09.74.74,0,0,0,.36-.09l.09-.07,8.87-5.24a.71.71,0,0,0,.36-.63l-.09-10a.69.69,0,0,0,0-.24.71.71,0,0,0-.33-.46l-8.75-5.34a.75.75,0,0,0-.74,0l-9,5.14a.54.54,0,0,0-.16.14.68.68,0,0,0-.23.52l0,10.4A.73.73,0,0,0,1134,179.13Zm17.59-1.14-7.51,4.43v-8.75l7.43-4.1Zm-8.16-14.22,7.34,4.47-7.38,4.15-3.54-2-4-2.3Zm-8.31,5.57,4,2.28,3.52,2v8.79l-7.55-4.36Z"/><circle class="cls-9" cx="555.64" cy="125" r="125"/><path class="cls-10" d="M452.09,141.16a35.47,35.47,0,0,0,35.42,35.43H635.32a24.26,24.26,0,0,0,4.62-48.08,35.43,35.43,0,0,0-34.69-42.73,35.24,35.24,0,0,0-10.64,1.63A57.7,57.7,0,0,0,483.26,106,35.47,35.47,0,0,0,452.09,141.16Z"/><circle class="cls-13" cx="603.76" cy="170.35" r="36.35"/><path class="cls-10" d="M603.76,142.13A28.22,28.22,0,1,0,632,170.35,28.25,28.25,0,0,0,603.76,142.13Zm21.93,41.26h-8.5a48.27,48.27,0,0,0,1.64-11.09H629.2A25.44,25.44,0,0,1,625.69,183.39ZM611.3,194.74a24.69,24.69,0,0,0,5-8.66h7.5A25.68,25.68,0,0,1,611.3,194.74Zm-27.63-8.66h7.51a24.68,24.68,0,0,0,5,8.66A25.73,25.73,0,0,1,583.67,186.08Zm-5.36-13.78h10.37a47.72,47.72,0,0,0,1.65,11.09h-8.5A25.32,25.32,0,0,1,578.31,172.3Zm3.16-14.38h8.69a49.33,49.33,0,0,0-1.51,11.7h-10.4A25.33,25.33,0,0,1,581.47,157.92Zm14.74-12a25.06,25.06,0,0,0-5.24,9.27H583.2A25.68,25.68,0,0,1,596.21,146Zm28.1,9.27h-7.76A25.21,25.21,0,0,0,611.3,146,25.6,25.6,0,0,1,624.31,155.23Zm-8.13,14.39H591.34a45.63,45.63,0,0,1,1.65-11.7h21.54A46.07,46.07,0,0,1,616.18,169.62Zm-1.83,13.77H593.16a45.22,45.22,0,0,1-1.79-11.09h24.77A44.75,44.75,0,0,1,614.35,183.39Zm-.94,2.69c-2.3,5.81-5.8,9.6-9.65,9.6s-7.36-3.79-9.66-9.6Zm-19.55-30.85c2.29-6.16,5.91-10.21,9.9-10.21s7.6,4,9.89,10.21Zm25,14.39a48.82,48.82,0,0,0-1.51-11.7H626a25.46,25.46,0,0,1,3.23,11.7Z"/><path class="cls-1" d="M554.57,377.33a1.5,1.5,0,0,1-1.5-1.5V339H123.5V305.35a1.5,1.5,0,0,1,3,0V336H556.07v39.8A1.5,1.5,0,0,1,554.57,377.33Z"/><path class="cls-1" d="M125,294.48c-1.9,5.12-5.13,11.46-8.56,15.39l8.56-3.1,8.56,3.1C130.13,305.94,126.89,299.6,125,294.48Z"/><path class="cls-1" d="M554.57,377.33a1.5,1.5,0,0,1-1.5-1.5V336H982.63V305.35a1.5,1.5,0,0,1,3,0V339H556.07v36.8A1.5,1.5,0,0,1,554.57,377.33Z"/><path class="cls-1" d="M984.13,294.48c-1.89,5.12-5.13,11.46-8.56,15.39l8.56-3.1,8.56,3.1C989.26,305.94,986,299.6,984.13,294.48Z"/><path class="cls-1" d="M554.57,357a1.5,1.5,0,0,1-1.5-1.5V305.35a1.5,1.5,0,0,1,3,0v50.16A1.51,1.51,0,0,1,554.57,357Z"/><path class="cls-1" d="M554.57,294.48c1.89,5.12,5.13,11.46,8.56,15.39l-8.56-3.1-8.56,3.1C549.44,305.94,552.67,299.6,554.57,294.48Z"/><path class="cls-1" d="M463.57,976.27l6.15,16.35,6.14-16.35h4.79V997.6H477v-7l.36-9.41L471,997.6h-2.65l-6.28-16.42.37,9.39v7h-3.7V976.27Z"/><path class="cls-1" d="M483.72,989.53a9.39,9.39,0,0,1,.92-4.2,6.76,6.76,0,0,1,2.59-2.87,7.34,7.34,0,0,1,3.84-1,6.91,6.91,0,0,1,5.21,2.07,8.15,8.15,0,0,1,2.16,5.48v.83a9.42,9.42,0,0,1-.9,4.19,6.74,6.74,0,0,1-2.57,2.86,7.41,7.41,0,0,1-3.88,1,6.86,6.86,0,0,1-5.37-2.23,8.58,8.58,0,0,1-2-6Zm3.56.3a6.34,6.34,0,0,0,1,3.83,3.52,3.52,0,0,0,5.62,0,7.12,7.12,0,0,0,1-4.11,6.33,6.33,0,0,0-1-3.81,3.49,3.49,0,0,0-5.58,0A7,7,0,0,0,487.28,989.83Z"/><path class="cls-1" d="M515.07,989.83a9.61,9.61,0,0,1-1.64,5.88,5.38,5.38,0,0,1-4.54,2.18,5.16,5.16,0,0,1-4.33-2l-.18,1.72h-3.22V975.1h3.56v8.17a5.14,5.14,0,0,1,4.14-1.82,5.43,5.43,0,0,1,4.56,2.16,9.68,9.68,0,0,1,1.65,6Zm-3.56-.3a6.79,6.79,0,0,0-.9-3.87,3,3,0,0,0-2.64-1.29,3.3,3.3,0,0,0-3.25,2v6.53A3.34,3.34,0,0,0,508,995a3,3,0,0,0,2.58-1.25,6.55,6.55,0,0,0,.93-3.76Z"/><path class="cls-1" d="M517.76,977.63a1.86,1.86,0,0,1,.52-1.36,2.33,2.33,0,0,1,3,0,1.87,1.87,0,0,1,.53,1.36,1.82,1.82,0,0,1-.53,1.34,2.33,2.33,0,0,1-3,0A1.82,1.82,0,0,1,517.76,977.63Zm3.78,20H518V981.75h3.56Z"/><path class="cls-1" d="M528.9,997.6h-3.56V975.1h3.56Z"/><path class="cls-1" d="M539.46,997.89a7.37,7.37,0,0,1-5.49-2.13,7.73,7.73,0,0,1-2.1-5.68v-.44a9.53,9.53,0,0,1,.91-4.24,7.07,7.07,0,0,1,2.57-2.91,6.86,6.86,0,0,1,3.7-1,6.22,6.22,0,0,1,5,2.07,8.71,8.71,0,0,1,1.76,5.84v1.44H535.46a4.73,4.73,0,0,0,1.31,3.11,3.93,3.93,0,0,0,2.89,1.14,4.84,4.84,0,0,0,4-2l1.91,1.83a6.42,6.42,0,0,1-2.54,2.21A8,8,0,0,1,539.46,997.89ZM539,984.31a3,3,0,0,0-2.36,1,5.17,5.17,0,0,0-1.15,2.85h6.78v-.26a4.37,4.37,0,0,0-.95-2.7A3,3,0,0,0,539,984.31Z"/><path class="cls-1" d="M572.52,992.32l3.28-16.05h3.68l-4.92,21.33H571L567,982l-4.14,15.57h-3.56l-4.92-21.33H558l3.31,16,4.08-16h3.1Z"/><path class="cls-1" d="M580.42,989.53a9.39,9.39,0,0,1,.92-4.2,6.72,6.72,0,0,1,2.6-2.87,7.28,7.28,0,0,1,3.83-1,6.91,6.91,0,0,1,5.21,2.07,8.1,8.1,0,0,1,2.16,5.48l0,.83a9.42,9.42,0,0,1-.9,4.19,6.69,6.69,0,0,1-2.58,2.86,7.41,7.41,0,0,1-3.88,1,6.86,6.86,0,0,1-5.36-2.23,8.54,8.54,0,0,1-2-6Zm3.56.3a6.41,6.41,0,0,0,1,3.83,3.52,3.52,0,0,0,5.62,0,7,7,0,0,0,1-4.11,6.27,6.27,0,0,0-1-3.81,3.29,3.29,0,0,0-2.81-1.41,3.25,3.25,0,0,0-2.76,1.38A6.91,6.91,0,0,0,584,989.83Z"/><path class="cls-1" d="M606.17,985a8.69,8.69,0,0,0-1.45-.12,3.28,3.28,0,0,0-3.3,1.88V997.6h-3.56V981.75h3.4l.09,1.77a4,4,0,0,1,3.57-2.07,3.25,3.25,0,0,1,1.26.21Z"/><path class="cls-1" d="M613.26,990.8l-1.58,1.63v5.17h-3.56V975.1h3.56v13l1.12-1.4,4.38-4.93h4.27l-5.89,6.6,6.52,9.25H618Z"/><path class="cls-1" d="M630.16,997.89a7.36,7.36,0,0,1-5.48-2.13,7.7,7.7,0,0,1-2.11-5.68v-.44a9.53,9.53,0,0,1,.92-4.24,7.07,7.07,0,0,1,2.57-2.91,6.81,6.81,0,0,1,3.69-1,6.2,6.2,0,0,1,5,2.07,8.71,8.71,0,0,1,1.77,5.84v1.44H626.16a4.83,4.83,0,0,0,1.31,3.11,4,4,0,0,0,2.9,1.14,4.8,4.8,0,0,0,4-2l1.92,1.83a6.42,6.42,0,0,1-2.54,2.21A8,8,0,0,1,630.16,997.89Zm-.42-13.58a3,3,0,0,0-2.37,1,5.32,5.32,0,0,0-1.15,2.85H633v-.26a4.25,4.25,0,0,0-1-2.7A3,3,0,0,0,629.74,984.31Z"/><path class="cls-1" d="M647.28,985a8.6,8.6,0,0,0-1.45-.12,3.28,3.28,0,0,0-3.3,1.88V997.6H639V981.75h3.4l.09,1.77a4,4,0,0,1,3.57-2.07,3.25,3.25,0,0,1,1.26.21Z"/><path class="cls-1" d="M895.65,997.6V976.27H903a8.91,8.91,0,0,1,5.51,1.45,5.11,5.11,0,0,1,1.89,4.32,4.58,4.58,0,0,1-.79,2.64,5.1,5.1,0,0,1-2.32,1.81,4.71,4.71,0,0,1,2.68,1.77,5.12,5.12,0,0,1,.94,3.11A5.71,5.71,0,0,1,909,996a8.43,8.43,0,0,1-5.52,1.61Zm3.71-12.35H903a4.16,4.16,0,0,0,2.7-.79,2.68,2.68,0,0,0,1-2.21,2.73,2.73,0,0,0-.9-2.29,4.56,4.56,0,0,0-2.81-.7h-3.6Zm0,2.72v6.67h4.12a4,4,0,0,0,2.72-.87,3,3,0,0,0,1-2.4q0-3.33-3.4-3.4Z"/><path class="cls-1" d="M922.23,985a8.6,8.6,0,0,0-1.45-.12,3.26,3.26,0,0,0-3.29,1.88V997.6h-3.56V981.75h3.4l.08,1.77a4,4,0,0,1,3.58-2.07,3.25,3.25,0,0,1,1.26.21Z"/><path class="cls-1" d="M933.21,997.6a6,6,0,0,1-.41-1.48,6,6,0,0,1-8,.41,4.35,4.35,0,0,1-1.51-3.37,4.48,4.48,0,0,1,1.88-3.89,9.13,9.13,0,0,1,5.38-1.36h2.18v-1a2.48,2.48,0,0,0-2.78-2.71,3.17,3.17,0,0,0-2,.61,1.89,1.89,0,0,0-.78,1.55h-3.56a3.94,3.94,0,0,1,.87-2.44,5.7,5.7,0,0,1,2.35-1.78,8.26,8.26,0,0,1,3.32-.65,6.69,6.69,0,0,1,4.44,1.4,5,5,0,0,1,1.69,3.94v7.14a8,8,0,0,0,.61,3.42v.25ZM929.3,995a4.09,4.09,0,0,0,2-.51,3.36,3.36,0,0,0,1.39-1.38v-3h-1.91a5.28,5.28,0,0,0-3,.68,2.24,2.24,0,0,0-1,1.95,2,2,0,0,0,.68,1.63A2.6,2.6,0,0,0,929.3,995Z"/><path class="cls-1" d="M943,981.75l.1,1.83a5.69,5.69,0,0,1,4.61-2.13q4.95,0,5,5.67V997.6h-3.56V987.33a3.31,3.31,0,0,0-.65-2.24,2.77,2.77,0,0,0-2.13-.72,3.42,3.42,0,0,0-3.21,2V997.6h-3.56V981.75Z"/><path class="cls-1" d="M962.57,995.05a3.21,3.21,0,0,0,2.21-.78,2.65,2.65,0,0,0,.94-1.92h3.35a5.17,5.17,0,0,1-.92,2.76,6.09,6.09,0,0,1-2.34,2,7,7,0,0,1-3.2.75,6.76,6.76,0,0,1-5.27-2.15,8.55,8.55,0,0,1-2-6v-.37a8.39,8.39,0,0,1,1.93-5.79,6.71,6.71,0,0,1,5.28-2.18,6.49,6.49,0,0,1,4.6,1.65,5.9,5.9,0,0,1,1.87,4.33h-3.35a3.27,3.27,0,0,0-.93-2.24,3,3,0,0,0-2.22-.88,3.16,3.16,0,0,0-2.67,1.25,6.43,6.43,0,0,0-.95,3.8v.58a6.49,6.49,0,0,0,.93,3.84A3.12,3.12,0,0,0,962.57,995.05Z"/><path class="cls-1" d="M975,983.48a5.57,5.57,0,0,1,4.41-2q5.07,0,5.14,5.79V997.6H981V987.37a3.14,3.14,0,0,0-.71-2.32,2.94,2.94,0,0,0-2.09-.68,3.42,3.42,0,0,0-3.19,1.9V997.6h-3.56V975.1H975Z"/><path class="cls-1" d="M1012.35,987.49a13.13,13.13,0,0,1-1.08,5.5,8.15,8.15,0,0,1-3.1,3.63,9.07,9.07,0,0,1-9.26,0,8.27,8.27,0,0,1-3.13-3.61,12.61,12.61,0,0,1-1.12-5.4v-1.2a12.94,12.94,0,0,1,1.1-5.51,8.4,8.4,0,0,1,3.12-3.66,9.15,9.15,0,0,1,9.25,0,8.15,8.15,0,0,1,3.11,3.6,13,13,0,0,1,1.11,5.47Zm-3.7-1.11a9.36,9.36,0,0,0-1.34-5.44,4.73,4.73,0,0,0-7.56,0,9.11,9.11,0,0,0-1.39,5.33v1.23a9.27,9.27,0,0,0,1.37,5.43,4.4,4.4,0,0,0,3.8,1.92,4.36,4.36,0,0,0,3.79-1.87,9.49,9.49,0,0,0,1.33-5.48Z"/><path class="cls-1" d="M1016.65,997.6V984.38h-2.42v-2.63h2.42V980.3a5.45,5.45,0,0,1,1.47-4.08,5.62,5.62,0,0,1,4.1-1.43,8.5,8.5,0,0,1,2,.26l-.09,2.79a6.81,6.81,0,0,0-1.36-.12c-1.7,0-2.55.87-2.55,2.62v1.41h3.22v2.63h-3.22V997.6Z"/><path class="cls-1" d="M1027,997.6V984.38h-2.42v-2.63H1027V980.3a5.45,5.45,0,0,1,1.46-4.08,5.64,5.64,0,0,1,4.1-1.43,8.44,8.44,0,0,1,2,.26l-.08,2.79a6.91,6.91,0,0,0-1.37-.12c-1.7,0-2.54.87-2.54,2.62v1.41h3.22v2.63h-3.22V997.6Z"/><path class="cls-1" d="M1036.08,977.63a1.86,1.86,0,0,1,.52-1.36,2,2,0,0,1,1.48-.54,2,2,0,0,1,1.5.54,1.86,1.86,0,0,1,.52,1.36,1.82,1.82,0,0,1-.52,1.34,2,2,0,0,1-1.5.54,2,2,0,0,1-1.48-.54A1.82,1.82,0,0,1,1036.08,977.63Zm3.77,20h-3.55V981.75h3.55Z"/><path class="cls-1" d="M1049.94,995.05a3.19,3.19,0,0,0,2.21-.78,2.65,2.65,0,0,0,.94-1.92h3.35a5.09,5.09,0,0,1-.92,2.76,6,6,0,0,1-2.34,2,7,7,0,0,1-3.2.75,6.78,6.78,0,0,1-5.27-2.15,8.55,8.55,0,0,1-2-6v-.37a8.39,8.39,0,0,1,1.94-5.79,6.69,6.69,0,0,1,5.27-2.18,6.53,6.53,0,0,1,4.61,1.65,5.89,5.89,0,0,1,1.86,4.33h-3.35a3.27,3.27,0,0,0-.93-2.24,3,3,0,0,0-2.22-.88,3.16,3.16,0,0,0-2.67,1.25,6.43,6.43,0,0,0-1,3.8v.58a6.49,6.49,0,0,0,.93,3.84A3.12,3.12,0,0,0,1049.94,995.05Z"/><path class="cls-1" d="M1065.81,997.89a7.36,7.36,0,0,1-5.48-2.13,7.73,7.73,0,0,1-2.1-5.68v-.44a9.53,9.53,0,0,1,.91-4.24,7.07,7.07,0,0,1,2.57-2.91,6.83,6.83,0,0,1,3.69-1,6.23,6.23,0,0,1,5,2.07,8.76,8.76,0,0,1,1.76,5.84v1.44h-10.36a4.83,4.83,0,0,0,1.31,3.11,4,4,0,0,0,2.9,1.14,4.8,4.8,0,0,0,4-2l1.92,1.83a6.42,6.42,0,0,1-2.54,2.21A8,8,0,0,1,1065.81,997.89Zm-.42-13.58a3,3,0,0,0-2.37,1,5.32,5.32,0,0,0-1.15,2.85h6.78v-.26a4.25,4.25,0,0,0-1-2.7A3,3,0,0,0,1065.39,984.31Z"/><path class="cls-1" d="M37.36,997.6V976.27h7.31a8.88,8.88,0,0,1,5.5,1.45A5.11,5.11,0,0,1,52.06,982a4.58,4.58,0,0,1-.79,2.64A5.07,5.07,0,0,1,49,986.49a4.72,4.72,0,0,1,2.67,1.77,5.13,5.13,0,0,1,.95,3.11A5.72,5.72,0,0,1,50.65,996a8.38,8.38,0,0,1-5.51,1.61Zm3.7-12.35H44.7a4.16,4.16,0,0,0,2.7-.79,2.67,2.67,0,0,0,1-2.21,2.73,2.73,0,0,0-.9-2.29,4.52,4.52,0,0,0-2.8-.7H41.06Zm0,2.72v6.67h4.12a4,4,0,0,0,2.72-.87,3,3,0,0,0,1-2.4c0-2.22-1.14-3.35-3.4-3.4Z"/><path class="cls-1" d="M63.94,985a8.69,8.69,0,0,0-1.45-.12,3.28,3.28,0,0,0-3.3,1.88V997.6H55.63V981.75H59l.09,1.77a4,4,0,0,1,3.57-2.07,3.25,3.25,0,0,1,1.26.21Z"/><path class="cls-1" d="M74.92,997.6a5.23,5.23,0,0,1-.41-1.48,6,6,0,0,1-8.06.41,4.35,4.35,0,0,1-1.51-3.37,4.51,4.51,0,0,1,1.88-3.89,9.17,9.17,0,0,1,5.39-1.36h2.18v-1a2.78,2.78,0,0,0-.69-2,2.74,2.74,0,0,0-2.09-.74,3.2,3.2,0,0,0-2,.61,1.9,1.9,0,0,0-.77,1.55H65.28a4,4,0,0,1,.86-2.44,5.76,5.76,0,0,1,2.35-1.78,8.26,8.26,0,0,1,3.32-.65,6.65,6.65,0,0,1,4.44,1.4,5,5,0,0,1,1.7,3.94v7.14a8.13,8.13,0,0,0,.6,3.42v.25ZM71,995a4.06,4.06,0,0,0,2-.51,3.39,3.39,0,0,0,1.4-1.38v-3H72.47a5.22,5.22,0,0,0-3,.68,2.22,2.22,0,0,0-1,1.95,2.07,2.07,0,0,0,.68,1.63A2.63,2.63,0,0,0,71,995Z"/><path class="cls-1" d="M84.68,981.75l.1,1.83a5.69,5.69,0,0,1,4.62-2.13q4.95,0,5,5.67V997.6H90.88V987.33a3.26,3.26,0,0,0-.66-2.24,2.74,2.74,0,0,0-2.13-.72,3.44,3.44,0,0,0-3.21,2V997.6H81.32V981.75Z"/><path class="cls-1" d="M104.27,995.05a3.19,3.19,0,0,0,2.21-.78,2.65,2.65,0,0,0,.94-1.92h3.36a5.19,5.19,0,0,1-.93,2.76,6,6,0,0,1-2.34,2,7,7,0,0,1-3.19.75A6.79,6.79,0,0,1,99,995.74a8.55,8.55,0,0,1-2-6v-.37A8.39,8.39,0,0,1,99,983.63a6.69,6.69,0,0,1,5.27-2.18,6.51,6.51,0,0,1,4.61,1.65,5.9,5.9,0,0,1,1.87,4.33h-3.36a3.27,3.27,0,0,0-.93-2.24,3,3,0,0,0-2.22-.88,3.13,3.13,0,0,0-2.66,1.25,6.36,6.36,0,0,0-1,3.8v.58a6.49,6.49,0,0,0,.93,3.84A3.12,3.12,0,0,0,104.27,995.05Z"/><path class="cls-1" d="M116.67,983.48a5.57,5.57,0,0,1,4.41-2q5.07,0,5.14,5.79V997.6h-3.56V987.37a3.1,3.1,0,0,0-.71-2.32,2.91,2.91,0,0,0-2.08-.68,3.44,3.44,0,0,0-3.2,1.9V997.6h-3.56V975.1h3.56Z"/><path class="cls-1" d="M154.06,987.49A13.13,13.13,0,0,1,153,993a8.09,8.09,0,0,1-3.1,3.63,9.06,9.06,0,0,1-9.25,0,8.29,8.29,0,0,1-3.14-3.61,12.61,12.61,0,0,1-1.12-5.4v-1.2a12.94,12.94,0,0,1,1.11-5.51,8.27,8.27,0,0,1,3.12-3.66,9.13,9.13,0,0,1,9.24,0,8.15,8.15,0,0,1,3.11,3.6,12.84,12.84,0,0,1,1.12,5.47Zm-3.71-1.11a9.36,9.36,0,0,0-1.34-5.44,4.73,4.73,0,0,0-7.56,0,9.19,9.19,0,0,0-1.38,5.33v1.23a9.2,9.2,0,0,0,1.37,5.43,4.4,4.4,0,0,0,3.8,1.92A4.34,4.34,0,0,0,149,993a9.41,9.41,0,0,0,1.33-5.48Z"/><path class="cls-1" d="M158.35,997.6V984.38h-2.41v-2.63h2.41V980.3a5.45,5.45,0,0,1,1.47-4.08,5.64,5.64,0,0,1,4.1-1.43,8.44,8.44,0,0,1,2,.26l-.08,2.79a7,7,0,0,0-1.37-.12c-1.7,0-2.55.87-2.55,2.62v1.41h3.23v2.63h-3.23V997.6Z"/><path class="cls-1" d="M168.69,997.6V984.38h-2.42v-2.63h2.42V980.3a5.49,5.49,0,0,1,1.46-4.08,5.66,5.66,0,0,1,4.11-1.43,8.5,8.5,0,0,1,2,.26l-.09,2.79a6.81,6.81,0,0,0-1.36-.12c-1.7,0-2.55.87-2.55,2.62v1.41h3.22v2.63h-3.22V997.6Z"/><path class="cls-1" d="M177.78,977.63a1.86,1.86,0,0,1,.52-1.36,2.33,2.33,0,0,1,3,0,1.87,1.87,0,0,1,.53,1.36,1.82,1.82,0,0,1-.53,1.34,2.33,2.33,0,0,1-3,0A1.82,1.82,0,0,1,177.78,977.63Zm3.78,20H178V981.75h3.56Z"/><path class="cls-1" d="M191.64,995.05a3.23,3.23,0,0,0,2.22-.78,2.64,2.64,0,0,0,.93-1.92h3.36a5.26,5.26,0,0,1-.92,2.76,6,6,0,0,1-2.35,2,6.94,6.94,0,0,1-3.19.75,6.75,6.75,0,0,1-5.27-2.15,8.55,8.55,0,0,1-1.95-6v-.37a8.39,8.39,0,0,1,1.93-5.79,6.7,6.7,0,0,1,5.27-2.18,6.5,6.5,0,0,1,4.61,1.65,5.9,5.9,0,0,1,1.87,4.33h-3.36a3.23,3.23,0,0,0-.93-2.24,3,3,0,0,0-2.22-.88,3.13,3.13,0,0,0-2.66,1.25,6.36,6.36,0,0,0-.95,3.8v.58a6.49,6.49,0,0,0,.93,3.84A3.11,3.11,0,0,0,191.64,995.05Z"/><path class="cls-1" d="M207.52,997.89a7.37,7.37,0,0,1-5.49-2.13,7.73,7.73,0,0,1-2.1-5.68v-.44a9.53,9.53,0,0,1,.91-4.24,7,7,0,0,1,2.58-2.91,6.81,6.81,0,0,1,3.69-1,6.21,6.21,0,0,1,5,2.07,8.71,8.71,0,0,1,1.76,5.84v1.44H203.52a4.78,4.78,0,0,0,1.31,3.11,3.94,3.94,0,0,0,2.89,1.14,4.84,4.84,0,0,0,4-2l1.92,1.83a6.52,6.52,0,0,1-2.55,2.21A8,8,0,0,1,207.52,997.89Zm-.43-13.58a3,3,0,0,0-2.36,1,5.24,5.24,0,0,0-1.15,2.85h6.78v-.26a4.37,4.37,0,0,0-1-2.7A3,3,0,0,0,207.09,984.31Z"/><path class="cls-1" d="M983.3,694.34a1.5,1.5,0,0,1-1.5-1.5V662.16H552.23v-39.8a1.5,1.5,0,0,1,3,0v36.8H984.8v33.68A1.5,1.5,0,0,1,983.3,694.34Z"/><path class="cls-1" d="M983.3,703.7c1.89-5.11,5.13-11.45,8.56-15.38l-8.56,3.09-8.56-3.09C978.17,692.25,981.4,698.59,983.3,703.7Z"/><path class="cls-1" d="M124.16,694.34a1.5,1.5,0,0,1-1.5-1.5V659.16H552.23v-36.8a1.5,1.5,0,0,1,3,0v39.8H125.66v30.68A1.5,1.5,0,0,1,124.16,694.34Z"/><path class="cls-1" d="M124.16,703.7c1.9-5.11,5.14-11.45,8.56-15.38l-8.56,3.09-8.55-3.09C119,692.25,122.27,698.59,124.16,703.7Z"/><path class="cls-1" d="M553.73,694.34a1.5,1.5,0,0,1-1.5-1.5V642.68a1.5,1.5,0,1,1,3,0v50.16A1.5,1.5,0,0,1,553.73,694.34Z"/><path class="cls-1" d="M553.73,703.7c-1.9-5.11-5.13-11.45-8.56-15.38l8.56,3.09,8.56-3.09C558.86,692.25,555.63,698.59,553.73,703.7Z"/><circle class="cls-9" cx="125" cy="838.7" r="125"/><polygon class="cls-14" points="45.95 878.84 45.95 901 50.38 901 50.38 878.84 68.11 878.84 68.11 776.91 45.95 776.91 45.95 878.84"/><polygon class="cls-15" points="165.6 790.21 165.6 776.91 143.44 776.91 143.44 768.05 72.54 768.05 72.54 776.91 94.7 776.91 94.7 790.21 94.7 799.07 94.7 812.37 94.7 821.23 94.7 834.52 94.7 843.39 94.7 856.68 94.7 865.54 94.7 878.84 94.7 883.27 94.7 896.57 156.74 896.57 156.74 878.84 165.6 878.84 165.6 865.54 139.01 865.54 139.01 856.68 165.6 856.68 165.6 843.39 139.01 843.39 139.01 834.52 165.6 834.52 165.6 821.23 139.01 821.23 139.01 812.37 165.6 812.37 165.6 799.07 139.01 799.07 139.01 790.21 165.6 790.21"/><rect class="cls-10" x="103.56" y="878.84" width="8.86" height="17.73"/><rect class="cls-10" x="121.29" y="878.84" width="8.86" height="17.73"/><rect class="cls-10" x="139.01" y="878.84" width="8.86" height="17.73"/><rect class="cls-10" x="139.01" y="856.68" width="22.16" height="8.86"/><rect class="cls-10" x="139.01" y="834.52" width="22.16" height="8.86"/><rect class="cls-10" x="139.01" y="812.37" width="22.16" height="8.86"/><rect class="cls-10" x="139.01" y="790.21" width="22.16" height="8.86"/><rect class="cls-10" x="121.29" y="856.68" width="8.86" height="8.86"/><rect class="cls-10" x="121.29" y="834.52" width="8.86" height="8.86"/><rect class="cls-10" x="121.29" y="812.37" width="8.86" height="8.86"/><rect class="cls-10" x="121.29" y="790.21" width="8.86" height="8.86"/><rect class="cls-10" x="103.56" y="856.68" width="8.86" height="8.86"/><rect class="cls-10" x="103.56" y="834.52" width="8.86" height="8.86"/><rect class="cls-10" x="103.56" y="812.37" width="8.86" height="8.86"/><rect class="cls-10" x="103.56" y="790.21" width="8.86" height="8.86"/><rect class="cls-16" x="68.11" y="776.91" width="26.59" height="101.93"/><rect class="cls-16" x="50.38" y="878.84" width="44.32" height="22.16"/><rect class="cls-17" x="68.11" y="847.82" width="26.59" height="4.43"/><rect class="cls-17" x="68.11" y="825.66" width="26.59" height="4.43"/><rect class="cls-17" x="68.11" y="803.5" width="26.59" height="4.43"/><rect class="cls-17" x="68.11" y="785.78" width="26.59" height="4.43"/><rect class="cls-10" x="59.25" y="878.84" width="2.96" height="22.16"/><rect class="cls-10" x="59.25" y="878.84" width="26.59" height="2.46"/><rect class="cls-10" x="71.06" y="878.84" width="2.96" height="22.16"/><rect class="cls-10" x="82.88" y="878.84" width="2.96" height="22.16"/><rect class="cls-18" x="94.7" y="892.13" width="79.77" height="4.43"/><rect class="cls-18" x="90.27" y="896.57" width="84.2" height="4.43"/><rect class="cls-18" x="41.52" y="874.41" width="53.18" height="4.43"/><path class="cls-19" d="M208.86,894a6.37,6.37,0,0,0-8.51-6.1,4.83,4.83,0,0,0-4.35-2.79,4.77,4.77,0,0,0-3,1.07,4.74,4.74,0,0,0,.12-1.07,4.8,4.8,0,0,0-8.8-2.7,7.76,7.76,0,0,0-3.46-.81,4,4,0,0,0-.5.07v-1a4.09,4.09,0,0,0-4.07-4.09,4,4,0,0,0-2.59,1,6.09,6.09,0,0,0-12.08,1.09,6.73,6.73,0,0,0,.15,1.35,6,6,0,0,0-3.78-1.35,6.11,6.11,0,0,0-5.5,3.52,8.05,8.05,0,0,0-2.62-.46,8.13,8.13,0,0,0-6.42,13.1,6.23,6.23,0,0,0-1.7,4.26,6.12,6.12,0,0,0,6.1,6.12h23a5.38,5.38,0,0,0,7.8.94h2.84a6.38,6.38,0,0,0,2.77.65,6.87,6.87,0,0,0,2.93-.65H204a4.84,4.84,0,0,0,4.83-4.85,4.89,4.89,0,0,0-1.35-3.37A6.42,6.42,0,0,0,208.86,894Z"/><circle class="cls-9" cx="983.3" cy="838.7" r="125"/><path class="cls-20" d="M950.39,888.06a9.11,9.11,0,0,0,1.21-4.48,8.57,8.57,0,0,0-8.35-8.78,4.67,4.67,0,0,0-.52.08V873.8a4.4,4.4,0,0,0-4.27-4.5,4.14,4.14,0,0,0-2.72,1.06,6.38,6.38,0,0,0-12.69,1.2,7.39,7.39,0,0,0,.16,1.49,6.15,6.15,0,0,0-4-1.49,6.4,6.4,0,0,0-5.78,3.87,8.33,8.33,0,0,0-2.75-.51,8.75,8.75,0,0,0-8.53,9,9.23,9.23,0,0,0,1.78,5.42,7,7,0,0,0-1.78,4.68,6.57,6.57,0,0,0,6.41,6.72h33.7c11.88-.28,11.88-1.74,11.88-6A7.77,7.77,0,0,0,950.39,888.06Z"/><polygon class="cls-14" points="937.99 878.72 937.99 900.85 942.41 900.85 942.41 878.72 960.12 878.72 960.12 776.9 937.99 776.9 937.99 878.72"/><polygon class="cls-21" points="1057.51 790.18 1057.51 776.9 1035.38 776.9 1035.38 768.05 964.55 768.05 964.55 776.9 986.68 776.9 986.68 790.18 986.68 799.04 986.68 812.32 986.68 821.17 986.68 834.45 986.68 843.3 986.68 856.59 986.68 865.44 986.68 878.72 986.68 883.15 986.68 896.43 1048.66 896.43 1048.66 878.72 1057.51 878.72 1057.51 865.44 1030.95 865.44 1030.95 856.59 1057.51 856.59 1057.51 843.3 1030.95 843.3 1030.95 834.45 1057.51 834.45 1057.51 821.17 1030.95 821.17 1030.95 812.32 1057.51 812.32 1057.51 799.04 1030.95 799.04 1030.95 790.18 1057.51 790.18"/><rect class="cls-10" x="995.54" y="878.72" width="8.85" height="17.71"/><rect class="cls-10" x="1013.24" y="878.72" width="8.85" height="17.71"/><rect class="cls-10" x="1030.95" y="878.72" width="8.85" height="17.71"/><rect class="cls-10" x="1030.95" y="856.59" width="22.13" height="8.85"/><rect class="cls-10" x="1030.95" y="834.45" width="22.13" height="8.85"/><rect class="cls-10" x="1030.95" y="812.32" width="22.13" height="8.85"/><rect class="cls-10" x="1030.95" y="790.18" width="22.13" height="8.85"/><rect class="cls-10" x="1013.24" y="856.59" width="8.85" height="8.85"/><rect class="cls-10" x="1013.24" y="834.45" width="8.85" height="8.85"/><rect class="cls-10" x="1013.24" y="812.32" width="8.85" height="8.85"/><rect class="cls-10" x="1013.24" y="790.18" width="8.85" height="8.85"/><rect class="cls-10" x="995.54" y="856.59" width="8.85" height="8.85"/><rect class="cls-10" x="995.54" y="834.45" width="8.85" height="8.85"/><rect class="cls-10" x="995.54" y="812.32" width="8.85" height="8.85"/><rect class="cls-10" x="995.54" y="790.18" width="8.85" height="8.85"/><rect class="cls-16" x="960.12" y="776.9" width="26.56" height="101.82"/><rect class="cls-16" x="942.41" y="878.72" width="44.27" height="22.13"/><rect class="cls-17" x="960.12" y="847.73" width="26.56" height="4.43"/><rect class="cls-17" x="960.12" y="825.6" width="26.56" height="4.43"/><rect class="cls-17" x="960.12" y="803.46" width="26.56" height="4.43"/><rect class="cls-17" x="960.12" y="785.76" width="26.56" height="4.43"/><rect class="cls-10" x="951.27" y="878.72" width="2.95" height="22.13"/><rect class="cls-10" x="951.27" y="878.72" width="26.56" height="2.46"/><rect class="cls-10" x="963.07" y="878.72" width="2.95" height="22.13"/><rect class="cls-10" x="974.88" y="878.72" width="2.95" height="22.13"/><rect class="cls-18" x="986.68" y="892" width="79.68" height="4.43"/><rect class="cls-18" x="982.26" y="896.43" width="84.11" height="4.43"/><rect class="cls-18" x="933.56" y="874.29" width="53.12" height="4.43"/><circle class="cls-9" cx="552.65" cy="838.7" r="125"/><rect class="cls-22" x="487.38" y="802.7" width="120.05" height="84.27"/><path class="cls-23" d="M611.14,879.09V801.83a6.11,6.11,0,0,0-6.1-6.11H488.58a6.11,6.11,0,0,0-6.1,6.11v77.26h-8.14c.72,5.52,4.54,9.77,9.13,9.77h126c4.59,0,8.42-4.25,9.14-9.77ZM489.45,802.7H604.17v76.39H489.45Zm65.63,30.07a8.3,8.3,0,1,1-8.3-8.3A8.31,8.31,0,0,1,555.08,832.77Zm-8.59-20.72a29.7,29.7,0,1,0,29.7,29.7A29.74,29.74,0,0,0,546.49,812.05Zm16.87,49v-8.42h0c-.1-4.22-4.81-8.89-9-8.89H538.65c-4.21,0-8.92,4.67-9,8.89h0V861a25.64,25.64,0,1,1,33.73,0Z"/><path class="cls-24" d="M555.4,832.77a8.3,8.3,0,1,1-8.3-8.3A8.31,8.31,0,0,1,555.4,832.77Zm-8.59-20.72a29.7,29.7,0,1,0,29.7,29.7A29.73,29.73,0,0,0,546.81,812.05Zm16.87,49v-8.42h0c-.1-4.22-4.81-8.89-9-8.89H539c-4.21,0-8.92,4.67-9,8.89h0V861a25.63,25.63,0,1,1,33.73,0Z"/><circle class="cls-16" cx="609.14" cy="847.16" r="13.83"/><path class="cls-14" d="M609.08,824.86c-17,0-26,13-23.32,27.35,2.63,14.55,23.32,46.64,23.32,46.64s21.22-34,23.32-46.46C634.86,837.48,625.92,824.86,609.08,824.86Zm0,32.79a10.7,10.7,0,1,1,10.7-10.7A10.74,10.74,0,0,1,609.08,857.65Z"/><path class="cls-10" d="M1046.47,185.7a1.49,1.49,0,0,1-.33,2.09l-.22.16a28.79,28.79,0,0,1-3.21,2.13,23.34,23.34,0,0,1-34-23.33l-5.1-1.4,8.32-5,4.58,8.59-4.88-1.34a20.37,20.37,0,0,0,29.69,19.87,28.58,28.58,0,0,0,2.83-1.9l.22-.16A1.5,1.5,0,0,1,1046.47,185.7Zm8-10.1a23.38,23.38,0,0,0-39.1-22.72,1.5,1.5,0,1,0,2.13,2.12,20.37,20.37,0,0,1,34.14,19.59l-5-1.78,3.91,8.91,8.68-4.41ZM1029,177.49h.11a1.26,1.26,0,0,0,.95-.44l11.41-13.39-1.91-1.62-10.28,12.07-3.56-6-2.15,1.28,4.47,7.44A1.24,1.24,0,0,0,1029,177.49Z"/></g></g></svg>