<?xml version="1.0" encoding="utf-8"?>
<!-- Generator: Adobe Illustrator 25.2.3, SVG Export Plug-In . SVG Version: 6.00 Build 0)  -->
<svg version="1.1" id="Layer_1" xmlns="http://www.w3.org/2000/svg" xmlns:xlink="http://www.w3.org/1999/xlink" x="0px" y="0px"
	 viewBox="0 0 449 372" style="enable-background:new 0 0 449 372;" xml:space="preserve">
<style type="text/css">
	.st0{fill:none;stroke:url(#SVGID_1_);stroke-width:2.2005;stroke-miterlimit:10;}
	.st1{fill:url(#SVGID_2_);}
	.st2{fill:#FFFFFF;}
	.st3{fill:#BCECF7;stroke:#0050E5;stroke-width:2.2005;stroke-miterlimit:10;}
	.st4{fill:none;stroke:#0050E5;stroke-width:2.2005;stroke-miterlimit:10;}
	.st5{fill:#0050E5;}
	.st6{fill:none;stroke:url(#SVGID_3_);stroke-width:2.2005;stroke-miterlimit:10;}
	.st7{fill:url(#SVGID_4_);}
	.st8{fill:none;stroke:#FBAD41;stroke-width:2.2005;stroke-miterlimit:10;}
	.st9{fill:none;stroke:#FBAD41;stroke-width:2.2005;stroke-miterlimit:10;stroke-dasharray:2.2188,3.3281;}
	.st10{fill:none;stroke:#FF6633;stroke-width:2.2005;stroke-miterlimit:10;}
	.st11{fill:none;stroke:#FF6633;stroke-width:2.2005;stroke-miterlimit:10;stroke-dasharray:2.1807,3.271;}
</style>
<g>
	<g>
		<linearGradient id="SVGID_1_" gradientUnits="userSpaceOnUse" x1="53.1481" y1="239.6757" x2="91.2617" y2="239.6757">
			<stop  offset="0" style="stop-color:#FBAD41"/>
			<stop  offset="1" style="stop-color:#FF6633"/>
		</linearGradient>
		<path class="st0" d="M90.4,290.64c-22.21-28.33-35.62-63.9-36.15-102.6"/>
		<g>
			<linearGradient id="SVGID_2_" gradientUnits="userSpaceOnUse" x1="53.1317" y1="191.3367" x2="91.2617" y2="191.3367">
				<stop  offset="0" style="stop-color:#FBAD41"/>
				<stop  offset="1" style="stop-color:#FF6633"/>
			</linearGradient>
			<polygon class="st1" points="63.47,195.11 61.89,196.65 54.31,188.89 47.12,197.02 45.48,195.55 54.23,185.66 			"/>
		</g>
	</g>
</g>
<path class="st2" d="M125.39,56.31l-9.18-14.29c0,0,40.26-40.55,106.19-40.55S330.93,42.3,330.93,42.3l-12.25,14H125.39z"/>
<circle class="st3" cx="224.5" cy="185.2" r="149"/>
<circle class="st2" cx="224.5" cy="185.2" r="134.1"/>
<line class="st4" x1="75.5" y1="185.2" x2="373.5" y2="185.2"/>
<circle class="st3" cx="224.5" cy="183.83" r="48.3"/>
<circle class="st2" cx="224.5" cy="183.83" r="38.64"/>
<g>
	<path class="st5" d="M206.12,180.94c-0.06-0.61-0.32-1.09-0.78-1.43c-0.46-0.34-1.08-0.51-1.87-0.51c-0.54,0-0.99,0.07-1.36,0.22
		s-0.65,0.36-0.85,0.62s-0.29,0.56-0.29,0.9c-0.01,0.28,0.05,0.52,0.18,0.73c0.13,0.21,0.31,0.39,0.53,0.54s0.49,0.28,0.79,0.39
		s0.62,0.2,0.96,0.28l1.4,0.33c0.68,0.15,1.3,0.35,1.87,0.61s1.06,0.56,1.47,0.93s0.74,0.8,0.97,1.3c0.23,0.5,0.35,1.08,0.35,1.72
		c0,0.95-0.25,1.77-0.72,2.47c-0.48,0.7-1.17,1.23-2.06,1.62c-0.9,0.38-1.98,0.57-3.24,0.57c-1.25,0-2.35-0.19-3.27-0.58
		c-0.93-0.38-1.65-0.96-2.17-1.71s-0.79-1.69-0.82-2.81h3.18c0.04,0.52,0.19,0.96,0.45,1.3c0.27,0.35,0.62,0.61,1.07,0.78
		c0.45,0.17,0.95,0.26,1.52,0.26c0.56,0,1.04-0.08,1.45-0.24c0.41-0.16,0.73-0.39,0.96-0.67c0.23-0.29,0.34-0.62,0.34-0.99
		c0-0.35-0.1-0.64-0.31-0.88c-0.21-0.24-0.5-0.44-0.9-0.61c-0.39-0.17-0.87-0.32-1.44-0.46l-1.69-0.42
		c-1.31-0.32-2.34-0.82-3.1-1.49c-0.76-0.68-1.14-1.59-1.13-2.74c0-0.94,0.25-1.76,0.75-2.47s1.21-1.25,2.1-1.65
		c0.89-0.39,1.9-0.59,3.03-0.59c1.15,0,2.16,0.2,3.02,0.59c0.86,0.39,1.53,0.94,2.01,1.65s0.73,1.52,0.74,2.44H206.12z"/>
	<path class="st5" d="M214,192h-3.52l5.36-15.54h4.23l5.36,15.54h-3.52l-3.89-11.99h-0.12L214,192z M213.78,185.9h8.31v2.56h-8.31
		V185.9z"/>
	<path class="st5" d="M235.36,180.94c-0.06-0.61-0.32-1.09-0.78-1.43c-0.46-0.34-1.08-0.51-1.87-0.51c-0.54,0-0.99,0.07-1.36,0.22
		s-0.65,0.36-0.85,0.62s-0.29,0.56-0.29,0.9c-0.01,0.28,0.05,0.52,0.18,0.73c0.13,0.21,0.31,0.39,0.53,0.54s0.49,0.28,0.79,0.39
		s0.62,0.2,0.96,0.28l1.4,0.33c0.68,0.15,1.3,0.35,1.87,0.61s1.06,0.56,1.47,0.93s0.74,0.8,0.97,1.3c0.23,0.5,0.35,1.08,0.35,1.72
		c0,0.95-0.25,1.77-0.72,2.47c-0.48,0.7-1.17,1.23-2.06,1.62c-0.9,0.38-1.98,0.57-3.24,0.57c-1.25,0-2.35-0.19-3.27-0.58
		c-0.93-0.38-1.65-0.96-2.17-1.71s-0.79-1.69-0.82-2.81h3.18c0.04,0.52,0.19,0.96,0.45,1.3c0.27,0.35,0.62,0.61,1.07,0.78
		c0.45,0.17,0.95,0.26,1.52,0.26c0.56,0,1.04-0.08,1.45-0.24c0.41-0.16,0.73-0.39,0.96-0.67c0.23-0.29,0.34-0.62,0.34-0.99
		c0-0.35-0.1-0.64-0.31-0.88c-0.21-0.24-0.5-0.44-0.9-0.61c-0.39-0.17-0.87-0.32-1.44-0.46l-1.69-0.42
		c-1.31-0.32-2.34-0.82-3.1-1.49c-0.76-0.68-1.14-1.59-1.13-2.74c0-0.94,0.25-1.76,0.75-2.47s1.21-1.25,2.1-1.65
		c0.89-0.39,1.9-0.59,3.03-0.59c1.15,0,2.16,0.2,3.02,0.59c0.86,0.39,1.53,0.94,2.01,1.65s0.73,1.52,0.74,2.44H235.36z"/>
	<path class="st5" d="M240.92,192v-15.54h10.47v2.71h-7.18v3.7h6.65v2.71h-6.65v3.71h7.21V192H240.92z"/>
</g>
<g>
	<path d="M202.89,84.41l-2.19-8h0.98l1.67,6.52h0.08l1.7-6.52h1.09l1.7,6.52h0.08l1.67-6.52h0.98l-2.19,8h-1l-1.77-6.38h-0.06
		l-1.77,6.38H202.89z"/>
	<path d="M211.58,84.41h-1.02l2.94-8h1l2.94,8h-1.02l-2.39-6.74h-0.06L211.58,84.41z M211.96,81.29h4.09v0.86h-4.09V81.29z"/>
	<path d="M225.04,76.41v8h-0.94l-4.36-6.28h-0.08v6.28h-0.97v-8h0.94l4.38,6.3h0.08v-6.3H225.04z"/>
	<path d="M228.62,84.55c-0.38,0-0.73-0.07-1.04-0.22c-0.31-0.14-0.56-0.35-0.74-0.63c-0.18-0.28-0.27-0.61-0.27-1
		c0-0.34,0.07-0.62,0.2-0.84c0.14-0.21,0.32-0.38,0.54-0.51c0.23-0.12,0.48-0.21,0.75-0.28c0.27-0.06,0.55-0.11,0.83-0.15
		c0.36-0.05,0.66-0.08,0.89-0.11c0.23-0.02,0.39-0.07,0.5-0.13c0.11-0.06,0.16-0.16,0.16-0.31v-0.03c0-0.39-0.1-0.68-0.31-0.9
		c-0.21-0.21-0.53-0.32-0.95-0.32c-0.44,0-0.79,0.1-1.04,0.29s-0.43,0.4-0.53,0.62l-0.88-0.31c0.16-0.36,0.37-0.65,0.63-0.85
		c0.26-0.21,0.55-0.35,0.86-0.43c0.31-0.08,0.62-0.12,0.92-0.12c0.19,0,0.42,0.02,0.67,0.07c0.25,0.04,0.49,0.14,0.73,0.28
		s0.43,0.35,0.59,0.64s0.23,0.66,0.23,1.14v3.95h-0.92V83.6h-0.05c-0.06,0.13-0.17,0.27-0.31,0.42c-0.15,0.15-0.34,0.27-0.58,0.38
		C229.26,84.5,228.97,84.55,228.62,84.55z M228.76,83.73c0.36,0,0.67-0.07,0.92-0.21c0.25-0.14,0.44-0.33,0.57-0.55
		s0.19-0.46,0.19-0.71V81.4c-0.04,0.05-0.12,0.09-0.26,0.13c-0.13,0.04-0.28,0.07-0.45,0.1c-0.17,0.03-0.34,0.05-0.5,0.07
		s-0.29,0.04-0.39,0.05c-0.24,0.03-0.46,0.08-0.67,0.15c-0.21,0.07-0.37,0.17-0.5,0.31c-0.13,0.14-0.19,0.32-0.19,0.56
		c0,0.32,0.12,0.56,0.36,0.72S228.39,83.73,228.76,83.73z"/>
	<path d="M234.82,84.55c-0.38,0-0.73-0.07-1.04-0.22c-0.31-0.14-0.56-0.35-0.74-0.63c-0.18-0.28-0.27-0.61-0.27-1
		c0-0.34,0.07-0.62,0.2-0.84c0.14-0.21,0.32-0.38,0.54-0.51c0.23-0.12,0.48-0.21,0.75-0.28c0.27-0.06,0.55-0.11,0.83-0.15
		c0.36-0.05,0.66-0.08,0.89-0.11c0.23-0.02,0.39-0.07,0.5-0.13c0.11-0.06,0.16-0.16,0.16-0.31v-0.03c0-0.39-0.1-0.68-0.31-0.9
		c-0.21-0.21-0.53-0.32-0.95-0.32c-0.44,0-0.79,0.1-1.04,0.29s-0.43,0.4-0.53,0.62l-0.88-0.31c0.16-0.36,0.37-0.65,0.63-0.85
		c0.26-0.21,0.55-0.35,0.86-0.43c0.31-0.08,0.62-0.12,0.92-0.12c0.19,0,0.42,0.02,0.67,0.07c0.25,0.04,0.49,0.14,0.73,0.28
		s0.43,0.35,0.59,0.64s0.23,0.66,0.23,1.14v3.95h-0.92V83.6h-0.05c-0.06,0.13-0.17,0.27-0.31,0.42c-0.15,0.15-0.34,0.27-0.58,0.38
		C235.47,84.5,235.17,84.55,234.82,84.55z M234.96,83.73c0.36,0,0.67-0.07,0.92-0.21c0.25-0.14,0.44-0.33,0.57-0.55
		s0.19-0.46,0.19-0.71V81.4c-0.04,0.05-0.12,0.09-0.26,0.13c-0.13,0.04-0.28,0.07-0.45,0.1c-0.17,0.03-0.34,0.05-0.5,0.07
		s-0.29,0.04-0.39,0.05c-0.24,0.03-0.46,0.08-0.67,0.15c-0.21,0.07-0.37,0.17-0.5,0.31c-0.13,0.14-0.19,0.32-0.19,0.56
		c0,0.32,0.12,0.56,0.36,0.72S234.6,83.73,234.96,83.73z"/>
	<path d="M243.76,78.41c-0.05-0.4-0.24-0.7-0.57-0.92c-0.33-0.22-0.74-0.33-1.23-0.33c-0.35,0-0.66,0.06-0.93,0.17
		c-0.26,0.12-0.47,0.27-0.62,0.47c-0.15,0.2-0.22,0.43-0.22,0.68c0,0.21,0.05,0.4,0.15,0.55c0.1,0.15,0.23,0.28,0.4,0.38
		s0.33,0.18,0.51,0.25s0.34,0.12,0.49,0.15l0.81,0.22c0.21,0.05,0.44,0.13,0.7,0.23s0.5,0.23,0.74,0.39
		c0.24,0.17,0.43,0.38,0.58,0.63c0.15,0.26,0.23,0.57,0.23,0.95c0,0.43-0.11,0.82-0.34,1.17c-0.23,0.35-0.55,0.63-0.98,0.83
		s-0.95,0.31-1.57,0.31c-0.57,0-1.07-0.09-1.49-0.28s-0.75-0.44-0.98-0.77c-0.24-0.33-0.37-0.71-0.4-1.15h1
		c0.03,0.3,0.13,0.55,0.31,0.75c0.18,0.2,0.4,0.34,0.68,0.44c0.27,0.09,0.57,0.14,0.89,0.14c0.37,0,0.7-0.06,1-0.18
		s0.53-0.29,0.7-0.51c0.17-0.22,0.26-0.47,0.26-0.76c0-0.27-0.07-0.48-0.22-0.65c-0.15-0.17-0.34-0.3-0.59-0.41
		c-0.24-0.1-0.5-0.2-0.79-0.27l-0.98-0.28c-0.62-0.18-1.12-0.44-1.48-0.77c-0.36-0.33-0.55-0.77-0.55-1.31
		c0-0.45,0.12-0.84,0.37-1.17c0.24-0.33,0.57-0.6,0.98-0.78c0.41-0.19,0.87-0.28,1.39-0.28c0.52,0,0.97,0.09,1.38,0.28
		c0.4,0.18,0.72,0.43,0.96,0.75c0.24,0.32,0.36,0.68,0.37,1.08H243.76z"/>
	<path d="M189.59,94.32h-0.97c-0.06-0.28-0.16-0.52-0.3-0.73c-0.14-0.21-0.31-0.39-0.52-0.53c-0.2-0.14-0.43-0.25-0.67-0.33
		c-0.24-0.07-0.5-0.11-0.77-0.11c-0.48,0-0.92,0.12-1.31,0.37c-0.39,0.24-0.7,0.61-0.93,1.08s-0.35,1.06-0.35,1.75
		c0,0.69,0.12,1.28,0.35,1.75c0.23,0.48,0.54,0.84,0.93,1.08c0.39,0.24,0.83,0.37,1.31,0.37c0.27,0,0.52-0.04,0.77-0.11
		s0.47-0.18,0.67-0.33c0.2-0.14,0.37-0.32,0.52-0.54c0.14-0.21,0.24-0.46,0.3-0.73h0.97c-0.07,0.41-0.21,0.78-0.4,1.1
		c-0.19,0.32-0.43,0.6-0.72,0.82c-0.29,0.23-0.61,0.4-0.96,0.51s-0.73,0.18-1.14,0.18c-0.68,0-1.29-0.17-1.82-0.5
		s-0.95-0.81-1.25-1.42c-0.3-0.62-0.46-1.34-0.46-2.19s0.15-1.57,0.46-2.19c0.31-0.62,0.72-1.09,1.25-1.42
		c0.53-0.33,1.14-0.5,1.82-0.5c0.4,0,0.78,0.06,1.14,0.18s0.68,0.29,0.96,0.51c0.29,0.23,0.53,0.5,0.72,0.82
		C189.39,93.54,189.52,93.9,189.59,94.32z"/>
	<path d="M193.63,99.82h-2.47v-8h2.58c0.78,0,1.44,0.16,1.99,0.48c0.55,0.32,0.98,0.78,1.27,1.37c0.29,0.59,0.44,1.31,0.44,2.13
		c0,0.83-0.15,1.55-0.45,2.15c-0.3,0.6-0.73,1.06-1.3,1.38S194.44,99.82,193.63,99.82z M192.13,98.96h1.44
		c0.66,0,1.21-0.13,1.65-0.38c0.44-0.26,0.76-0.62,0.97-1.09c0.21-0.47,0.32-1.03,0.32-1.68c0-0.65-0.11-1.2-0.32-1.67
		c-0.21-0.47-0.53-0.83-0.95-1.08c-0.42-0.25-0.94-0.38-1.57-0.38h-1.55V98.96z"/>
	<path d="M205.41,91.82v8h-0.94l-4.36-6.28h-0.08v6.28h-0.97v-8H200l4.38,6.3h0.08v-6.3H205.41z"/>
	<path d="M212.57,98.35c-0.31,0-0.6-0.08-0.86-0.23c-0.26-0.16-0.47-0.36-0.62-0.62c-0.16-0.26-0.23-0.55-0.23-0.86
		c0-0.32,0.08-0.61,0.23-0.87c0.15-0.26,0.36-0.47,0.62-0.62c0.26-0.16,0.55-0.23,0.86-0.23c0.32,0,0.61,0.08,0.87,0.23
		c0.26,0.16,0.47,0.36,0.62,0.62c0.15,0.26,0.23,0.55,0.23,0.87c0,0.32-0.08,0.6-0.23,0.86c-0.15,0.26-0.36,0.47-0.62,0.62
		C213.17,98.27,212.88,98.35,212.57,98.35z"/>
	<path d="M224.1,93.82c-0.05-0.4-0.24-0.7-0.57-0.92c-0.33-0.22-0.74-0.33-1.23-0.33c-0.35,0-0.66,0.06-0.93,0.17
		c-0.26,0.12-0.47,0.27-0.62,0.47c-0.15,0.2-0.22,0.43-0.22,0.68c0,0.21,0.05,0.4,0.15,0.55c0.1,0.15,0.23,0.28,0.4,0.38
		s0.33,0.18,0.51,0.25s0.34,0.12,0.49,0.15l0.81,0.22c0.21,0.05,0.44,0.13,0.7,0.23s0.5,0.23,0.74,0.39
		c0.24,0.17,0.43,0.38,0.58,0.63c0.15,0.26,0.23,0.57,0.23,0.95c0,0.43-0.11,0.82-0.34,1.17c-0.23,0.35-0.55,0.63-0.98,0.83
		s-0.95,0.31-1.57,0.31c-0.57,0-1.07-0.09-1.49-0.28s-0.75-0.44-0.98-0.77c-0.24-0.33-0.37-0.71-0.4-1.15h1
		c0.03,0.3,0.13,0.55,0.31,0.75c0.18,0.2,0.4,0.34,0.68,0.44c0.27,0.09,0.57,0.14,0.89,0.14c0.37,0,0.7-0.06,1-0.18
		s0.53-0.29,0.7-0.51c0.17-0.22,0.26-0.47,0.26-0.76c0-0.27-0.07-0.48-0.22-0.65c-0.15-0.17-0.34-0.3-0.59-0.41
		c-0.24-0.1-0.5-0.2-0.79-0.27l-0.98-0.28c-0.62-0.18-1.12-0.44-1.48-0.77c-0.36-0.33-0.55-0.77-0.55-1.31
		c0-0.45,0.12-0.84,0.37-1.17c0.24-0.33,0.57-0.6,0.98-0.78c0.41-0.19,0.87-0.28,1.39-0.28c0.52,0,0.97,0.09,1.38,0.28
		c0.4,0.18,0.72,0.43,0.96,0.75c0.24,0.32,0.36,0.68,0.37,1.08H224.1z"/>
	<path d="M229.21,99.82h-2.47v-8h2.58c0.78,0,1.44,0.16,1.99,0.48c0.55,0.32,0.98,0.78,1.27,1.37c0.29,0.59,0.44,1.31,0.44,2.13
		c0,0.83-0.15,1.55-0.45,2.15c-0.3,0.6-0.73,1.06-1.3,1.38S230.02,99.82,229.21,99.82z M227.71,98.96h1.44
		c0.66,0,1.21-0.13,1.65-0.38c0.44-0.26,0.76-0.62,0.97-1.09c0.21-0.47,0.32-1.03,0.32-1.68c0-0.65-0.11-1.2-0.32-1.67
		c-0.21-0.47-0.53-0.83-0.95-1.08c-0.42-0.25-0.94-0.38-1.57-0.38h-1.55V98.96z"/>
	<path d="M237.96,95.39v0.86h-3.5v-0.86H237.96z"/>
	<path d="M240.6,99.82l-2.19-8h0.98l1.67,6.52h0.08l1.7-6.52h1.09l1.7,6.52h0.08l1.67-6.52h0.98l-2.19,8h-1l-1.77-6.38h-0.06
		l-1.77,6.38H240.6z"/>
	<path d="M249.29,99.82h-1.02l2.94-8h1l2.94,8h-1.02l-2.39-6.74h-0.06L249.29,99.82z M249.67,96.69h4.09v0.86h-4.09V96.69z"/>
	<path d="M262.75,91.82v8h-0.94l-4.36-6.28h-0.08v6.28h-0.97v-8h0.94l4.38,6.3h0.08v-6.3H262.75z"/>
	<path d="M160.76,107.22h1.16l2.72,6.64h0.09l2.72-6.64h1.16v8h-0.91v-6.08h-0.08l-2.5,6.08h-0.88l-2.5-6.08h-0.08v6.08h-0.91
		V107.22z"/>
	<path d="M174.2,112.77v-3.55h0.92v6h-0.92v-1.02h-0.06c-0.14,0.3-0.36,0.56-0.66,0.78s-0.67,0.32-1.13,0.32
		c-0.38,0-0.71-0.08-1-0.25c-0.29-0.17-0.52-0.42-0.69-0.75c-0.17-0.33-0.25-0.76-0.25-1.27v-3.81h0.92v3.75
		c0,0.44,0.12,0.79,0.37,1.05c0.25,0.26,0.56,0.39,0.94,0.39c0.23,0,0.46-0.06,0.7-0.18s0.44-0.3,0.6-0.54
		C174.12,113.45,174.2,113.14,174.2,112.77z"/>
	<path d="M177.73,107.22v8h-0.92v-8H177.73z"/>
	<path d="M182.03,109.22V110h-3.11v-0.78H182.03z M179.82,107.78h0.92v5.72c0,0.26,0.04,0.46,0.12,0.58s0.18,0.21,0.3,0.26
		s0.25,0.06,0.38,0.06c0.1,0,0.19-0.01,0.25-0.02c0.07-0.01,0.12-0.02,0.16-0.03l0.19,0.83c-0.06,0.02-0.15,0.05-0.26,0.07
		c-0.11,0.02-0.25,0.04-0.43,0.04c-0.26,0-0.52-0.06-0.76-0.17c-0.25-0.11-0.45-0.28-0.62-0.51c-0.16-0.23-0.24-0.52-0.24-0.87
		V107.78z"/>
	<path d="M183.89,108.22c-0.18,0-0.33-0.06-0.46-0.18c-0.13-0.12-0.19-0.27-0.19-0.44s0.06-0.32,0.19-0.44
		c0.13-0.12,0.28-0.18,0.46-0.18c0.18,0,0.33,0.06,0.46,0.18c0.13,0.12,0.19,0.27,0.19,0.44s-0.06,0.32-0.19,0.44
		C184.22,108.16,184.07,108.22,183.89,108.22z M183.42,115.22v-6h0.92v6H183.42z"/>
	<path d="M189.47,111.36v0.86h-3.5v-0.86H189.47z"/>
	<path d="M197.65,109.72h-0.97c-0.06-0.28-0.16-0.52-0.3-0.73c-0.14-0.21-0.31-0.39-0.52-0.53c-0.2-0.14-0.43-0.25-0.67-0.33
		c-0.24-0.07-0.5-0.11-0.77-0.11c-0.48,0-0.92,0.12-1.31,0.37c-0.39,0.24-0.7,0.61-0.93,1.08s-0.35,1.06-0.35,1.75
		c0,0.69,0.12,1.28,0.35,1.75c0.23,0.48,0.54,0.84,0.93,1.08c0.39,0.24,0.83,0.37,1.31,0.37c0.27,0,0.52-0.04,0.77-0.11
		s0.47-0.18,0.67-0.33c0.2-0.14,0.37-0.32,0.52-0.54c0.14-0.21,0.24-0.46,0.3-0.73h0.97c-0.07,0.41-0.21,0.78-0.4,1.1
		c-0.19,0.32-0.43,0.6-0.72,0.82c-0.29,0.23-0.61,0.4-0.96,0.51s-0.73,0.18-1.14,0.18c-0.68,0-1.29-0.17-1.82-0.5
		s-0.95-0.81-1.25-1.42c-0.3-0.62-0.46-1.34-0.46-2.19s0.15-1.57,0.46-2.19c0.31-0.62,0.72-1.09,1.25-1.42
		c0.53-0.33,1.14-0.5,1.82-0.5c0.4,0,0.78,0.06,1.14,0.18s0.68,0.29,0.96,0.51c0.29,0.23,0.53,0.5,0.72,0.82
		C197.45,108.94,197.58,109.31,197.65,109.72z"/>
	<path d="M200.01,107.22v8h-0.92v-8H200.01z"/>
	<path d="M204.14,115.35c-0.54,0-1.02-0.13-1.42-0.39s-0.73-0.62-0.95-1.08c-0.23-0.46-0.34-1.01-0.34-1.63
		c0-0.62,0.11-1.17,0.34-1.64c0.23-0.47,0.55-0.83,0.95-1.09s0.88-0.39,1.42-0.39c0.54,0,1.02,0.13,1.42,0.39s0.73,0.62,0.95,1.09
		c0.23,0.47,0.34,1.01,0.34,1.64c0,0.62-0.11,1.16-0.34,1.63c-0.23,0.46-0.55,0.82-0.95,1.08S204.68,115.35,204.14,115.35z
		 M204.14,114.52c0.41,0,0.75-0.11,1.02-0.32s0.46-0.49,0.59-0.83s0.19-0.72,0.19-1.12c0-0.4-0.06-0.77-0.19-1.12
		s-0.32-0.63-0.59-0.84s-0.6-0.32-1.02-0.32s-0.75,0.11-1.02,0.32s-0.46,0.49-0.59,0.84c-0.13,0.35-0.19,0.72-0.19,1.12
		c0,0.4,0.06,0.77,0.19,1.12c0.13,0.34,0.32,0.62,0.59,0.83S203.73,114.52,204.14,114.52z"/>
	<path d="M212.05,112.77v-3.55h0.92v6h-0.92v-1.02h-0.06c-0.14,0.3-0.36,0.56-0.66,0.78s-0.67,0.32-1.13,0.32
		c-0.38,0-0.71-0.08-1-0.25c-0.29-0.17-0.52-0.42-0.69-0.75c-0.17-0.33-0.25-0.76-0.25-1.27v-3.81h0.92v3.75
		c0,0.44,0.12,0.79,0.37,1.05c0.25,0.26,0.56,0.39,0.94,0.39c0.23,0,0.46-0.06,0.7-0.18s0.44-0.3,0.6-0.54
		C211.97,113.45,212.05,113.14,212.05,112.77z"/>
	<path d="M216.92,115.35c-0.5,0-0.94-0.13-1.32-0.38s-0.68-0.61-0.9-1.08c-0.22-0.46-0.32-1.02-0.32-1.65
		c0-0.63,0.11-1.18,0.32-1.64c0.22-0.46,0.52-0.82,0.9-1.07c0.39-0.25,0.83-0.38,1.34-0.38c0.39,0,0.7,0.06,0.93,0.19
		c0.23,0.13,0.4,0.27,0.52,0.44s0.22,0.3,0.28,0.4h0.08v-2.95h0.92v8h-0.89v-0.92h-0.11c-0.07,0.11-0.16,0.25-0.29,0.41
		s-0.3,0.31-0.54,0.44C217.62,115.28,217.31,115.35,216.92,115.35z M217.05,114.52c0.37,0,0.68-0.1,0.94-0.29s0.45-0.46,0.58-0.81
		c0.13-0.35,0.2-0.75,0.2-1.2c0-0.45-0.06-0.84-0.2-1.18c-0.13-0.34-0.32-0.6-0.58-0.79s-0.57-0.28-0.95-0.28
		c-0.39,0-0.72,0.1-0.97,0.3s-0.45,0.47-0.58,0.81s-0.19,0.72-0.19,1.14c0,0.43,0.07,0.82,0.2,1.16c0.13,0.35,0.33,0.62,0.59,0.83
		C216.34,114.41,216.66,114.52,217.05,114.52z"/>
	<path d="M231.15,109.72h-0.97c-0.06-0.28-0.16-0.52-0.3-0.73c-0.14-0.21-0.31-0.39-0.52-0.53c-0.2-0.14-0.43-0.25-0.67-0.33
		c-0.24-0.07-0.5-0.11-0.77-0.11c-0.48,0-0.92,0.12-1.31,0.37c-0.39,0.24-0.7,0.61-0.93,1.08s-0.35,1.06-0.35,1.75
		c0,0.69,0.12,1.28,0.35,1.75c0.23,0.48,0.54,0.84,0.93,1.08c0.39,0.24,0.83,0.37,1.31,0.37c0.27,0,0.52-0.04,0.77-0.11
		s0.47-0.18,0.67-0.33c0.2-0.14,0.37-0.32,0.52-0.54c0.14-0.21,0.24-0.46,0.3-0.73h0.97c-0.07,0.41-0.21,0.78-0.4,1.1
		c-0.19,0.32-0.43,0.6-0.72,0.82c-0.29,0.23-0.61,0.4-0.96,0.51s-0.73,0.18-1.14,0.18c-0.68,0-1.29-0.17-1.82-0.5
		s-0.95-0.81-1.25-1.42c-0.3-0.62-0.46-1.34-0.46-2.19s0.15-1.57,0.46-2.19c0.31-0.62,0.72-1.09,1.25-1.42
		c0.53-0.33,1.14-0.5,1.82-0.5c0.4,0,0.78,0.06,1.14,0.18s0.68,0.29,0.96,0.51c0.29,0.23,0.53,0.5,0.72,0.82
		C230.94,108.94,231.07,109.31,231.15,109.72z"/>
	<path d="M235.02,115.35c-0.54,0-1.02-0.13-1.42-0.39s-0.73-0.62-0.95-1.08c-0.23-0.46-0.34-1.01-0.34-1.63
		c0-0.62,0.11-1.17,0.34-1.64c0.23-0.47,0.55-0.83,0.95-1.09s0.88-0.39,1.42-0.39c0.54,0,1.02,0.13,1.42,0.39s0.73,0.62,0.95,1.09
		c0.23,0.47,0.34,1.01,0.34,1.64c0,0.62-0.11,1.16-0.34,1.63c-0.23,0.46-0.55,0.82-0.95,1.08S235.56,115.35,235.02,115.35z
		 M235.02,114.52c0.41,0,0.75-0.11,1.02-0.32s0.46-0.49,0.59-0.83s0.19-0.72,0.19-1.12c0-0.4-0.06-0.77-0.19-1.12
		s-0.32-0.63-0.59-0.84s-0.6-0.32-1.02-0.32s-0.75,0.11-1.02,0.32s-0.46,0.49-0.59,0.84c-0.13,0.35-0.19,0.72-0.19,1.12
		c0,0.4,0.06,0.77,0.19,1.12c0.13,0.34,0.32,0.62,0.59,0.83S234.61,114.52,235.02,114.52z"/>
	<path d="M240.07,111.61v3.61h-0.92v-6h0.89v0.94h0.08c0.14-0.3,0.35-0.55,0.64-0.74c0.29-0.19,0.66-0.28,1.11-0.28
		c0.41,0,0.76,0.08,1.07,0.25c0.3,0.17,0.54,0.42,0.71,0.75s0.25,0.76,0.25,1.27v3.81h-0.92v-3.75c0-0.47-0.12-0.84-0.37-1.1
		c-0.25-0.26-0.58-0.4-1.01-0.4c-0.29,0-0.56,0.06-0.79,0.19s-0.41,0.31-0.54,0.56S240.07,111.26,240.07,111.61z"/>
	<path d="M246.51,111.61v3.61h-0.92v-6h0.89v0.94h0.08c0.14-0.3,0.35-0.55,0.64-0.74c0.29-0.19,0.66-0.28,1.11-0.28
		c0.41,0,0.76,0.08,1.07,0.25c0.3,0.17,0.54,0.42,0.71,0.75s0.25,0.76,0.25,1.27v3.81h-0.92v-3.75c0-0.47-0.12-0.84-0.37-1.1
		c-0.25-0.26-0.58-0.4-1.01-0.4c-0.29,0-0.56,0.06-0.79,0.19s-0.41,0.31-0.54,0.56S246.51,111.26,246.51,111.61z"/>
	<path d="M254.54,115.35c-0.58,0-1.08-0.13-1.49-0.38s-0.74-0.62-0.97-1.08c-0.23-0.46-0.34-1-0.34-1.62c0-0.61,0.11-1.16,0.34-1.63
		c0.23-0.47,0.54-0.84,0.95-1.1c0.4-0.26,0.88-0.4,1.42-0.4c0.31,0,0.62,0.05,0.93,0.16c0.3,0.1,0.58,0.27,0.83,0.51
		c0.25,0.23,0.45,0.54,0.6,0.92s0.22,0.85,0.22,1.41v0.39h-4.63v-0.8h3.69c0-0.34-0.07-0.64-0.2-0.91
		c-0.13-0.27-0.32-0.48-0.57-0.63s-0.54-0.23-0.87-0.23c-0.37,0-0.68,0.09-0.95,0.27s-0.47,0.42-0.62,0.71
		c-0.14,0.29-0.21,0.6-0.21,0.93v0.53c0,0.45,0.08,0.84,0.24,1.15c0.16,0.31,0.38,0.55,0.66,0.71s0.61,0.24,0.98,0.24
		c0.24,0,0.46-0.03,0.66-0.1c0.2-0.07,0.37-0.17,0.51-0.31c0.14-0.14,0.25-0.31,0.33-0.52l0.89,0.25c-0.09,0.3-0.25,0.57-0.47,0.79
		c-0.22,0.23-0.49,0.41-0.82,0.53S254.95,115.35,254.54,115.35z"/>
	<path d="M260.87,115.35c-0.56,0-1.05-0.13-1.45-0.4s-0.72-0.63-0.94-1.1c-0.22-0.47-0.33-1-0.33-1.6c0-0.61,0.11-1.15,0.34-1.62
		c0.23-0.47,0.54-0.83,0.95-1.1c0.4-0.26,0.88-0.4,1.42-0.4c0.42,0,0.8,0.08,1.14,0.23c0.34,0.16,0.62,0.38,0.83,0.66
		s0.35,0.61,0.4,0.98h-0.92c-0.07-0.27-0.23-0.52-0.47-0.73c-0.24-0.21-0.56-0.32-0.97-0.32c-0.36,0-0.67,0.09-0.94,0.28
		s-0.48,0.45-0.63,0.79c-0.15,0.34-0.22,0.73-0.22,1.19c0,0.46,0.07,0.87,0.22,1.21c0.15,0.34,0.36,0.61,0.62,0.8
		s0.59,0.29,0.95,0.29c0.24,0,0.46-0.04,0.65-0.12c0.2-0.08,0.36-0.2,0.5-0.36c0.14-0.16,0.23-0.34,0.29-0.56h0.92
		c-0.05,0.35-0.18,0.67-0.38,0.96c-0.2,0.28-0.47,0.51-0.81,0.67C261.7,115.26,261.31,115.35,260.87,115.35z"/>
	<path d="M267.18,109.22V110h-3.11v-0.78H267.18z M264.98,107.78h0.92v5.72c0,0.26,0.04,0.46,0.12,0.58s0.18,0.21,0.3,0.26
		s0.25,0.06,0.38,0.06c0.1,0,0.19-0.01,0.25-0.02c0.07-0.01,0.12-0.02,0.16-0.03l0.19,0.83c-0.06,0.02-0.15,0.05-0.26,0.07
		c-0.11,0.02-0.25,0.04-0.43,0.04c-0.26,0-0.52-0.06-0.76-0.17c-0.25-0.11-0.45-0.28-0.62-0.51c-0.16-0.23-0.24-0.52-0.24-0.87
		V107.78z"/>
	<path d="M269.04,108.22c-0.18,0-0.33-0.06-0.46-0.18c-0.13-0.12-0.19-0.27-0.19-0.44s0.06-0.32,0.19-0.44
		c0.13-0.12,0.28-0.18,0.46-0.18c0.18,0,0.33,0.06,0.46,0.18c0.13,0.12,0.19,0.27,0.19,0.44s-0.06,0.32-0.19,0.44
		C269.38,108.16,269.22,108.22,269.04,108.22z M268.58,115.22v-6h0.92v6H268.58z"/>
	<path d="M276.09,109.22l-2.22,6h-0.94l-2.22-6h1l1.66,4.78h0.06l1.66-4.78H276.09z"/>
	<path d="M277.78,108.22c-0.18,0-0.33-0.06-0.46-0.18c-0.13-0.12-0.19-0.27-0.19-0.44s0.06-0.32,0.19-0.44
		c0.13-0.12,0.28-0.18,0.46-0.18c0.18,0,0.33,0.06,0.46,0.18c0.13,0.12,0.19,0.27,0.19,0.44s-0.06,0.32-0.19,0.44
		C278.11,108.16,277.96,108.22,277.78,108.22z M277.31,115.22v-6h0.92v6H277.31z"/>
	<path d="M282.53,109.22V110h-3.11v-0.78H282.53z M280.33,107.78h0.92v5.72c0,0.26,0.04,0.46,0.12,0.58s0.18,0.21,0.3,0.26
		s0.25,0.06,0.38,0.06c0.1,0,0.19-0.01,0.25-0.02c0.07-0.01,0.12-0.02,0.16-0.03l0.19,0.83c-0.06,0.02-0.15,0.05-0.26,0.07
		c-0.11,0.02-0.25,0.04-0.43,0.04c-0.26,0-0.52-0.06-0.76-0.17c-0.25-0.11-0.45-0.28-0.62-0.51c-0.16-0.23-0.24-0.52-0.24-0.87
		V107.78z"/>
	<path d="M284.52,117.45c-0.16,0-0.3-0.01-0.42-0.04c-0.12-0.02-0.21-0.05-0.25-0.07l0.23-0.81c0.34,0.09,0.62,0.08,0.84-0.01
		s0.42-0.36,0.58-0.81l0.17-0.47l-2.22-6.03h1l1.66,4.78h0.06l1.66-4.78l1.01,0.02l-2.56,6.86c-0.11,0.3-0.26,0.56-0.43,0.76
		c-0.17,0.2-0.37,0.35-0.59,0.45C285.05,117.41,284.79,117.45,284.52,117.45z"/>
</g>
<g>
	<path d="M156.19,263.07v-8h4.8v0.86h-3.83v2.7h3.47v0.86h-3.47v3.58H156.19z"/>
	<path d="M164.09,263.07l-2.19-8h0.98l1.67,6.52h0.08l1.7-6.52h1.09l1.7,6.52h0.08l1.67-6.52h0.98l-2.19,8h-1l-1.77-6.38h-0.06
		l-1.77,6.38H164.09z"/>
	<path d="M178.3,261.6c-0.31,0-0.6-0.08-0.86-0.23c-0.26-0.16-0.47-0.36-0.62-0.62c-0.16-0.26-0.23-0.55-0.23-0.86
		c0-0.32,0.08-0.61,0.23-0.87c0.15-0.26,0.36-0.47,0.62-0.62c0.26-0.16,0.55-0.23,0.86-0.23c0.32,0,0.61,0.08,0.87,0.23
		c0.26,0.16,0.47,0.36,0.62,0.62c0.15,0.26,0.23,0.55,0.23,0.87c0,0.32-0.08,0.6-0.23,0.86c-0.15,0.26-0.36,0.47-0.62,0.62
		C178.91,261.52,178.62,261.6,178.3,261.6z"/>
	<path d="M185.19,263.07v-0.7l4.31-6.44h-4.36v-0.86h5.52v0.7l-4.31,6.44h4.36v0.86H185.19z"/>
	<path d="M191.9,255.92v-0.86h6v0.86h-2.52v7.14h-0.97v-7.14H191.9z"/>
	<path d="M205.74,255.06v8h-0.94l-4.36-6.28h-0.08v6.28h-0.97v-8h0.94l4.38,6.3h0.08v-6.3H205.74z"/>
	<path d="M208.01,263.07h-1.02l2.94-8h1l2.94,8h-1.02l-2.39-6.74h-0.06L208.01,263.07z M208.38,259.94h4.09v0.86h-4.09V259.94z"/>
	<path d="M220.34,261.6c-0.31,0-0.6-0.08-0.86-0.23c-0.26-0.16-0.47-0.36-0.62-0.62c-0.16-0.26-0.23-0.55-0.23-0.86
		c0-0.32,0.08-0.61,0.23-0.87c0.15-0.26,0.36-0.47,0.62-0.62c0.26-0.16,0.55-0.23,0.86-0.23c0.32,0,0.61,0.08,0.87,0.23
		c0.26,0.16,0.47,0.36,0.62,0.62c0.15,0.26,0.23,0.55,0.23,0.87c0,0.32-0.08,0.6-0.23,0.86c-0.15,0.26-0.36,0.47-0.62,0.62
		C220.95,261.52,220.66,261.6,220.34,261.6z"/>
	<path d="M231.87,257.07c-0.05-0.4-0.24-0.7-0.57-0.92c-0.33-0.22-0.74-0.33-1.23-0.33c-0.35,0-0.66,0.06-0.93,0.17
		c-0.26,0.12-0.47,0.27-0.62,0.47c-0.15,0.2-0.22,0.43-0.22,0.68c0,0.21,0.05,0.4,0.15,0.55c0.1,0.15,0.23,0.28,0.4,0.38
		s0.33,0.18,0.51,0.25s0.34,0.12,0.49,0.15l0.81,0.22c0.21,0.05,0.44,0.13,0.7,0.23s0.5,0.23,0.74,0.39
		c0.24,0.17,0.43,0.38,0.58,0.63c0.15,0.26,0.23,0.57,0.23,0.95c0,0.43-0.11,0.82-0.34,1.17c-0.23,0.35-0.55,0.63-0.98,0.83
		s-0.95,0.31-1.57,0.31c-0.57,0-1.07-0.09-1.49-0.28s-0.75-0.44-0.98-0.77c-0.24-0.33-0.37-0.71-0.4-1.15h1
		c0.03,0.3,0.13,0.55,0.31,0.75c0.18,0.2,0.4,0.34,0.68,0.44c0.27,0.09,0.57,0.14,0.89,0.14c0.37,0,0.7-0.06,1-0.18
		s0.53-0.29,0.7-0.51c0.17-0.22,0.26-0.47,0.26-0.76c0-0.27-0.07-0.48-0.22-0.65c-0.15-0.17-0.34-0.3-0.59-0.41
		c-0.24-0.1-0.5-0.2-0.79-0.27l-0.98-0.28c-0.62-0.18-1.12-0.44-1.48-0.77c-0.36-0.33-0.55-0.77-0.55-1.31
		c0-0.45,0.12-0.84,0.37-1.17c0.24-0.33,0.57-0.6,0.98-0.78c0.41-0.19,0.87-0.28,1.39-0.28c0.52,0,0.97,0.09,1.38,0.28
		c0.4,0.18,0.72,0.43,0.96,0.75c0.24,0.32,0.36,0.68,0.37,1.08H231.87z"/>
	<path d="M235.97,263.07l-2.19-8h0.98l1.67,6.52h0.08l1.7-6.52h1.09l1.7,6.52h0.08l1.67-6.52h0.98l-2.19,8h-1l-1.77-6.38h-0.06
		l-1.77,6.38H235.97z"/>
	<path d="M250.05,257.57c-0.09-0.26-0.2-0.5-0.34-0.71c-0.14-0.21-0.31-0.39-0.5-0.54s-0.41-0.26-0.65-0.34
		c-0.24-0.08-0.51-0.12-0.8-0.12c-0.47,0-0.91,0.12-1.29,0.37c-0.39,0.24-0.7,0.61-0.93,1.08c-0.23,0.48-0.34,1.06-0.34,1.75
		c0,0.69,0.12,1.28,0.35,1.75c0.23,0.48,0.55,0.84,0.94,1.08c0.4,0.24,0.84,0.37,1.34,0.37c0.46,0,0.86-0.1,1.21-0.29
		c0.35-0.2,0.62-0.48,0.82-0.84c0.2-0.36,0.29-0.79,0.29-1.28l0.3,0.06h-2.41v-0.86h3.05v0.86c0,0.66-0.14,1.23-0.42,1.72
		c-0.28,0.49-0.67,0.86-1.16,1.13c-0.49,0.27-1.05,0.4-1.69,0.4c-0.71,0-1.33-0.17-1.87-0.5s-0.95-0.81-1.25-1.42
		c-0.3-0.62-0.45-1.34-0.45-2.19c0-0.63,0.09-1.2,0.26-1.71c0.17-0.51,0.41-0.94,0.73-1.29c0.31-0.36,0.68-0.63,1.11-0.82
		c0.43-0.19,0.9-0.29,1.41-0.29c0.42,0,0.82,0.06,1.18,0.19c0.37,0.13,0.69,0.3,0.98,0.54c0.29,0.23,0.53,0.51,0.72,0.83
		c0.19,0.32,0.33,0.67,0.4,1.06H250.05z"/>
	<path d="M257.97,261.6c-0.31,0-0.6-0.08-0.86-0.23c-0.26-0.16-0.47-0.36-0.62-0.62c-0.16-0.26-0.23-0.55-0.23-0.86
		c0-0.32,0.08-0.61,0.23-0.87c0.15-0.26,0.36-0.47,0.62-0.62c0.26-0.16,0.55-0.23,0.86-0.23c0.32,0,0.61,0.08,0.87,0.23
		c0.26,0.16,0.47,0.36,0.62,0.62c0.15,0.26,0.23,0.55,0.23,0.87c0,0.32-0.08,0.6-0.23,0.86c-0.15,0.26-0.36,0.47-0.62,0.62
		C258.58,261.52,258.29,261.6,257.97,261.6z"/>
	<path d="M271.57,257.57h-0.97c-0.06-0.28-0.16-0.52-0.3-0.73c-0.14-0.21-0.31-0.39-0.52-0.53c-0.2-0.14-0.43-0.25-0.67-0.33
		c-0.24-0.07-0.5-0.11-0.77-0.11c-0.48,0-0.92,0.12-1.31,0.37c-0.39,0.24-0.7,0.61-0.93,1.08s-0.35,1.06-0.35,1.75
		c0,0.69,0.12,1.28,0.35,1.75c0.23,0.48,0.54,0.84,0.93,1.08c0.39,0.24,0.83,0.37,1.31,0.37c0.27,0,0.52-0.04,0.77-0.11
		s0.47-0.18,0.67-0.33c0.2-0.14,0.37-0.32,0.52-0.54c0.14-0.21,0.24-0.46,0.3-0.73h0.97c-0.07,0.41-0.21,0.78-0.4,1.1
		c-0.19,0.32-0.43,0.6-0.72,0.82c-0.29,0.23-0.61,0.4-0.96,0.51s-0.73,0.18-1.14,0.18c-0.68,0-1.29-0.17-1.82-0.5
		s-0.95-0.81-1.25-1.42c-0.3-0.62-0.46-1.34-0.46-2.19s0.15-1.57,0.46-2.19c0.31-0.62,0.72-1.09,1.25-1.42
		c0.53-0.33,1.14-0.5,1.82-0.5c0.4,0,0.78,0.06,1.14,0.18s0.68,0.29,0.96,0.51c0.29,0.23,0.53,0.5,0.72,0.82
		C271.36,256.79,271.49,257.15,271.57,257.57z"/>
	<path d="M273.46,263.07h-1.02l2.94-8h1l2.94,8h-1.02l-2.39-6.74h-0.06L273.46,263.07z M273.83,259.94h4.09v0.86h-4.09V259.94z"/>
	<path d="M284.95,257.07c-0.05-0.4-0.24-0.7-0.57-0.92c-0.33-0.22-0.74-0.33-1.23-0.33c-0.35,0-0.66,0.06-0.93,0.17
		c-0.26,0.12-0.47,0.27-0.62,0.47c-0.15,0.2-0.22,0.43-0.22,0.68c0,0.21,0.05,0.4,0.15,0.55c0.1,0.15,0.23,0.28,0.4,0.38
		s0.33,0.18,0.51,0.25s0.34,0.12,0.49,0.15l0.81,0.22c0.21,0.05,0.44,0.13,0.7,0.23s0.5,0.23,0.74,0.39
		c0.24,0.17,0.43,0.38,0.58,0.63c0.15,0.26,0.23,0.57,0.23,0.95c0,0.43-0.11,0.82-0.34,1.17c-0.23,0.35-0.55,0.63-0.98,0.83
		s-0.95,0.31-1.57,0.31c-0.57,0-1.07-0.09-1.49-0.28s-0.75-0.44-0.98-0.77c-0.24-0.33-0.37-0.71-0.4-1.15h1
		c0.03,0.3,0.13,0.55,0.31,0.75c0.18,0.2,0.4,0.34,0.68,0.44c0.27,0.09,0.57,0.14,0.89,0.14c0.37,0,0.7-0.06,1-0.18
		s0.53-0.29,0.7-0.51c0.17-0.22,0.26-0.47,0.26-0.76c0-0.27-0.07-0.48-0.22-0.65c-0.15-0.17-0.34-0.3-0.59-0.41
		c-0.24-0.1-0.5-0.2-0.79-0.27l-0.98-0.28c-0.62-0.18-1.12-0.44-1.48-0.77c-0.36-0.33-0.55-0.77-0.55-1.31
		c0-0.45,0.12-0.84,0.37-1.17c0.24-0.33,0.57-0.6,0.98-0.78c0.41-0.19,0.87-0.28,1.39-0.28c0.52,0,0.97,0.09,1.38,0.28
		c0.4,0.18,0.72,0.43,0.96,0.75c0.24,0.32,0.36,0.68,0.37,1.08H284.95z"/>
	<path d="M287.59,263.07v-8h2.8c0.56,0,1.02,0.1,1.38,0.29c0.36,0.19,0.63,0.45,0.81,0.77c0.18,0.32,0.27,0.68,0.27,1.07
		c0,0.34-0.06,0.63-0.18,0.85s-0.28,0.4-0.48,0.53c-0.2,0.13-0.41,0.23-0.64,0.29v0.08c0.24,0.02,0.49,0.1,0.74,0.26
		c0.25,0.16,0.45,0.38,0.62,0.67c0.17,0.29,0.25,0.65,0.25,1.07c0,0.4-0.09,0.76-0.27,1.08c-0.18,0.32-0.47,0.57-0.86,0.76
		c-0.39,0.19-0.9,0.28-1.54,0.28H287.59z M288.56,258.58h1.8c0.29,0,0.56-0.06,0.79-0.17s0.42-0.28,0.56-0.48s0.21-0.45,0.21-0.73
		c0-0.35-0.12-0.65-0.37-0.9s-0.63-0.37-1.16-0.37h-1.83V258.58z M288.56,262.21h1.92c0.63,0,1.08-0.12,1.35-0.37s0.4-0.54,0.4-0.9
		c0-0.27-0.07-0.52-0.21-0.75s-0.33-0.42-0.59-0.55c-0.26-0.14-0.56-0.21-0.91-0.21h-1.97V262.21z"/>
	<path d="M158.68,278.47h-2.47v-8h2.58c0.78,0,1.44,0.16,1.99,0.48c0.55,0.32,0.98,0.78,1.27,1.37c0.29,0.59,0.44,1.31,0.44,2.13
		c0,0.83-0.15,1.55-0.45,2.15c-0.3,0.6-0.73,1.06-1.3,1.38S159.49,278.47,158.68,278.47z M157.18,277.61h1.44
		c0.66,0,1.21-0.13,1.65-0.38c0.44-0.26,0.76-0.62,0.97-1.09c0.21-0.47,0.32-1.03,0.32-1.68c0-0.65-0.11-1.2-0.32-1.67
		c-0.21-0.47-0.53-0.83-0.95-1.08c-0.42-0.25-0.94-0.38-1.57-0.38h-1.55V277.61z"/>
	<path d="M166.59,278.47h-2.47v-8h2.58c0.78,0,1.44,0.16,1.99,0.48c0.55,0.32,0.98,0.78,1.27,1.37c0.29,0.59,0.44,1.31,0.44,2.13
		c0,0.83-0.15,1.55-0.45,2.15c-0.3,0.6-0.73,1.06-1.3,1.38S167.4,278.47,166.59,278.47z M165.09,277.61h1.44
		c0.66,0,1.21-0.13,1.65-0.38c0.44-0.26,0.76-0.62,0.97-1.09c0.21-0.47,0.32-1.03,0.32-1.68c0-0.65-0.11-1.2-0.32-1.67
		c-0.21-0.47-0.53-0.83-0.95-1.08c-0.42-0.25-0.94-0.38-1.57-0.38h-1.55V277.61z"/>
	<path d="M174.34,278.59c-0.54,0-1.02-0.13-1.42-0.39s-0.73-0.62-0.95-1.08c-0.23-0.46-0.34-1.01-0.34-1.63
		c0-0.62,0.11-1.17,0.34-1.64c0.23-0.47,0.55-0.83,0.95-1.09s0.88-0.39,1.42-0.39c0.54,0,1.02,0.13,1.42,0.39s0.73,0.62,0.95,1.09
		c0.23,0.47,0.34,1.01,0.34,1.64c0,0.62-0.11,1.16-0.34,1.63c-0.23,0.46-0.55,0.82-0.95,1.08S174.88,278.59,174.34,278.59z
		 M174.34,277.77c0.41,0,0.75-0.11,1.02-0.32s0.46-0.49,0.59-0.83s0.19-0.72,0.19-1.12c0-0.4-0.06-0.77-0.19-1.12
		s-0.32-0.63-0.59-0.84s-0.6-0.32-1.02-0.32s-0.75,0.11-1.02,0.32s-0.46,0.49-0.59,0.84c-0.13,0.35-0.19,0.72-0.19,1.12
		c0,0.4,0.06,0.77,0.19,1.12c0.13,0.34,0.32,0.62,0.59,0.83S173.93,277.77,174.34,277.77z"/>
	<path d="M182.96,272.47c-0.05-0.4-0.24-0.7-0.57-0.92c-0.33-0.22-0.74-0.33-1.23-0.33c-0.35,0-0.66,0.06-0.93,0.17
		c-0.26,0.12-0.47,0.27-0.62,0.47c-0.15,0.2-0.22,0.43-0.22,0.68c0,0.21,0.05,0.4,0.15,0.55c0.1,0.15,0.23,0.28,0.4,0.38
		s0.33,0.18,0.51,0.25s0.34,0.12,0.49,0.15l0.81,0.22c0.21,0.05,0.44,0.13,0.7,0.23s0.5,0.23,0.74,0.39
		c0.24,0.17,0.43,0.38,0.58,0.63c0.15,0.26,0.23,0.57,0.23,0.95c0,0.43-0.11,0.82-0.34,1.17c-0.23,0.35-0.55,0.63-0.98,0.83
		s-0.95,0.31-1.57,0.31c-0.57,0-1.07-0.09-1.49-0.28s-0.75-0.44-0.98-0.77c-0.24-0.33-0.37-0.71-0.4-1.15h1
		c0.03,0.3,0.13,0.55,0.31,0.75c0.18,0.2,0.4,0.34,0.68,0.44c0.27,0.09,0.57,0.14,0.89,0.14c0.37,0,0.7-0.06,1-0.18
		s0.53-0.29,0.7-0.51c0.17-0.22,0.26-0.47,0.26-0.76c0-0.27-0.07-0.48-0.22-0.65c-0.15-0.17-0.34-0.3-0.59-0.41
		c-0.24-0.1-0.5-0.2-0.79-0.27l-0.98-0.28c-0.62-0.18-1.12-0.44-1.48-0.77c-0.36-0.33-0.55-0.77-0.55-1.31
		c0-0.45,0.12-0.84,0.37-1.17c0.24-0.33,0.57-0.6,0.98-0.78c0.41-0.19,0.87-0.28,1.39-0.28c0.52,0,0.97,0.09,1.38,0.28
		c0.4,0.18,0.72,0.43,0.96,0.75c0.24,0.32,0.36,0.68,0.37,1.08H182.96z"/>
	<path d="M190.83,277c-0.31,0-0.6-0.08-0.86-0.23c-0.26-0.16-0.47-0.36-0.62-0.62c-0.16-0.26-0.23-0.55-0.23-0.86
		c0-0.32,0.08-0.61,0.23-0.87c0.15-0.26,0.36-0.47,0.62-0.62c0.26-0.16,0.55-0.23,0.86-0.23c0.32,0,0.61,0.08,0.87,0.23
		c0.26,0.16,0.47,0.36,0.62,0.62c0.15,0.26,0.23,0.55,0.23,0.87c0,0.32-0.08,0.6-0.23,0.86c-0.15,0.26-0.36,0.47-0.62,0.62
		C191.43,276.92,191.14,277,190.83,277z"/>
	<path d="M197.98,278.47v-8h2.7c0.62,0,1.14,0.11,1.54,0.32c0.4,0.21,0.7,0.5,0.89,0.87c0.19,0.37,0.29,0.79,0.29,1.26
		s-0.1,0.89-0.29,1.25c-0.19,0.37-0.49,0.65-0.89,0.86s-0.91,0.31-1.53,0.31h-2.19v-0.88h2.16c0.43,0,0.77-0.06,1.03-0.19
		s0.45-0.3,0.57-0.53s0.18-0.51,0.18-0.83s-0.06-0.6-0.18-0.84c-0.12-0.24-0.31-0.43-0.57-0.56c-0.26-0.13-0.61-0.2-1.04-0.2h-1.7
		v7.14H197.98z M201.75,274.87l1.97,3.59h-1.13l-1.94-3.59H201.75z"/>
	<path d="M205.02,278.47v-8h2.8c0.56,0,1.02,0.1,1.38,0.29c0.36,0.19,0.63,0.45,0.81,0.77c0.18,0.32,0.27,0.68,0.27,1.07
		c0,0.34-0.06,0.63-0.18,0.85s-0.28,0.4-0.48,0.53c-0.2,0.13-0.41,0.23-0.64,0.29v0.08c0.24,0.02,0.49,0.1,0.74,0.26
		c0.25,0.16,0.45,0.38,0.62,0.67c0.17,0.29,0.25,0.65,0.25,1.07c0,0.4-0.09,0.76-0.27,1.08c-0.18,0.32-0.47,0.57-0.86,0.76
		c-0.39,0.19-0.9,0.28-1.54,0.28H205.02z M205.98,273.98h1.8c0.29,0,0.56-0.06,0.79-0.17s0.42-0.28,0.56-0.48s0.21-0.45,0.21-0.73
		c0-0.35-0.12-0.65-0.37-0.9s-0.63-0.37-1.16-0.37h-1.83V273.98z M205.98,277.61h1.92c0.63,0,1.08-0.12,1.35-0.37s0.4-0.54,0.4-0.9
		c0-0.27-0.07-0.52-0.21-0.75s-0.33-0.42-0.59-0.55c-0.26-0.14-0.56-0.21-0.91-0.21h-1.97V277.61z"/>
	<path d="M213.14,270.47v8h-0.97v-8H213.14z"/>
	<path d="M220.3,277c-0.31,0-0.6-0.08-0.86-0.23c-0.26-0.16-0.47-0.36-0.62-0.62c-0.16-0.26-0.23-0.55-0.23-0.86
		c0-0.32,0.08-0.61,0.23-0.87c0.15-0.26,0.36-0.47,0.62-0.62c0.26-0.16,0.55-0.23,0.86-0.23c0.32,0,0.61,0.08,0.87,0.23
		c0.26,0.16,0.47,0.36,0.62,0.62c0.15,0.26,0.23,0.55,0.23,0.87c0,0.32-0.08,0.6-0.23,0.86c-0.15,0.26-0.36,0.47-0.62,0.62
		C220.91,276.92,220.62,277,220.3,277z"/>
	<path d="M229.93,278.47h-2.47v-8h2.58c0.78,0,1.44,0.16,1.99,0.48c0.55,0.32,0.98,0.78,1.27,1.37c0.29,0.59,0.44,1.31,0.44,2.13
		c0,0.83-0.15,1.55-0.45,2.15c-0.3,0.6-0.73,1.06-1.3,1.38S230.74,278.47,229.93,278.47z M228.43,277.61h1.44
		c0.66,0,1.21-0.13,1.65-0.38c0.44-0.26,0.76-0.62,0.97-1.09c0.21-0.47,0.32-1.03,0.32-1.68c0-0.65-0.11-1.2-0.32-1.67
		c-0.21-0.47-0.53-0.83-0.95-1.08c-0.42-0.25-0.94-0.38-1.57-0.38h-1.55V277.61z"/>
	<path d="M241.71,270.47v8h-0.94l-4.36-6.28h-0.08v6.28h-0.97v-8h0.94l4.38,6.3h0.08v-6.3H241.71z"/>
	<path d="M248.02,272.47c-0.05-0.4-0.24-0.7-0.57-0.92c-0.33-0.22-0.74-0.33-1.23-0.33c-0.35,0-0.66,0.06-0.93,0.17
		c-0.26,0.12-0.47,0.27-0.62,0.47c-0.15,0.2-0.22,0.43-0.22,0.68c0,0.21,0.05,0.4,0.15,0.55c0.1,0.15,0.23,0.28,0.4,0.38
		s0.33,0.18,0.51,0.25s0.34,0.12,0.49,0.15l0.81,0.22c0.21,0.05,0.44,0.13,0.7,0.23s0.5,0.23,0.74,0.39
		c0.24,0.17,0.43,0.38,0.58,0.63c0.15,0.26,0.23,0.57,0.23,0.95c0,0.43-0.11,0.82-0.34,1.17c-0.23,0.35-0.55,0.63-0.98,0.83
		s-0.95,0.31-1.57,0.31c-0.57,0-1.07-0.09-1.49-0.28s-0.75-0.44-0.98-0.77c-0.24-0.33-0.37-0.71-0.4-1.15h1
		c0.03,0.3,0.13,0.55,0.31,0.75c0.18,0.2,0.4,0.34,0.68,0.44c0.27,0.09,0.57,0.14,0.89,0.14c0.37,0,0.7-0.06,1-0.18
		s0.53-0.29,0.7-0.51c0.17-0.22,0.26-0.47,0.26-0.76c0-0.27-0.07-0.48-0.22-0.65c-0.15-0.17-0.34-0.3-0.59-0.41
		c-0.24-0.1-0.5-0.2-0.79-0.27l-0.98-0.28c-0.62-0.18-1.12-0.44-1.48-0.77c-0.36-0.33-0.55-0.77-0.55-1.31
		c0-0.45,0.12-0.84,0.37-1.17c0.24-0.33,0.57-0.6,0.98-0.78c0.41-0.19,0.87-0.28,1.39-0.28c0.52,0,0.97,0.09,1.38,0.28
		c0.4,0.18,0.72,0.43,0.96,0.75c0.24,0.32,0.36,0.68,0.37,1.08H248.02z"/>
	<path d="M255.88,277c-0.31,0-0.6-0.08-0.86-0.23c-0.26-0.16-0.47-0.36-0.62-0.62c-0.16-0.26-0.23-0.55-0.23-0.86
		c0-0.32,0.08-0.61,0.23-0.87c0.15-0.26,0.36-0.47,0.62-0.62c0.26-0.16,0.55-0.23,0.86-0.23c0.32,0,0.61,0.08,0.87,0.23
		c0.26,0.16,0.47,0.36,0.62,0.62c0.15,0.26,0.23,0.55,0.23,0.87c0,0.32-0.08,0.6-0.23,0.86c-0.15,0.26-0.36,0.47-0.62,0.62
		C256.49,276.92,256.2,277,255.88,277z"/>
	<path d="M264.5,278.47l-2.19-8h0.98l1.67,6.52h0.08l1.7-6.52h1.09l1.7,6.52h0.08l1.67-6.52h0.98l-2.19,8h-1l-1.77-6.38h-0.06
		l-1.77,6.38H264.5z"/>
	<path d="M273.19,278.47h-1.02l2.94-8h1l2.94,8h-1.02l-2.39-6.74h-0.06L273.19,278.47z M273.56,275.34h4.09v0.86h-4.09V275.34z"/>
	<path d="M280.62,278.47h-1.02l2.94-8h1l2.94,8h-1.02l-2.39-6.74h-0.06L280.62,278.47z M281,275.34h4.09v0.86H281V275.34z"/>
	<path d="M287.73,278.47v-8h2.7c0.63,0,1.14,0.11,1.54,0.34c0.4,0.23,0.7,0.53,0.89,0.91c0.19,0.38,0.29,0.81,0.29,1.28
		s-0.1,0.9-0.29,1.29s-0.49,0.69-0.89,0.92c-0.4,0.23-0.91,0.34-1.53,0.34h-1.94v-0.86h1.91c0.43,0,0.77-0.07,1.04-0.22
		s0.45-0.35,0.57-0.6s0.18-0.54,0.18-0.86s-0.06-0.61-0.18-0.86c-0.12-0.25-0.31-0.45-0.57-0.6c-0.26-0.15-0.61-0.22-1.05-0.22h-1.7
		v7.14H287.73z"/>
</g>
<g>
	<path d="M131.04,32.68l7.89,12.05l-1.41,0.92l-12.76-5.16l-0.12,0.08l6.2,9.46l-1.46,0.96l-7.89-12.05l1.41-0.92l12.8,5.17
		l0.12-0.08l-6.21-9.48L131.04,32.68z"/>
	<path d="M145.61,41.25c-0.91,0.5-1.81,0.73-2.69,0.69c-0.88-0.04-1.7-0.33-2.46-0.87c-0.76-0.53-1.4-1.29-1.93-2.26
		s-0.82-1.92-0.87-2.86c-0.05-0.94,0.13-1.79,0.54-2.56s1.04-1.39,1.9-1.85c0.49-0.27,1.03-0.46,1.6-0.55
		c0.57-0.1,1.15-0.07,1.75,0.08c0.6,0.15,1.18,0.47,1.74,0.94c0.57,0.48,1.09,1.16,1.57,2.04l0.34,0.62l-7.3,4l-0.69-1.26l5.82-3.19
		c-0.29-0.53-0.66-0.95-1.1-1.26c-0.44-0.3-0.92-0.47-1.44-0.5c-0.52-0.03-1.05,0.1-1.57,0.39c-0.58,0.32-1,0.73-1.27,1.25
		c-0.27,0.52-0.39,1.07-0.36,1.65c0.02,0.58,0.18,1.13,0.47,1.65l0.46,0.84c0.39,0.71,0.85,1.25,1.37,1.61
		c0.52,0.36,1.07,0.55,1.66,0.56s1.17-0.14,1.76-0.46c0.38-0.21,0.7-0.45,0.95-0.73c0.25-0.28,0.43-0.59,0.53-0.93
		s0.13-0.71,0.07-1.11l1.62-0.38c0.11,0.56,0.09,1.11-0.06,1.66c-0.15,0.55-0.43,1.07-0.84,1.55
		C146.77,40.49,146.25,40.9,145.61,41.25z"/>
	<path d="M151.16,26.12l0.61,1.27l-5.05,2.41l-0.61-1.27L151.16,26.12z M146.46,25.49l1.5-0.71l4.43,9.29
		c0.2,0.42,0.42,0.71,0.64,0.86c0.23,0.15,0.45,0.21,0.68,0.19c0.23-0.02,0.46-0.09,0.67-0.19c0.17-0.08,0.3-0.15,0.39-0.22
		c0.1-0.07,0.17-0.13,0.23-0.17l0.95,1.2c-0.08,0.09-0.21,0.19-0.37,0.32s-0.38,0.26-0.66,0.39c-0.42,0.2-0.88,0.31-1.37,0.32
		s-0.96-0.11-1.4-0.35c-0.44-0.25-0.8-0.65-1.07-1.22L146.46,25.49z"/>
	<path d="M160.1,33.95l-7.02-8.84l1.62-0.64l5.2,6.84l0.1-0.04l-0.88-8.54l1.65-0.65l5.14,6.83l0.1-0.04l-0.85-8.52l1.62-0.64
		l0.9,11.26l-1.52,0.6l-5.24-6.85l-0.16,0.06l0.84,8.59L160.1,33.95z"/>
	<path d="M176.53,28.3c-0.93,0.28-1.82,0.31-2.66,0.08c-0.84-0.23-1.57-0.69-2.21-1.37c-0.63-0.68-1.11-1.55-1.44-2.62
		c-0.33-1.08-0.41-2.08-0.26-3c0.15-0.92,0.51-1.71,1.08-2.37c0.57-0.66,1.32-1.13,2.25-1.41s1.82-0.31,2.66-0.08
		c0.84,0.23,1.57,0.69,2.21,1.38c0.64,0.68,1.12,1.57,1.44,2.64c0.32,1.07,0.41,2.06,0.26,2.98c-0.15,0.92-0.51,1.7-1.08,2.36
		C178.21,27.55,177.46,28.02,176.53,28.3z M176.1,26.88c0.71-0.21,1.24-0.57,1.59-1.08c0.35-0.5,0.54-1.08,0.58-1.74
		c0.04-0.66-0.04-1.33-0.25-2.02c-0.21-0.69-0.51-1.3-0.91-1.83c-0.4-0.53-0.89-0.91-1.45-1.14s-1.21-0.24-1.92-0.02
		c-0.71,0.21-1.24,0.57-1.58,1.08c-0.35,0.51-0.54,1.09-0.58,1.75c-0.04,0.66,0.05,1.34,0.25,2.03s0.51,1.3,0.91,1.83
		c0.4,0.53,0.88,0.9,1.45,1.13C174.75,27.09,175.39,27.09,176.1,26.88z"/>
	<path d="M183.41,26.14l-2.53-10.5l1.56-0.38l0.38,1.59l0.11-0.03c0.07-0.57,0.31-1.07,0.73-1.51c0.42-0.44,0.95-0.74,1.58-0.89
		c0.12-0.03,0.27-0.06,0.45-0.1c0.18-0.04,0.31-0.06,0.41-0.08l0.39,1.64c-0.06,0-0.19,0.01-0.39,0.03c-0.2,0.02-0.41,0.05-0.62,0.1
		c-0.51,0.12-0.94,0.34-1.29,0.65c-0.35,0.31-0.59,0.67-0.73,1.1s-0.15,0.88-0.04,1.35l1.6,6.65L183.41,26.14z"/>
	<path d="M190.4,24.49l-2.6-14.17l1.63-0.3l2.6,14.17L190.4,24.49z M191.21,20.34l-0.4-2.01l0.33-0.06l3.78-5.58l2.02-0.37
		l-4.03,5.92l-0.14,0.03L191.21,20.34z M197.15,23.25l-5.12-4.49l0.95-1.35l6.24,5.46L197.15,23.25z"/>
	<path d="M205.2,15.13l0.2,1.54l-6.25,0.8l-0.2-1.54L205.2,15.13z"/>
	<path d="M212.01,21.77c-0.68,0.05-1.31-0.04-1.89-0.26c-0.57-0.22-1.04-0.57-1.4-1.04c-0.36-0.47-0.56-1.06-0.61-1.76
		c-0.04-0.62,0.05-1.13,0.26-1.53s0.52-0.73,0.91-0.97c0.39-0.25,0.83-0.44,1.32-0.58c0.49-0.14,0.98-0.26,1.47-0.36
		c0.65-0.13,1.18-0.23,1.58-0.3s0.7-0.17,0.88-0.29c0.18-0.12,0.26-0.31,0.25-0.58l0-0.06c-0.05-0.69-0.27-1.22-0.67-1.58
		s-0.98-0.51-1.75-0.46c-0.79,0.05-1.4,0.27-1.82,0.64c-0.43,0.38-0.72,0.77-0.87,1.17l-1.61-0.46c0.24-0.67,0.58-1.21,1.02-1.61
		c0.45-0.4,0.94-0.69,1.49-0.88c0.55-0.18,1.09-0.3,1.64-0.33c0.35-0.02,0.75-0.01,1.2,0.04s0.91,0.19,1.35,0.41
		c0.44,0.22,0.82,0.58,1.13,1.07c0.31,0.49,0.5,1.16,0.56,2.02l0.48,7.1l-1.66,0.11l-0.1-1.46l-0.08,0.01
		c-0.1,0.24-0.27,0.5-0.51,0.79s-0.58,0.54-1,0.75C213.16,21.6,212.63,21.73,212.01,21.77z M212.16,20.27
		c0.66-0.04,1.2-0.21,1.63-0.5c0.43-0.29,0.75-0.64,0.96-1.07c0.2-0.42,0.29-0.86,0.26-1.31l-0.1-1.52
		c-0.06,0.09-0.21,0.18-0.44,0.26c-0.23,0.08-0.5,0.16-0.8,0.23c-0.3,0.07-0.6,0.13-0.88,0.19c-0.29,0.05-0.52,0.1-0.69,0.13
		c-0.43,0.08-0.82,0.2-1.19,0.35c-0.36,0.15-0.65,0.35-0.86,0.61c-0.21,0.26-0.3,0.6-0.27,1.02c0.04,0.58,0.28,0.99,0.73,1.26
		S211.5,20.31,212.16,20.27z"/>
	<path d="M227.3,12.64l-1.48,0.45c-0.1-0.25-0.24-0.49-0.42-0.72c-0.18-0.23-0.43-0.43-0.74-0.58s-0.71-0.22-1.19-0.21
		c-0.66,0.01-1.21,0.17-1.64,0.48s-0.65,0.7-0.64,1.16c0.01,0.41,0.16,0.74,0.47,0.97c0.3,0.23,0.78,0.43,1.42,0.57l1.61,0.37
		c0.97,0.22,1.69,0.56,2.18,1.04c0.48,0.47,0.73,1.09,0.74,1.84c0.01,0.62-0.16,1.17-0.5,1.67s-0.83,0.89-1.46,1.18
		c-0.63,0.29-1.36,0.44-2.2,0.46c-1.1,0.02-2.02-0.21-2.75-0.67s-1.2-1.16-1.41-2.07l1.57-0.42c0.16,0.58,0.45,1.01,0.88,1.29
		c0.42,0.28,0.98,0.42,1.66,0.41c0.77-0.01,1.39-0.19,1.84-0.53s0.67-0.74,0.67-1.2c-0.01-0.38-0.14-0.69-0.41-0.94
		c-0.27-0.25-0.67-0.44-1.22-0.55l-1.81-0.39c-0.99-0.22-1.72-0.57-2.19-1.06s-0.71-1.1-0.72-1.85c-0.01-0.61,0.15-1.15,0.49-1.63
		c0.34-0.47,0.8-0.85,1.4-1.13c0.59-0.28,1.27-0.42,2.03-0.43c1.07-0.02,1.91,0.2,2.53,0.66C226.59,11.26,227.03,11.87,227.3,12.64z
		"/>
	<path d="M236.44,14.54l-0.08,1.54l-6.29-0.33l0.08-1.54L236.44,14.54z"/>
	<path d="M241.93,22.29c-0.68-0.08-1.28-0.28-1.81-0.6c-0.52-0.32-0.92-0.75-1.19-1.27c-0.27-0.53-0.37-1.14-0.29-1.84
		c0.07-0.61,0.25-1.1,0.53-1.46c0.29-0.36,0.64-0.62,1.07-0.79c0.43-0.17,0.9-0.29,1.4-0.34c0.5-0.05,1.01-0.08,1.51-0.09
		c0.66-0.01,1.2-0.01,1.61-0.01c0.41,0,0.72-0.04,0.92-0.13c0.2-0.09,0.32-0.26,0.35-0.53l0.01-0.06c0.08-0.69-0.05-1.25-0.38-1.67
		s-0.88-0.68-1.64-0.77c-0.79-0.09-1.42,0.01-1.91,0.31c-0.49,0.29-0.84,0.63-1.07,1l-1.5-0.74c0.35-0.62,0.79-1.09,1.29-1.4
		s1.05-0.51,1.62-0.59c0.57-0.08,1.13-0.09,1.67-0.03c0.34,0.04,0.74,0.12,1.18,0.26c0.44,0.13,0.86,0.35,1.25,0.65
		c0.39,0.3,0.7,0.72,0.92,1.26c0.22,0.54,0.28,1.24,0.19,2.09l-0.8,7.07l-1.65-0.19l0.17-1.45l-0.08-0.01
		c-0.14,0.22-0.35,0.45-0.64,0.68c-0.29,0.24-0.66,0.42-1.12,0.56C243.1,22.33,242.56,22.36,241.93,22.29z M242.35,20.84
		c0.65,0.07,1.22,0.01,1.7-0.2c0.48-0.2,0.86-0.5,1.13-0.88c0.28-0.38,0.44-0.79,0.49-1.24l0.17-1.51
		c-0.08,0.08-0.24,0.13-0.48,0.18c-0.24,0.04-0.52,0.07-0.83,0.08c-0.31,0.01-0.61,0.02-0.9,0.03c-0.29,0-0.53,0-0.71,0.01
		c-0.43,0.01-0.84,0.05-1.23,0.13c-0.38,0.08-0.7,0.23-0.96,0.45s-0.4,0.54-0.45,0.96c-0.06,0.57,0.1,1.03,0.49,1.37
		S241.7,20.77,242.35,20.84z"/>
	<path d="M256.95,17.26l-0.27,1.52l-6.21-1.09l0.27-1.52L256.95,17.26z"/>
	<path d="M268.87,16.03c0.09-0.71-0.12-1.33-0.6-1.86c-0.49-0.53-1.16-0.89-2.01-1.1c-0.62-0.15-1.19-0.18-1.7-0.09
		s-0.94,0.28-1.28,0.56c-0.34,0.29-0.57,0.66-0.68,1.1c-0.09,0.37-0.08,0.72,0.04,1.03c0.12,0.31,0.29,0.59,0.53,0.83
		s0.5,0.46,0.78,0.65c0.28,0.19,0.55,0.35,0.79,0.48l1.33,0.73c0.34,0.18,0.72,0.42,1.12,0.69c0.41,0.28,0.78,0.61,1.12,1
		s0.59,0.84,0.75,1.36c0.16,0.52,0.16,1.1,0,1.76c-0.18,0.76-0.55,1.39-1.09,1.91c-0.54,0.51-1.23,0.86-2.08,1.04
		c-0.84,0.18-1.8,0.13-2.87-0.13c-1-0.24-1.83-0.62-2.48-1.12c-0.65-0.5-1.12-1.09-1.39-1.77s-0.35-1.41-0.22-2.19l1.75,0.43
		c-0.08,0.54-0.01,1.02,0.22,1.44c0.23,0.42,0.56,0.77,1,1.06s0.94,0.49,1.49,0.63c0.65,0.16,1.25,0.19,1.82,0.11
		c0.57-0.09,1.05-0.28,1.44-0.59c0.39-0.31,0.65-0.72,0.78-1.23c0.11-0.46,0.08-0.87-0.11-1.23c-0.19-0.36-0.47-0.67-0.85-0.96
		c-0.38-0.29-0.8-0.56-1.26-0.81l-1.6-0.91c-1.02-0.58-1.77-1.24-2.27-1.98c-0.5-0.74-0.63-1.58-0.4-2.52
		c0.19-0.78,0.57-1.42,1.14-1.9c0.57-0.48,1.25-0.8,2.05-0.95s1.65-0.12,2.54,0.1c0.9,0.22,1.66,0.58,2.29,1.07s1.07,1.07,1.35,1.72
		s0.34,1.34,0.19,2.05L268.87,16.03z"/>
	<path d="M274.66,29.25c-0.99-0.32-1.77-0.81-2.35-1.48s-0.93-1.46-1.06-2.38c-0.13-0.92-0.03-1.9,0.31-2.96
		c0.34-1.05,0.83-1.92,1.48-2.6c0.65-0.68,1.39-1.14,2.23-1.37s1.72-0.2,2.65,0.1c0.54,0.17,1.04,0.43,1.5,0.78
		c0.46,0.35,0.85,0.79,1.15,1.33s0.47,1.17,0.51,1.91c0.04,0.74-0.09,1.59-0.4,2.55l-0.22,0.67l-7.93-2.55l0.44-1.37l6.32,2.03
		c0.19-0.58,0.24-1.13,0.15-1.66c-0.08-0.53-0.29-0.99-0.63-1.39s-0.79-0.69-1.36-0.87c-0.63-0.2-1.22-0.22-1.78-0.06
		c-0.56,0.16-1.04,0.45-1.44,0.87c-0.4,0.42-0.7,0.91-0.88,1.48l-0.29,0.91c-0.25,0.78-0.33,1.48-0.23,2.1
		c0.1,0.62,0.34,1.15,0.73,1.59c0.39,0.43,0.91,0.75,1.55,0.96c0.42,0.13,0.81,0.2,1.19,0.19s0.72-0.09,1.05-0.25
		c0.32-0.16,0.61-0.4,0.86-0.71l1.39,0.92c-0.33,0.47-0.74,0.83-1.25,1.1c-0.5,0.27-1.07,0.42-1.7,0.46
		C276.02,29.57,275.36,29.48,274.66,29.25z"/>
	<path d="M281.18,31.26l3.89-10.08l1.5,0.58l-0.59,1.52l0.1,0.04c0.38-0.43,0.86-0.7,1.47-0.83s1.2-0.07,1.81,0.16
		c0.11,0.04,0.26,0.1,0.42,0.17s0.29,0.13,0.38,0.17l-0.61,1.58c-0.05-0.03-0.16-0.1-0.33-0.2c-0.17-0.1-0.37-0.19-0.57-0.27
		c-0.49-0.19-0.97-0.26-1.43-0.2c-0.46,0.06-0.87,0.22-1.23,0.49s-0.63,0.63-0.8,1.09l-2.46,6.38L281.18,31.26z"/>
	<path d="M300.69,27.82l-8.1,8.19l-1.54-0.7l0.82-11.49l1.64,0.74l-0.84,9.07l0.1,0.05l6.27-6.61L300.69,27.82z"/>
	<path d="M298.01,38.62l4.92-9.62l1.48,0.76l-4.92,9.62L298.01,38.62z M304.5,27.78c-0.29-0.15-0.49-0.37-0.59-0.67
		s-0.09-0.59,0.05-0.87c0.14-0.28,0.36-0.46,0.67-0.55s0.6-0.06,0.89,0.08s0.48,0.37,0.59,0.67s0.09,0.59-0.05,0.87
		c-0.14,0.28-0.36,0.46-0.67,0.55C305.09,27.96,304.79,27.93,304.5,27.78z"/>
	<path d="M305.77,43.06c-0.88-0.5-1.52-1.14-1.91-1.92c-0.4-0.78-0.56-1.63-0.48-2.55c0.08-0.92,0.38-1.85,0.92-2.79
		c0.54-0.95,1.2-1.69,1.97-2.22c0.77-0.53,1.59-0.82,2.46-0.87c0.87-0.05,1.73,0.17,2.57,0.65c0.66,0.38,1.18,0.84,1.57,1.39
		c0.39,0.55,0.63,1.14,0.71,1.77c0.09,0.63,0,1.27-0.25,1.9l-1.44-0.82c0.13-0.49,0.11-1.01-0.08-1.56c-0.19-0.55-0.6-1-1.23-1.37
		c-0.56-0.32-1.14-0.46-1.72-0.41c-0.59,0.05-1.15,0.27-1.69,0.67c-0.54,0.39-1.01,0.94-1.41,1.65c-0.41,0.72-0.66,1.42-0.74,2.09
		c-0.08,0.67,0.01,1.27,0.26,1.81c0.25,0.54,0.66,0.97,1.23,1.3c0.37,0.21,0.75,0.34,1.13,0.39c0.38,0.04,0.75,0,1.1-0.12
		c0.35-0.12,0.67-0.33,0.95-0.62l1.44,0.82c-0.4,0.51-0.88,0.89-1.46,1.15c-0.57,0.26-1.19,0.37-1.86,0.33
		C307.14,43.67,306.46,43.46,305.77,43.06z"/>
	<path d="M315.06,48.83c-0.87-0.58-1.49-1.27-1.86-2.07c-0.37-0.8-0.49-1.66-0.37-2.58c0.12-0.92,0.49-1.84,1.1-2.76
		c0.61-0.92,1.32-1.62,2.13-2.1c0.81-0.48,1.64-0.72,2.52-0.71c0.87,0.01,1.71,0.28,2.52,0.82c0.47,0.31,0.88,0.7,1.23,1.16
		s0.6,0.99,0.74,1.59c0.14,0.6,0.13,1.26-0.03,1.98c-0.16,0.72-0.52,1.5-1.08,2.34l-0.39,0.59l-6.93-4.61l0.79-1.19l5.53,3.68
		c0.34-0.51,0.54-1.03,0.6-1.56s-0.01-1.04-0.23-1.51c-0.22-0.48-0.57-0.88-1.07-1.21c-0.55-0.37-1.12-0.55-1.7-0.54
		c-0.58,0-1.12,0.15-1.63,0.44c-0.5,0.29-0.92,0.68-1.25,1.18l-0.53,0.8c-0.45,0.68-0.72,1.33-0.79,1.96
		c-0.08,0.63,0.01,1.2,0.27,1.73c0.26,0.52,0.67,0.97,1.23,1.34c0.36,0.24,0.73,0.41,1.09,0.5c0.36,0.09,0.72,0.11,1.08,0.04
		c0.35-0.07,0.69-0.22,1.02-0.45l1.09,1.26c-0.44,0.36-0.94,0.6-1.5,0.72c-0.56,0.12-1.15,0.11-1.76-0.02
		C316.28,49.5,315.67,49.23,315.06,48.83z"/>
</g>
<g>
	<path d="M107.92,299.12l-10.63,9.71l-1.14-1.25l3.06-13.42l-0.09-0.1l-8.35,7.63l-1.18-1.29l10.63-9.71l1.14,1.25l-3.06,13.46
		l0.09,0.1l8.37-7.65L107.92,299.12z"/>
	<path d="M103.24,314.85c-0.76-0.71-1.26-1.49-1.49-2.34c-0.23-0.85-0.21-1.72,0.06-2.6s0.79-1.73,1.54-2.54s1.57-1.38,2.45-1.72
		c0.87-0.34,1.74-0.43,2.6-0.28c0.86,0.15,1.64,0.56,2.35,1.23c0.41,0.38,0.75,0.83,1.02,1.34c0.27,0.51,0.43,1.08,0.47,1.69
		c0.04,0.61-0.08,1.26-0.35,1.95c-0.28,0.69-0.76,1.4-1.45,2.13l-0.48,0.51l-6.08-5.69l0.98-1.05l4.85,4.54
		c0.42-0.45,0.7-0.92,0.85-1.44c0.15-0.51,0.16-1.02,0.02-1.53s-0.42-0.96-0.86-1.37c-0.48-0.45-1.01-0.72-1.58-0.81
		c-0.57-0.09-1.13-0.03-1.68,0.17c-0.54,0.2-1.02,0.52-1.43,0.96l-0.65,0.7c-0.56,0.6-0.93,1.2-1.1,1.8s-0.18,1.19-0.01,1.75
		c0.17,0.56,0.5,1.07,0.99,1.53c0.32,0.3,0.65,0.52,0.99,0.67c0.34,0.15,0.69,0.22,1.05,0.22c0.36-0.01,0.72-0.1,1.08-0.28
		l0.86,1.42c-0.5,0.28-1.03,0.44-1.6,0.46c-0.57,0.03-1.15-0.08-1.73-0.31C104.34,315.72,103.78,315.35,103.24,314.85z"/>
	<path d="M118.13,309.89l1.27,1.07l-6.61,7.89c-0.3,0.36-0.47,0.67-0.52,0.94c-0.04,0.27-0.01,0.5,0.11,0.7
		c0.12,0.2,0.27,0.38,0.46,0.53c0.14,0.12,0.26,0.21,0.37,0.26c0.1,0.06,0.19,0.11,0.25,0.14l-0.7,1.36
		c-0.11-0.04-0.26-0.11-0.44-0.2c-0.18-0.09-0.39-0.24-0.63-0.44c-0.36-0.3-0.65-0.67-0.86-1.12c-0.21-0.44-0.3-0.92-0.26-1.42
		c0.04-0.5,0.26-1,0.67-1.48L118.13,309.89z M119.51,314.43l-0.9,1.08l-4.29-3.59l0.9-1.08L119.51,314.43z"/>
	<path d="M116.92,326.17l3.69-10.67l1.41,1.03l-2.97,8.06l0.09,0.07l6.73-5.34l1.43,1.04l-3,8.01l0.09,0.07l6.73-5.3l1.41,1.03
		l-9.01,6.8L122.2,330l2.97-8.1l-0.14-0.1l-6.79,5.33L116.92,326.17z"/>
	<path d="M131.98,336.67c-0.83-0.51-1.44-1.15-1.83-1.93s-0.53-1.63-0.45-2.56c0.08-0.93,0.42-1.87,1-2.82
		c0.59-0.96,1.27-1.69,2.06-2.19c0.79-0.5,1.61-0.76,2.48-0.78c0.87-0.01,1.72,0.23,2.55,0.74c0.83,0.51,1.44,1.15,1.83,1.93
		s0.53,1.63,0.45,2.56c-0.09,0.93-0.42,1.88-1.01,2.84c-0.58,0.95-1.26,1.68-2.05,2.18s-1.61,0.75-2.48,0.77
		C133.66,337.43,132.81,337.18,131.98,336.67z M132.76,335.4c0.63,0.39,1.25,0.54,1.86,0.47s1.17-0.32,1.69-0.73
		c0.52-0.41,0.97-0.92,1.34-1.54c0.38-0.62,0.63-1.25,0.76-1.9c0.13-0.65,0.09-1.27-0.12-1.84s-0.63-1.06-1.26-1.44
		c-0.63-0.39-1.25-0.54-1.86-0.46s-1.17,0.33-1.69,0.74c-0.52,0.41-0.97,0.93-1.35,1.54c-0.38,0.62-0.63,1.25-0.75,1.9
		c-0.13,0.65-0.08,1.26,0.13,1.83S132.12,335.02,132.76,335.4z"/>
	<path d="M138.94,340.46l5.09-9.53l1.41,0.76l-0.77,1.44l0.1,0.05c0.43-0.38,0.94-0.59,1.56-0.64c0.61-0.05,1.2,0.08,1.77,0.38
		c0.11,0.06,0.24,0.13,0.4,0.22s0.28,0.16,0.36,0.21l-0.79,1.49c-0.04-0.04-0.15-0.12-0.31-0.24c-0.16-0.12-0.34-0.23-0.53-0.34
		c-0.46-0.25-0.93-0.37-1.39-0.37c-0.46,0-0.89,0.11-1.28,0.34c-0.39,0.23-0.7,0.55-0.93,0.98l-3.22,6.03L138.94,340.46z"/>
	<path d="M145.87,344.11l6.09-13.05l1.5,0.7l-6.09,13.05L145.87,344.11z M148.94,341.2l0.84-1.87l0.31,0.14l6.32-2.36l1.86,0.87
		l-6.72,2.48l-0.13-0.06L148.94,341.2z M152.09,347.01l-1.56-6.63l1.56-0.55l1.92,8.07L152.09,347.01z"/>
	<path d="M163.6,344.26l-0.58,1.44l-5.85-2.35l0.58-1.44L163.6,344.26z"/>
	<path d="M175.34,344.22c0.14-0.7-0.01-1.34-0.46-1.9s-1.08-0.98-1.91-1.25c-0.61-0.2-1.17-0.28-1.68-0.23
		c-0.52,0.05-0.96,0.2-1.32,0.46c-0.36,0.26-0.62,0.61-0.76,1.05c-0.12,0.37-0.13,0.71-0.04,1.03s0.25,0.61,0.47,0.87
		c0.22,0.26,0.46,0.5,0.73,0.71s0.52,0.39,0.75,0.54l1.27,0.83c0.33,0.21,0.68,0.47,1.07,0.78c0.38,0.31,0.73,0.67,1.04,1.09
		c0.31,0.42,0.52,0.89,0.64,1.41c0.12,0.53,0.07,1.11-0.14,1.75c-0.24,0.74-0.66,1.34-1.24,1.81c-0.58,0.47-1.3,0.76-2.15,0.87
		c-0.85,0.11-1.81-0.01-2.86-0.35c-0.98-0.32-1.78-0.76-2.39-1.31c-0.61-0.55-1.03-1.18-1.25-1.88c-0.22-0.7-0.24-1.43-0.04-2.2
		l1.71,0.56c-0.13,0.53-0.09,1.01,0.1,1.45s0.5,0.81,0.92,1.13c0.42,0.32,0.9,0.56,1.44,0.74c0.63,0.21,1.23,0.29,1.81,0.25
		c0.57-0.04,1.06-0.2,1.48-0.48c0.42-0.28,0.71-0.66,0.87-1.16c0.15-0.45,0.14-0.87-0.02-1.23c-0.16-0.37-0.42-0.71-0.77-1.02
		c-0.36-0.31-0.75-0.62-1.19-0.91l-1.53-1.03c-0.97-0.66-1.67-1.38-2.11-2.15c-0.44-0.77-0.5-1.62-0.2-2.55
		c0.25-0.77,0.68-1.37,1.28-1.8s1.31-0.7,2.12-0.78c0.81-0.09,1.65,0.01,2.53,0.3c0.88,0.29,1.61,0.71,2.2,1.24
		c0.58,0.54,0.99,1.15,1.21,1.82c0.22,0.68,0.23,1.36,0.03,2.06L175.34,344.22z"/>
	<path d="M181.25,357.26c-1.01-0.25-1.82-0.69-2.44-1.32c-0.62-0.63-1.02-1.4-1.21-2.3c-0.19-0.91-0.15-1.9,0.12-2.97
		c0.27-1.07,0.7-1.97,1.3-2.69s1.31-1.23,2.13-1.51c0.82-0.29,1.71-0.31,2.65-0.07c0.55,0.14,1.06,0.36,1.55,0.68
		c0.49,0.32,0.9,0.73,1.23,1.25c0.33,0.52,0.55,1.14,0.64,1.87c0.09,0.73,0.02,1.59-0.23,2.57l-0.17,0.68l-8.08-2.02l0.35-1.39
		l6.44,1.61c0.15-0.59,0.16-1.15,0.04-1.67s-0.36-0.97-0.72-1.35c-0.36-0.38-0.84-0.64-1.42-0.78c-0.64-0.16-1.23-0.14-1.78,0.06
		c-0.55,0.2-1.01,0.52-1.38,0.96s-0.64,0.95-0.78,1.53l-0.23,0.93c-0.2,0.79-0.23,1.5-0.09,2.11c0.14,0.62,0.42,1.13,0.84,1.54
		c0.42,0.41,0.96,0.69,1.61,0.85c0.42,0.11,0.82,0.14,1.2,0.11c0.37-0.03,0.72-0.14,1.03-0.32s0.58-0.44,0.81-0.77l1.45,0.83
		c-0.3,0.49-0.69,0.88-1.17,1.18c-0.49,0.3-1.04,0.49-1.66,0.57C182.62,357.49,181.96,357.44,181.25,357.26z"/>
	<path d="M192.96,359.75c-1-0.18-1.81-0.57-2.45-1.17c-0.64-0.6-1.07-1.35-1.31-2.24s-0.26-1.87-0.07-2.94
		c0.19-1.08,0.56-2,1.11-2.75c0.55-0.76,1.22-1.3,2.02-1.64s1.68-0.42,2.64-0.25c0.75,0.13,1.4,0.39,1.95,0.78
		c0.55,0.38,0.97,0.86,1.27,1.43c0.29,0.57,0.43,1.19,0.4,1.87l-1.63-0.29c-0.04-0.51-0.24-0.99-0.6-1.44
		c-0.36-0.45-0.9-0.74-1.62-0.87c-0.64-0.11-1.22-0.05-1.76,0.19c-0.54,0.24-0.99,0.64-1.36,1.19c-0.37,0.55-0.63,1.23-0.77,2.03
		c-0.15,0.82-0.15,1.56,0.01,2.22c0.15,0.66,0.44,1.2,0.85,1.62c0.42,0.42,0.95,0.69,1.59,0.81c0.42,0.08,0.82,0.07,1.2-0.01
		s0.7-0.25,0.99-0.48c0.29-0.23,0.52-0.54,0.69-0.9l1.63,0.29c-0.21,0.61-0.53,1.13-0.99,1.57s-1,0.75-1.65,0.93
		S193.75,359.89,192.96,359.75z"/>
	<path d="M207.4,357.05l0.7-6.35l1.65,0.18l-1.19,10.74l-1.65-0.18l0.2-1.82l-0.11-0.01c-0.31,0.52-0.75,0.94-1.33,1.26
		c-0.57,0.32-1.27,0.44-2.08,0.35c-0.67-0.07-1.25-0.29-1.74-0.64c-0.49-0.35-0.85-0.85-1.08-1.48s-0.3-1.4-0.2-2.32l0.76-6.82
		l1.65,0.18l-0.74,6.71c-0.09,0.78,0.06,1.43,0.45,1.95c0.39,0.52,0.93,0.81,1.61,0.89c0.41,0.04,0.84-0.01,1.29-0.18
		c0.45-0.16,0.84-0.44,1.18-0.84S207.33,357.72,207.4,357.05z"/>
	<path d="M212.1,361.86l0.59-10.79l1.6,0.09l-0.09,1.63l0.11,0.01c0.23-0.52,0.61-0.94,1.14-1.24c0.53-0.3,1.12-0.44,1.77-0.4
		c0.12,0.01,0.27,0.02,0.46,0.03c0.18,0.01,0.32,0.03,0.41,0.04l-0.09,1.69c-0.06-0.02-0.18-0.05-0.38-0.09
		c-0.2-0.04-0.41-0.07-0.63-0.08c-0.52-0.03-1,0.05-1.42,0.25c-0.42,0.2-0.76,0.48-1.02,0.85c-0.26,0.37-0.4,0.8-0.43,1.28
		l-0.37,6.83L212.1,361.86z"/>
	<path d="M220.84,349.61c-0.32-0.01-0.6-0.12-0.83-0.35c-0.23-0.22-0.34-0.49-0.33-0.8c0.01-0.31,0.13-0.57,0.36-0.79
		s0.52-0.32,0.84-0.31c0.32,0.01,0.6,0.12,0.83,0.35c0.23,0.22,0.34,0.49,0.33,0.8s-0.13,0.57-0.36,0.79
		C221.44,349.51,221.16,349.62,220.84,349.61z M219.75,362.2l0.21-10.8l1.66,0.03l-0.21,10.8L219.75,362.2z"/>
	<path d="M229.27,351.38l0.02,1.41l-5.6,0.09l-0.02-1.41L229.27,351.38z M225.26,348.86l1.66-0.03l0.17,10.29
		c0.01,0.47,0.08,0.82,0.22,1.05s0.32,0.38,0.54,0.46c0.22,0.07,0.45,0.11,0.69,0.11c0.18,0,0.33-0.02,0.45-0.04
		c0.12-0.02,0.21-0.04,0.28-0.06l0.36,1.49c-0.11,0.04-0.27,0.09-0.47,0.14c-0.2,0.05-0.46,0.07-0.77,0.08
		c-0.47,0.01-0.93-0.09-1.38-0.28c-0.45-0.19-0.83-0.5-1.13-0.9c-0.3-0.41-0.45-0.92-0.46-1.55L225.26,348.86z"/>
	<path d="M233.7,366.04c-0.28,0.02-0.53,0.01-0.76-0.01c-0.22-0.03-0.38-0.06-0.46-0.1l0.32-1.49c0.61,0.11,1.12,0.08,1.51-0.11
		c0.39-0.19,0.71-0.7,0.95-1.52l0.25-0.86l-4.73-10.56l1.8-0.12l3.56,8.38l0.11-0.01l2.39-8.79l1.81-0.1l-3.74,12.64
		c-0.17,0.56-0.39,1.03-0.67,1.42c-0.28,0.38-0.61,0.68-1,0.88C234.64,365.89,234.2,366.01,233.7,366.04z"/>
	<path d="M249.12,353.5l0.2,1.53l-6.25,0.8l-0.2-1.54L249.12,353.5z"/>
	<path d="M256.57,359.53c-0.67,0.13-1.31,0.12-1.9-0.03s-1.1-0.44-1.52-0.86c-0.42-0.42-0.69-0.98-0.82-1.67
		c-0.12-0.61-0.09-1.12,0.08-1.55s0.43-0.79,0.79-1.08c0.36-0.29,0.77-0.54,1.24-0.74c0.47-0.2,0.94-0.38,1.42-0.54
		c0.63-0.21,1.14-0.37,1.54-0.49c0.39-0.12,0.68-0.25,0.84-0.39c0.17-0.14,0.22-0.34,0.17-0.61l-0.01-0.05
		c-0.13-0.68-0.42-1.18-0.86-1.48c-0.44-0.31-1.04-0.39-1.79-0.25c-0.78,0.15-1.36,0.44-1.73,0.86c-0.38,0.42-0.62,0.85-0.72,1.27
		l-1.65-0.26c0.15-0.7,0.43-1.27,0.82-1.72c0.39-0.45,0.85-0.8,1.38-1.05c0.52-0.25,1.05-0.43,1.59-0.53c0.34-0.07,0.74-0.1,1.2-0.1
		c0.46,0,0.92,0.08,1.39,0.25c0.46,0.17,0.88,0.48,1.25,0.93c0.37,0.45,0.64,1.1,0.8,1.94l1.33,6.99l-1.63,0.31l-0.27-1.44
		l-0.08,0.02c-0.07,0.25-0.2,0.53-0.41,0.84c-0.21,0.31-0.51,0.6-0.9,0.87S257.19,359.41,256.57,359.53z M256.54,358.02
		c0.64-0.12,1.17-0.35,1.56-0.69c0.4-0.34,0.67-0.73,0.82-1.17c0.15-0.44,0.19-0.89,0.1-1.33l-0.28-1.49
		c-0.05,0.1-0.19,0.2-0.41,0.31c-0.22,0.11-0.48,0.22-0.77,0.33c-0.29,0.11-0.58,0.2-0.85,0.29c-0.28,0.09-0.5,0.16-0.67,0.22
		c-0.41,0.14-0.79,0.3-1.13,0.49c-0.34,0.19-0.6,0.43-0.78,0.71s-0.23,0.63-0.15,1.05c0.11,0.57,0.4,0.95,0.88,1.16
		C255.33,358.1,255.89,358.14,256.54,358.02z"/>
	<path d="M270.22,347.52l-1.34,0.78c-0.15-0.22-0.35-0.42-0.58-0.6c-0.23-0.18-0.52-0.31-0.86-0.38s-0.74-0.05-1.21,0.07
		c-0.64,0.17-1.13,0.45-1.48,0.85c-0.35,0.4-0.47,0.83-0.35,1.28c0.1,0.4,0.33,0.68,0.68,0.83c0.35,0.16,0.85,0.23,1.51,0.23
		l1.65-0.02c0.99-0.01,1.78,0.15,2.36,0.5s0.96,0.89,1.15,1.62c0.15,0.6,0.12,1.18-0.1,1.74s-0.6,1.06-1.14,1.49
		s-1.22,0.75-2.03,0.96c-1.07,0.28-2.01,0.27-2.83-0.01s-1.44-0.84-1.85-1.69l1.43-0.78c0.29,0.53,0.68,0.88,1.15,1.05
		c0.48,0.18,1.05,0.18,1.71,0.01c0.75-0.19,1.3-0.51,1.66-0.94s0.48-0.88,0.37-1.33c-0.09-0.36-0.3-0.64-0.62-0.82
		c-0.32-0.18-0.76-0.27-1.31-0.25l-1.85,0.04c-1.02,0.02-1.81-0.15-2.38-0.51s-0.95-0.91-1.14-1.63c-0.15-0.59-0.12-1.16,0.1-1.7
		c0.22-0.54,0.58-1.01,1.09-1.42s1.14-0.71,1.87-0.9c1.03-0.27,1.91-0.25,2.62,0.05C269.2,346.35,269.78,346.84,270.22,347.52z"/>
	<path d="M279.14,346.21l0.47,1.47l-6,1.93l-0.47-1.47L279.14,346.21z"/>
	<path d="M287.57,350.78c-0.64,0.25-1.26,0.35-1.88,0.31s-1.16-0.23-1.65-0.57s-0.86-0.84-1.11-1.5c-0.22-0.58-0.29-1.09-0.21-1.54
		c0.09-0.45,0.28-0.85,0.58-1.2c0.3-0.35,0.66-0.67,1.08-0.95s0.85-0.55,1.3-0.79c0.58-0.32,1.05-0.57,1.42-0.76
		c0.37-0.19,0.62-0.37,0.76-0.54c0.14-0.17,0.16-0.38,0.06-0.63l-0.02-0.05c-0.25-0.65-0.62-1.08-1.12-1.3
		c-0.49-0.22-1.09-0.19-1.81,0.08c-0.74,0.29-1.25,0.68-1.55,1.16c-0.29,0.49-0.45,0.95-0.48,1.38l-1.67,0.05
		c0.02-0.71,0.19-1.33,0.49-1.84c0.31-0.51,0.69-0.94,1.16-1.28s0.96-0.61,1.46-0.81c0.32-0.13,0.71-0.23,1.16-0.32
		c0.45-0.09,0.92-0.09,1.41-0.01c0.49,0.08,0.95,0.31,1.4,0.68c0.45,0.37,0.83,0.96,1.14,1.76l2.59,6.63l-1.55,0.6l-0.53-1.36
		l-0.08,0.03c-0.02,0.26-0.1,0.56-0.25,0.91c-0.15,0.34-0.39,0.68-0.73,1.02C288.62,350.27,288.16,350.55,287.57,350.78z
		 M287.27,349.3c0.61-0.24,1.08-0.56,1.41-0.96c0.33-0.41,0.53-0.84,0.59-1.3c0.07-0.46,0.02-0.91-0.14-1.33l-0.55-1.42
		c-0.04,0.1-0.15,0.23-0.35,0.38s-0.43,0.3-0.7,0.46s-0.53,0.3-0.79,0.44s-0.46,0.25-0.62,0.34c-0.38,0.21-0.72,0.44-1.03,0.69
		c-0.3,0.25-0.51,0.53-0.64,0.84c-0.12,0.31-0.11,0.66,0.05,1.06c0.21,0.54,0.57,0.86,1.07,0.98
		C286.09,349.6,286.65,349.54,287.27,349.3z"/>
	<path d="M298.07,338.42l0.65,1.41l-5.72,2.64l-0.65-1.41L298.07,338.42z"/>
	<path d="M306.08,329.86c-0.41-0.59-0.98-0.91-1.69-0.97c-0.72-0.06-1.46,0.12-2.22,0.53c-0.56,0.3-1,0.66-1.32,1.07
		s-0.51,0.83-0.57,1.28c-0.06,0.44,0.02,0.87,0.24,1.27c0.18,0.34,0.42,0.58,0.72,0.74c0.29,0.15,0.61,0.24,0.95,0.26
		c0.34,0.02,0.68,0,1.01-0.05c0.33-0.05,0.64-0.11,0.91-0.17l1.47-0.35c0.38-0.09,0.81-0.17,1.3-0.24c0.49-0.07,0.99-0.07,1.51-0.01
		c0.51,0.06,1,0.23,1.47,0.5c0.46,0.28,0.86,0.71,1.18,1.3c0.37,0.68,0.53,1.4,0.47,2.14s-0.34,1.47-0.84,2.16
		c-0.51,0.7-1.24,1.31-2.22,1.83c-0.91,0.49-1.77,0.77-2.59,0.84s-1.56-0.06-2.22-0.38s-1.2-0.81-1.63-1.48l1.58-0.86
		c0.3,0.46,0.68,0.76,1.13,0.92c0.45,0.16,0.93,0.19,1.45,0.11c0.52-0.09,1.03-0.26,1.53-0.54c0.58-0.32,1.06-0.7,1.42-1.14
		s0.58-0.91,0.67-1.4c0.09-0.49,0-0.97-0.25-1.43c-0.23-0.42-0.53-0.7-0.91-0.83c-0.38-0.14-0.8-0.18-1.28-0.14
		s-0.97,0.12-1.48,0.24l-1.8,0.4c-1.14,0.25-2.15,0.27-3.01,0.06c-0.86-0.21-1.53-0.75-1.99-1.6c-0.38-0.71-0.53-1.43-0.43-2.17
		c0.1-0.74,0.39-1.43,0.89-2.08s1.14-1.19,1.95-1.63c0.82-0.44,1.62-0.69,2.41-0.75c0.79-0.05,1.51,0.07,2.16,0.37
		c0.65,0.3,1.15,0.76,1.52,1.39L306.08,329.86z"/>
	<path d="M319.64,334.51c-0.88,0.56-1.76,0.85-2.64,0.87c-0.88,0.02-1.72-0.22-2.51-0.7s-1.48-1.19-2.08-2.12
		c-0.6-0.93-0.95-1.86-1.07-2.79c-0.11-0.93,0.01-1.79,0.36-2.59c0.36-0.79,0.95-1.45,1.77-1.98c0.47-0.3,0.99-0.52,1.56-0.66
		s1.15-0.15,1.75-0.04c0.61,0.11,1.21,0.38,1.8,0.82c0.6,0.44,1.17,1.08,1.71,1.93l0.38,0.59l-7.01,4.49l-0.77-1.21l5.59-3.58
		c-0.33-0.51-0.72-0.91-1.18-1.18s-0.95-0.41-1.48-0.4s-1.04,0.17-1.54,0.49c-0.56,0.36-0.95,0.8-1.18,1.33
		c-0.23,0.53-0.31,1.09-0.25,1.67c0.06,0.58,0.26,1.12,0.58,1.62l0.52,0.81c0.44,0.69,0.93,1.19,1.47,1.51
		c0.54,0.32,1.11,0.47,1.69,0.45c0.58-0.03,1.16-0.22,1.72-0.58c0.37-0.23,0.67-0.5,0.9-0.79c0.23-0.3,0.39-0.62,0.47-0.97
		s0.08-0.72,0-1.11l1.59-0.48c0.15,0.55,0.17,1.1,0.05,1.66c-0.11,0.56-0.36,1.09-0.73,1.6
		C320.74,333.66,320.25,334.11,319.64,334.51z"/>
	<path d="M325.72,330.16l-6.32-8.76l1.3-0.94l0.95,1.32l0.09-0.07c-0.15-0.55-0.12-1.11,0.11-1.68c0.22-0.57,0.6-1.05,1.12-1.43
		c0.1-0.07,0.22-0.16,0.38-0.26s0.27-0.18,0.35-0.23l0.99,1.37c-0.05,0.02-0.17,0.08-0.35,0.17c-0.18,0.09-0.36,0.2-0.54,0.33
		c-0.43,0.31-0.74,0.67-0.95,1.09s-0.29,0.85-0.26,1.3c0.03,0.45,0.19,0.87,0.48,1.27l4,5.54L325.72,330.16z"/>
	<path d="M332.39,311.36l3.7,10.91l-1.31,1.06l-9.91-5.87l1.4-1.13l7.74,4.81l0.09-0.07l-3.11-8.56L332.39,311.36z"/>
	<path d="M333.35,308.03c-0.24,0.22-0.52,0.32-0.84,0.31c-0.32-0.01-0.58-0.13-0.79-0.36c-0.21-0.23-0.3-0.51-0.27-0.83
		c0.03-0.32,0.16-0.59,0.4-0.8c0.24-0.21,0.52-0.32,0.84-0.31s0.58,0.13,0.79,0.36c0.21,0.23,0.3,0.51,0.27,0.83
		C333.73,307.55,333.6,307.82,333.35,308.03z M341.11,318l-7.19-8.06l1.24-1.1l7.19,8.06L341.11,318z"/>
	<path d="M348.22,311.69c-0.72,0.71-1.51,1.15-2.37,1.32c-0.86,0.17-1.72,0.09-2.59-0.23c-0.87-0.32-1.68-0.87-2.43-1.64
		c-0.77-0.78-1.3-1.62-1.6-2.5s-0.35-1.75-0.17-2.6c0.19-0.85,0.63-1.62,1.33-2.3c0.54-0.53,1.13-0.91,1.76-1.13
		c0.63-0.23,1.26-0.29,1.9-0.2c0.63,0.09,1.22,0.34,1.76,0.76l-1.19,1.16c-0.44-0.26-0.94-0.38-1.52-0.35s-1.13,0.3-1.65,0.81
		c-0.46,0.45-0.75,0.97-0.86,1.55s-0.05,1.18,0.18,1.8c0.23,0.62,0.63,1.23,1.2,1.81c0.58,0.6,1.19,1.02,1.81,1.28
		c0.62,0.26,1.23,0.34,1.81,0.24c0.59-0.09,1.11-0.37,1.58-0.83c0.31-0.3,0.54-0.63,0.68-0.98c0.15-0.35,0.21-0.72,0.19-1.09
		c-0.02-0.37-0.13-0.73-0.34-1.09l1.19-1.16c0.38,0.52,0.61,1.09,0.71,1.71c0.09,0.62,0.03,1.25-0.19,1.88
		C349.18,310.53,348.79,311.13,348.22,311.69z"/>
	<path d="M356.34,303.15c-0.69,0.78-1.46,1.29-2.31,1.54c-0.85,0.25-1.71,0.25-2.6,0c-0.89-0.25-1.75-0.75-2.57-1.49
		s-1.42-1.54-1.78-2.41s-0.48-1.73-0.34-2.59c0.13-0.86,0.52-1.65,1.17-2.38c0.38-0.42,0.81-0.77,1.32-1.05
		c0.51-0.28,1.06-0.45,1.68-0.51s1.27,0.05,1.96,0.31c0.69,0.26,1.41,0.73,2.17,1.4l0.52,0.47l-5.55,6.21l-1.07-0.96l4.42-4.95
		c-0.45-0.41-0.94-0.68-1.46-0.82c-0.52-0.14-1.03-0.13-1.53,0.01c-0.5,0.15-0.95,0.44-1.35,0.89c-0.44,0.49-0.7,1.03-0.78,1.6
		c-0.08,0.58-0.01,1.13,0.21,1.67s0.55,1.01,0.99,1.4l0.71,0.64c0.61,0.54,1.22,0.9,1.83,1.06s1.19,0.16,1.75-0.03
		c0.56-0.18,1.06-0.52,1.5-1.02c0.29-0.33,0.51-0.66,0.65-1.01c0.14-0.35,0.21-0.7,0.19-1.06c-0.02-0.36-0.12-0.72-0.3-1.07l1.4-0.9
		c0.29,0.49,0.46,1.02,0.5,1.59c0.04,0.57-0.05,1.15-0.27,1.74C357.19,302.04,356.83,302.61,356.34,303.15z"/>
</g>
<g>
	<g>
		<linearGradient id="SVGID_3_" gradientUnits="userSpaceOnUse" x1="324.8264" y1="115.4677" x2="395.8224" y2="115.4677">
			<stop  offset="0" style="stop-color:#FBAD41"/>
			<stop  offset="1" style="stop-color:#FF6833"/>
		</linearGradient>
		<path class="st6" d="M325.48,48.53c41.43,30.55,68.49,79.44,69.24,134.74"/>
		<g>
			<linearGradient id="SVGID_4_" gradientUnits="userSpaceOnUse" x1="324.8264" y1="179.96" x2="395.8388" y2="179.96">
				<stop  offset="0" style="stop-color:#FBAD41"/>
				<stop  offset="1" style="stop-color:#FF6833"/>
			</linearGradient>
			<polygon class="st7" points="385.45,176.26 387.02,174.71 394.64,182.43 401.78,174.26 403.44,175.71 394.74,185.66 			"/>
		</g>
	</g>
</g>
<g>
	<g>
		<path class="st8" d="M54.69,173.1c0.03-0.37,0.05-0.73,0.08-1.1"/>
		<path class="st9" d="M55.07,168.69c4.68-47.38,28.74-89.02,64.15-116.9"/>
		<path class="st8" d="M120.53,50.77c0.29-0.22,0.58-0.45,0.87-0.67"/>
	</g>
</g>
<g>
	<g>
		<path class="st10" d="M394.55,193.85c-0.02,0.37-0.04,0.73-0.06,1.1"/>
		<path class="st11" d="M394.28,198.22c-2.42,33.32-14.42,63.97-33.25,89.21"/>
		<path class="st10" d="M360.05,288.73c-0.22,0.29-0.44,0.58-0.67,0.87"/>
	</g>
</g>
</svg>
