<svg xmlns="http://www.w3.org/2000/svg" xmlns:xlink="http://www.w3.org/1999/xlink" viewBox="0 0 891.06 1179.12"><defs><style>.cls-1{opacity:0.3;}.cls-2{fill:url(#New_Gradient_Swatch_10);}.cls-3{fill:#fff;}.cls-4{fill:#f58220;}.cls-5{opacity:0.35;isolation:isolate;fill:url(#linear-gradient);}.cls-6{fill:#fbae40;}.cls-7{fill:#2a2e89;}.cls-13,.cls-8{fill:#c3d7ed;}.cls-8{opacity:0.7;}.cls-9{fill:url(#linear-gradient-2);}.cls-10{fill:url(#linear-gradient-3);}.cls-11{fill:#2d318c;}.cls-12{fill:url(#New_Gradient_Swatch_1);}.cls-14{fill:#f0f3f8;}.cls-15{fill:#276cac;}.cls-16{fill:url(#linear-gradient-4);}.cls-17{fill:url(#linear-gradient-5);}.cls-18{fill:url(#linear-gradient-6);}.cls-19{fill:url(#linear-gradient-7);}.cls-20{fill:url(#linear-gradient-8);}.cls-21{fill:url(#linear-gradient-9);}.cls-22{fill:#c1cee3;}.cls-23{fill:url(#linear-gradient-10);}.cls-24{fill:url(#linear-gradient-11);}.cls-25{fill:url(#linear-gradient-12);}.cls-26{fill:url(#linear-gradient-13);}.cls-27{fill:url(#linear-gradient-14);}</style><linearGradient id="New_Gradient_Swatch_10" x1="269.82" y1="576.21" x2="621.74" y2="576.21" gradientUnits="userSpaceOnUse"><stop offset="0" stop-color="#f48120"/><stop offset="1" stop-color="#ffcc32"/></linearGradient><linearGradient id="linear-gradient" x1="2921.8" y1="-1300.08" x2="2933.43" y2="-1311.71" gradientTransform="matrix(-0.15, 0.99, 0.99, 0.15, 2336.49, -2024.14)" gradientUnits="userSpaceOnUse"><stop offset="0" stop-color="#eaeff7"/><stop offset="1" stop-color="#d2ddef" stop-opacity="0.1"/></linearGradient><linearGradient id="linear-gradient-2" x1="148.11" y1="1094.1" x2="206.09" y2="1031.94" gradientUnits="userSpaceOnUse"><stop offset="0.17" stop-color="#2b358f"/><stop offset="0.35" stop-color="#284399"/><stop offset="0.54" stop-color="#1f59a5"/><stop offset="0.74" stop-color="#1e75b1"/><stop offset="0.94" stop-color="#1b9ac4"/><stop offset="1" stop-color="#1ca3c9"/></linearGradient><linearGradient id="linear-gradient-3" x1="468.19" y1="199.79" x2="526.18" y2="137.62" xlink:href="#linear-gradient-2"/><linearGradient id="New_Gradient_Swatch_1" x1="712.78" y1="1014.47" x2="805.85" y2="1014.47" gradientUnits="userSpaceOnUse"><stop offset="0" stop-color="#2d318c"/><stop offset="1" stop-color="#1e75b1"/></linearGradient><linearGradient id="linear-gradient-4" x1="815.55" y1="1089.51" x2="815.55" y2="1054.64" gradientUnits="userSpaceOnUse"><stop offset="0.18" stop-color="#2ea9c4"/><stop offset="1" stop-color="#2a85b6"/></linearGradient><linearGradient id="linear-gradient-5" x1="68.68" y1="184.01" x2="170.84" y2="81.85" gradientUnits="userSpaceOnUse"><stop offset="0" stop-color="#d9e4f4"/><stop offset="1" stop-color="#fff"/></linearGradient><linearGradient id="linear-gradient-6" x1="46.68" y1="130.39" x2="191" y2="130.39" gradientUnits="userSpaceOnUse"><stop offset="0" stop-color="#2a4898"/><stop offset="1" stop-color="#1b9ac4"/></linearGradient><linearGradient id="linear-gradient-7" x1="98.17" y1="150.84" x2="140.15" y2="108.85" gradientUnits="userSpaceOnUse"><stop offset="0" stop-color="#236cab"/><stop offset="1" stop-color="#1b9ac4"/></linearGradient><linearGradient id="linear-gradient-8" x1="788.59" y1="197.78" x2="846.57" y2="135.61" xlink:href="#linear-gradient-2"/><linearGradient id="linear-gradient-9" x1="-2612.14" y1="-2367.65" x2="-2608.25" y2="-2367.65" gradientTransform="matrix(0, -1, -1, 0, -1956.74, -1631.94)" gradientUnits="userSpaceOnUse"><stop offset="0" stop-color="#7e77b2"/><stop offset="1" stop-color="#7e77b2"/></linearGradient><linearGradient id="linear-gradient-10" x1="363.32" y1="978.21" x2="590.58" y2="978.21" gradientUnits="userSpaceOnUse"><stop offset="0" stop-color="#eaedf2"/><stop offset="1" stop-color="#dbe4f2"/></linearGradient><linearGradient id="linear-gradient-11" x1="-2655.2" y1="-2367.65" x2="-2651.31" y2="-2367.65" xlink:href="#linear-gradient-9"/><linearGradient id="linear-gradient-12" x1="363.32" y1="1021.26" x2="590.58" y2="1021.26" xlink:href="#linear-gradient-10"/><linearGradient id="linear-gradient-13" x1="-2698.24" y1="-2367.65" x2="-2694.35" y2="-2367.65" xlink:href="#linear-gradient-9"/><linearGradient id="linear-gradient-14" x1="363.32" y1="1064.3" x2="590.58" y2="1064.3" xlink:href="#linear-gradient-10"/></defs><g id="Layer_2" data-name="Layer 2"><g id="Layer_1-2" data-name="Layer 1"><g class="cls-1"><circle class="cls-2" cx="445.78" cy="576.21" r="175.95"/></g><circle class="cls-3" cx="445.78" cy="576.21" r="131.96"/><path class="cls-4" d="M446.07,766.36a192.1,192.1,0,0,1-29.22-2.25,189.14,189.14,0,1,1,29.22,2.25Zm-.58-376.27A186.21,186.21,0,1,0,629.7,604.52l2,.31-2-.31A185.92,185.92,0,0,0,474.09,392.29,187.69,187.69,0,0,0,445.49,390.09Z"/><path class="cls-5" d="M600.36,678.92a7.64,7.64,0,0,1-1.26-.1,8.23,8.23,0,1,1,2.51-16.26,8.25,8.25,0,0,1,6.88,9.38h0A8.25,8.25,0,0,1,600.36,678.92Zm0-12a3.78,3.78,0,1,0,3.74,4.36h0a3.79,3.79,0,0,0-3.16-4.32A3.86,3.86,0,0,0,600.35,666.91Z"/><circle class="cls-6" cx="338.9" cy="421.53" r="6.22" transform="translate(-129.29 692.35) rotate(-81.25)"/><path class="cls-6" d="M289.33,554.52l3.43.48c-.2,1.29-.35,2.6-.49,3.87l-3.44-.39c.15-1.3.32-2.64.5-4Zm1.12-6.9c.24-1.3.49-2.62.76-3.92l3.39.71c-.26,1.27-.52,2.56-.75,3.84Zm-2.25,17.83,3.46.23c-.09,1.3-.16,2.61-.22,3.91l-3.47-.16c.06-1.32.13-2.66.23-4Zm4.58-28.56c.32-1.28.67-2.57,1-3.84l3.36.94c-.36,1.26-.7,2.53-1,3.78Zm-5,39.53h3.45c0,1.31,0,2.62.05,3.92l-3.45.09c0-1.33,0-2.67,0-4Zm8.1-50.07c.42-1.26.86-2.52,1.31-3.77l3.25,1.17c-.44,1.22-.88,2.46-1.27,3.69Zm-7.68,61,3.44-.24q.15,2,.33,3.9l-3.45.33c-.13-1.33-.24-2.66-.34-4Zm12.17-73,.2-.47a1.74,1.74,0,0,1,2.27-.91h0a1.72,1.72,0,0,1,.89,2.26l-.2.47a1.73,1.73,0,0,1-3.2-1.34v0Zm-11,83.9,3.43-.47c.18,1.3.38,2.6.59,3.87l-3.42.56c-.22-1.3-.42-2.63-.61-4ZM304.25,506c.59-1.2,1.2-2.4,1.83-3.57l3.06,1.62c-.61,1.14-1.21,2.31-1.79,3.48Zm-13,103.11,3.38-.72c.27,1.26.57,2.54.87,3.81l-3.37.81c-.32-1.3-.62-2.61-.89-3.91Zm18.19-112.81c.67-1.14,1.35-2.29,2.07-3.43l2.94,1.82c-.67,1.12-1.34,2.25-2,3.36ZM293.93,619.79l3.32-1c.36,1.26.74,2.51,1.13,3.73l-3.3,1c-.4-1.25-.76-2.53-1.15-3.81Zm21.43-132.74c.75-1.1,1.53-2.2,2.31-3.28l2.8,2c-.76,1.06-1.52,2.14-2.25,3.2Zm-18,143.16,3.27-1.18c.45,1.22.91,2.45,1.38,3.65L298.78,634C298.25,632.72,297.78,631.46,297.32,630.21Zm24.58-152c.83-1.05,1.68-2.09,2.53-3.11l2.66,2.22c-.83,1-1.66,2-2.47,3ZM301.43,640.38l3.16-1.41c.53,1.19,1.08,2.38,1.64,3.54L303.1,644c-.56-1.19-1.12-2.4-1.66-3.62ZM329,469.82c.9-1,1.8-2,2.73-2.92l2.5,2.38c-.9.93-1.79,1.9-2.67,2.85ZM306.25,650.25l3.06-1.62c.61,1.15,1.24,2.3,1.87,3.42l-3,1.7c-.65-1.15-1.29-2.33-1.92-3.51ZM336.74,462c1-.91,1.94-1.83,2.92-2.72l2.32,2.57c-1,.85-1.93,1.76-2.87,2.65Zm-25,197.8,2.93-1.83c.69,1.11,1.4,2.22,2.11,3.29l-2.89,1.9c-.74-1.11-1.46-2.25-2.17-3.37Zm33.18-205.11c1-.85,2.07-1.69,3.11-2.52l2.14,2.71c-1,.8-2,1.63-3,2.46ZM317.86,668.86l2.81-2c.76,1,1.55,2.1,2.34,3.13l-2.75,2.08c-.81-1-1.62-2.12-2.39-3.19Zm35.77-220.92c1.07-.78,2.17-1.55,3.27-2.3l2,2.86c-1.08.74-2.16,1.49-3.21,2.24Zm-29,229.59,2.66-2.21c.84,1,1.69,2,2.54,3l-2.6,2.29C326.35,679.58,325.46,678.55,324.62,677.53Zm38.15-235.69c1.11-.71,2.28-1.39,3.43-2.06l1.74,3-3.34,2ZM332,685.72l2.5-2.4c.9.93,1.82,1.87,2.75,2.79l-2.43,2.46c-1-.94-1.9-1.9-2.82-2.85Zm40.36-249.33c1.17-.62,2.36-1.23,3.55-1.82l1.52,3.1c-1.16.58-2.33,1.18-3.47,1.78Zm-32.46,257,2.31-2.55c1,.88,1.95,1.75,2.93,2.59L342.84,696c-1-.88-2-1.77-3-2.66Zm42.34-261.76c1.21-.53,2.44-1.06,3.67-1.57l1.32,3.21c-1.21.49-2.41,1-3.59,1.52ZM348.25,700.46l2.14-2.71c1,.8,2.07,1.6,3.13,2.38l-2.06,2.77c-1.1-.78-2.17-1.6-3.21-2.43Zm44.12-272.93c1.25-.44,2.52-.88,3.77-1.3l1.09,3.28c-1.22.41-2.46.84-3.7,1.28ZM357.14,707l1.94-2.86c1.07.73,2.18,1.46,3.27,2.16l-1.87,2.91c-1.13-.7-2.25-1.45-3.35-2.2ZM402.8,424.18c1.27-.36,2.56-.71,3.85-1l.86,3.35c-1.25.3-2.52.66-3.76,1ZM366.45,712.83l1.74-3c1.13.67,2.3,1.31,3.42,1.92l-1.66,3c-1.17-.62-2.34-1.28-3.5-2Zm47-291.24c1.3-.27,2.62-.53,3.92-.77l.62,3.41c-1.26.23-2.57.47-3.83.74ZM376.16,718.05l1.52-3.1c1.17.57,2.36,1.14,3.54,1.68l-1.45,3.14c-1.2-.58-2.41-1.16-3.61-1.72Zm48.1-298.33c1.32-.17,2.65-.34,4-.49l.38,3.44c-1.29.14-2.59.3-3.87.48Zm-38.07,302.8,1.31-3.22c1.2.49,2.42,1,3.64,1.43L389.92,724c-1.24-.45-2.49-.94-3.73-1.44Zm49-303.93c1.33-.09,2.68-.16,4-.21l.15,3.45c-1.3.05-2.61.13-3.91.21ZM396.51,726.3l1.07-3.29c1.24.4,2.49.79,3.73,1.17l-1,3.31c-1.24-.38-2.53-.78-3.79-1.19Zm49.67-308c1.32,0,2.67,0,4,.06l-.1,3.46c-1.3,0-2.62-.06-3.91-.07Zm-39.11,311.1.84-3.37c1.27.31,2.54.62,3.8.9l-.76,3.38C409.66,730,408.36,729.67,407.07,729.35Zm50.09-310.68c1.32.1,2.66.21,4,.35l-.34,3.44c-1.29-.13-2.6-.24-3.89-.33Zm-39.38,313,.61-3.4c1.28.23,2.58.44,3.86.64,1.11.17,2.25.34,3.37.48l-.45,3.43c-1.15-.15-2.31-.32-3.43-.49Q419.78,732,417.78,731.65Zm50.3-311.8,1.73.27,2.22.34-.57,3.41-2.18-.33-1.69-.26Zm10.09,5.31.72-3.39c1.3.28,2.61.57,3.9.88L482,426C480.72,425.72,479.42,425.42,478.17,425.16Zm-45.73,305c1.3.12,2.61.21,3.9.29l-.22,3.47c-1.32-.08-2.66-.18-4-.3ZM488.6,427.76l1-3.32c1.28.37,2.56.76,3.82,1.15l-1,3.3C491.11,428.5,489.85,428.12,488.6,427.76ZM443.18,730.69c1.29,0,2.6,0,3.9,0l0,3.46c-1.33,0-2.68,0-4,0ZM498.8,431.08l1.18-3.25c1.24.46,2.5.93,3.73,1.42l-1.26,3.22c-1.19-.47-2.42-.94-3.63-1.38ZM453.91,730.52c1.3-.06,2.61-.15,3.9-.25l.27,3.45c-1.32.1-2.67.19-4,.26Zm54.87-295.41,1.4-3.15c1.21.53,2.43,1.09,3.63,1.67l-1.48,3.12c-1.18-.56-2.37-1.11-3.55-1.64ZM464.62,729.58c1.29-.16,2.59-.33,3.87-.53l.51,3.43c-1.31.19-2.64.37-4,.53Zm53.83-289.74,1.62-3c1.18.62,2.36,1.27,3.51,1.93l-1.7,3c-1.13-.64-2.28-1.28-3.43-1.89ZM475.24,727.9c1.27-.25,2.58-.51,3.82-.79l.75,3.38c-1.3.3-2.59.56-3.92.81Zm52.51-282.67,1.84-2.93c1.12.71,2.28,1.44,3.36,2.17L531,447.36c-1.06-.72-2.17-1.43-3.27-2.12ZM485.67,725.48c1.24-.31,2.5-.68,3.75-1.05l1,3.32c-1.27.37-2.56.74-3.84,1.08Zm51-274.19,2-2.79c1.08.78,2.15,1.59,3.21,2.4l-2.11,2.74C538.79,452.83,537.74,452,536.68,451.29ZM496,722.38c1.22-.42,2.45-.86,3.67-1.31l1.21,3.24c-1.24.46-2.51.91-3.75,1.34Zm49.21-264.45,2.23-2.65c1,.85,2,1.73,3,2.61l-2.3,2.59c-1-.88-2-1.73-3-2.57ZM506,718.54c1.19-.5,2.39-1,3.57-1.57l1.44,3.15c-1.21.55-2.44,1.09-3.66,1.6Zm47.19-253.42,2.38-2.49c1,.93,1.92,1.88,2.84,2.82l-2.47,2.42c-.87-.91-1.81-1.84-2.75-2.75ZM515.69,714c1.15-.58,2.31-1.19,3.45-1.81l1.65,3c-1.17.64-2.36,1.26-3.54,1.86Zm44.92-241.11,2.57-2.32c.88,1,1.77,2,2.64,3l-2.63,2.25c-.85-1-1.73-2-2.58-2.94ZM525.08,708.79c1.11-.67,2.21-1.36,3.32-2l1.85,2.92c-1.11.71-2.27,1.41-3.4,2.09ZM567.51,481.1l2.73-2.13c.84,1,1.63,2.12,2.42,3.18l-2.79,2.08c-.76-1.06-1.56-2.11-2.36-3.13ZM534.1,702.94c1.06-.74,2.13-1.5,3.18-2.28l2.07,2.82c-1.08.78-2.17,1.57-3.25,2.32Zm39.73-213.15,2.86-1.93c.74,1.11,1.48,2.23,2.2,3.34L576,493.06C575.27,492,574.55,490.86,573.83,489.79ZM542.68,696.5c1-.81,2-1.65,3-2.49l2.24,2.64c-1,.85-2,1.72-3.08,2.53Zm36.85-197.61,3-1.74c.67,1.14,1.33,2.32,2,3.48l-3,1.66c-.63-1.13-1.27-2.27-1.92-3.4ZM550.84,689.45c.95-.88,1.91-1.79,2.83-2.7l2.42,2.48c-1,.93-1.93,1.86-2.93,2.75Zm33.75-181.08,3.1-1.52c.58,1.18,1.13,2.39,1.71,3.6l-3.14,1.45c-.55-1.19-1.11-2.38-1.67-3.53ZM558.47,681.9c.88-.94,1.79-1.91,2.64-2.89l2.58,2.31c-.89,1-1.81,2-2.7,2.95ZM589,518.17l3.2-1.31c.49,1.22,1,2.47,1.42,3.72l-3.23,1.23C589.93,520.58,589.45,519.36,589,518.17ZM565.56,673.81c.82-1,1.63-2,2.43-3.07l2.74,2.12c-.82,1.06-1.66,2.11-2.48,3.12Zm27.1-145.57,3.29-1.08c.4,1.25.81,2.53,1.19,3.8l-3.32,1c-.37-1.24-.76-2.48-1.16-3.71Zm-20.59,137c.74-1.06,1.49-2.14,2.22-3.23l2.87,1.94c-.74,1.11-1.5,2.22-2.27,3.31Zm23.57-126.7,3.35-.85c.3,1.27.63,2.59.9,3.87l-3.37.76C596.25,541.05,596,539.78,595.64,538.54ZM578,656.23c.67-1.11,1.34-2.25,2-3.38l3,1.72c-.68,1.15-1.36,2.29-2,3.46ZM597.88,549l3.41-.61c.23,1.3.45,2.63.65,3.94l-3.42.52C598.33,551.6,598.12,550.3,597.88,549Zm-14.67,97.79c.6-1.15,1.18-2.31,1.75-3.51l3.12,1.48c-.58,1.2-1.18,2.42-1.79,3.59Zm16.2-87.16,3.44-.36c.14,1.32.26,2.66.39,4l-3.45.28c-.12-1.28-.25-2.59-.38-3.89ZM587.8,637.09c.51-1.19,1-2.4,1.49-3.61l3.22,1.28c-.5,1.23-1,2.48-1.53,3.69Zm12.38-66.71,3.43-.13c0,1.32.09,2.67.09,4l-3.46,0C600.26,573,600.23,571.67,600.18,570.38Zm-8.5,56.68c.42-1.23.84-2.47,1.23-3.71l3.3,1.06c-.4,1.26-.83,2.53-1.27,3.8Zm8.52-45.94,3.48.12c0,1.32-.11,2.67-.18,4L600,585c.07-1.26.12-2.58.17-3.88Zm-5.35,35.67c.34-1.25.67-2.52,1-3.78l3.37.82c-.31,1.28-.65,2.59-1,3.84Zm4.62-24.94,3.45.35c-.14,1.32-.29,2.65-.46,4l-3.44-.44C599.19,594.44,599.34,593.13,599.47,591.85Zm-2.17,14.49c.25-1.27.49-2.56.71-3.84l3.41.58c-.2,1.31-.47,2.63-.73,3.93Z"/><path class="cls-4" d="M305.94,515.56a4,4,0,1,1-3.35-4.55h0a4,4,0,0,1,3.34,4.55h0m1.95.3a6,6,0,1,0-6.81,5h0A6,6,0,0,0,307.89,515.86Z"/><circle class="cls-4" cx="546.13" cy="697.74" r="3.99"/><circle class="cls-6" cx="625.1" cy="518.03" r="7.01"/><circle class="cls-6" cx="378.69" cy="752.17" r="7.01"/><path class="cls-7" d="M766,868a1.5,1.5,0,0,1-1.5-1.5V840.85H444.22v-29.8a1.5,1.5,0,0,1,3,0v26.8H767.46v28.68A1.5,1.5,0,0,1,766,868Z"/><path class="cls-7" d="M766,877.4c1.9-5.12,5.14-11.46,8.56-15.39l-8.56,3.1L757.4,862C760.83,865.94,764.07,872.28,766,877.4Z"/><path class="cls-7" d="M127.67,868a1.5,1.5,0,0,1-1.5-1.5V837.85H444.28v-26.8a1.5,1.5,0,0,1,3,0v29.8H129.17v25.68A1.5,1.5,0,0,1,127.67,868Z"/><path class="cls-7" d="M127.67,877.4c1.9-5.12,5.14-11.46,8.57-15.39l-8.57,3.1-8.55-3.1C122.54,865.94,125.78,872.28,127.67,877.4Z"/><path class="cls-7" d="M48.52,1170.92v7.91h-3.7V1157.5H53a8.24,8.24,0,0,1,5.67,1.86,6.27,6.27,0,0,1,2.1,4.93,6,6,0,0,1-2,4.88,8.65,8.65,0,0,1-5.77,1.75Zm0-3H53a4.37,4.37,0,0,0,3-.93,3.4,3.4,0,0,0,1-2.69,3.7,3.7,0,0,0-1.05-2.76,4.05,4.05,0,0,0-2.9-1.06H48.52Z"/><path class="cls-7" d="M73,1177.28a5.52,5.52,0,0,1-4.45,1.84,4.93,4.93,0,0,1-3.91-1.51,6.42,6.42,0,0,1-1.32-4.36V1163h3.56v10.22c0,2,.83,3,2.5,3a3.51,3.51,0,0,0,3.5-1.86V1163h3.56v15.85H73Z"/><path class="cls-7" d="M93.63,1171.06a9.52,9.52,0,0,1-1.65,5.88,5.38,5.38,0,0,1-4.54,2.18,5.16,5.16,0,0,1-4.33-2l-.18,1.72H79.71v-22.5h3.56v8.17a5.16,5.16,0,0,1,4.15-1.81,5.4,5.4,0,0,1,4.55,2.15,9.68,9.68,0,0,1,1.66,6Zm-3.56-.3a6.78,6.78,0,0,0-.91-3.87,3,3,0,0,0-2.64-1.29,3.3,3.3,0,0,0-3.25,2v6.54a3.34,3.34,0,0,0,3.28,2.06,3,3,0,0,0,2.58-1.24,6.58,6.58,0,0,0,.94-3.77Z"/><path class="cls-7" d="M100.09,1178.83H96.53v-22.5h3.56Z"/><path class="cls-7" d="M103.68,1158.86a1.88,1.88,0,0,1,.52-1.36,2,2,0,0,1,1.48-.54,2,2,0,0,1,1.5.54,1.88,1.88,0,0,1,.52,1.36,1.82,1.82,0,0,1-.52,1.34,2,2,0,0,1-1.5.54,2,2,0,0,1-1.48-.54A1.82,1.82,0,0,1,103.68,1158.86Zm3.77,20h-3.56V1163h3.56Z"/><path class="cls-7" d="M117.54,1176.28a3.19,3.19,0,0,0,2.21-.78,2.62,2.62,0,0,0,.94-1.92H124a5.15,5.15,0,0,1-.92,2.77,6,6,0,0,1-2.34,2,7,7,0,0,1-3.2.75,6.78,6.78,0,0,1-5.27-2.15,8.55,8.55,0,0,1-2-6v-.37a8.39,8.39,0,0,1,1.94-5.79,6.68,6.68,0,0,1,5.27-2.17,6.52,6.52,0,0,1,4.61,1.64,5.89,5.89,0,0,1,1.86,4.33h-3.35a3.27,3.27,0,0,0-.93-2.24,3,3,0,0,0-2.22-.88,3.16,3.16,0,0,0-2.67,1.25,6.47,6.47,0,0,0-1,3.81v.57a6.47,6.47,0,0,0,.93,3.84A3.12,3.12,0,0,0,117.54,1176.28Z"/><path class="cls-7" d="M150.22,1171.88a7.66,7.66,0,0,1-2.52,5.33,8.59,8.59,0,0,1-5.84,1.91,8.27,8.27,0,0,1-4.49-1.21,7.93,7.93,0,0,1-3-3.43,12.48,12.48,0,0,1-1.1-5.17v-2a12.49,12.49,0,0,1,1.07-5.31,8.1,8.1,0,0,1,3.07-3.55,8.56,8.56,0,0,1,4.62-1.24,8.23,8.23,0,0,1,5.69,1.91,8,8,0,0,1,2.5,5.41h-3.69a5.3,5.3,0,0,0-1.34-3.32,4.43,4.43,0,0,0-3.16-1,4.31,4.31,0,0,0-3.71,1.76,8.89,8.89,0,0,0-1.33,5.19V1169a9.39,9.39,0,0,0,1.24,5.27,4.11,4.11,0,0,0,3.63,1.82,4.76,4.76,0,0,0,3.28-1,5.09,5.09,0,0,0,1.39-3.27Z"/><path class="cls-7" d="M156.67,1178.83h-3.56v-22.5h3.56Z"/><path class="cls-7" d="M159.58,1170.76a9.26,9.26,0,0,1,.93-4.2,6.64,6.64,0,0,1,2.59-2.87,7.28,7.28,0,0,1,3.84-1,6.9,6.9,0,0,1,5.2,2.06,8.06,8.06,0,0,1,2.16,5.48l0,.83a9.42,9.42,0,0,1-.9,4.19,6.64,6.64,0,0,1-2.58,2.86,7.39,7.39,0,0,1-3.87,1,6.86,6.86,0,0,1-5.37-2.23,8.54,8.54,0,0,1-2-6Zm3.56.3a6.39,6.39,0,0,0,1,3.83,3.28,3.28,0,0,0,2.82,1.39,3.24,3.24,0,0,0,2.8-1.41,7,7,0,0,0,1-4.11,6.31,6.31,0,0,0-1-3.81,3.29,3.29,0,0,0-2.8-1.41,3.24,3.24,0,0,0-2.77,1.39A6.85,6.85,0,0,0,163.14,1171.06Z"/><path class="cls-7" d="M186.63,1177.28a5.51,5.51,0,0,1-4.45,1.84,4.93,4.93,0,0,1-3.91-1.51,6.42,6.42,0,0,1-1.32-4.36V1163h3.56v10.22c0,2,.83,3,2.5,3a3.51,3.51,0,0,0,3.5-1.86V1163h3.56v15.85h-3.35Z"/><path class="cls-7" d="M192.73,1170.79a9.45,9.45,0,0,1,1.7-5.89,5.46,5.46,0,0,1,4.56-2.21,5.17,5.17,0,0,1,4.07,1.75v-8.11h3.56v22.5H203.4l-.18-1.64a5.23,5.23,0,0,1-4.26,1.93,5.43,5.43,0,0,1-4.51-2.24A9.81,9.81,0,0,1,192.73,1170.79Zm3.56.3a6.59,6.59,0,0,0,.93,3.77,3,3,0,0,0,2.65,1.36,3.36,3.36,0,0,0,3.19-2v-6.77a3.32,3.32,0,0,0-3.16-1.9,3,3,0,0,0-2.67,1.37A7.3,7.3,0,0,0,196.29,1171.09Z"/><circle class="cls-8" cx="125.58" cy="1021.33" r="125"/><path class="cls-3" d="M22,1037.49a35.46,35.46,0,0,0,35.42,35.42H205.26a24.26,24.26,0,0,0,4.61-48.08,34.93,34.93,0,0,0,.76-7.3,35.47,35.47,0,0,0-35.44-35.42,35,35,0,0,0-10.65,1.63A57.69,57.69,0,0,0,53.2,1002.31,35.49,35.49,0,0,0,22,1037.49Z"/><circle class="cls-9" cx="173.69" cy="1066.67" r="36.35"/><path class="cls-3" d="M195.51,1060.9a5,5,0,0,0,1.63-3.74,5.1,5.1,0,1,0-10.2,0,5.06,5.06,0,0,0,1.63,3.74,9.2,9.2,0,0,0-5.64,7.34,19.93,19.93,0,0,0-4.34-1.9,9.45,9.45,0,0,0,4.62-8.16,9.52,9.52,0,1,0-14.41,8.16,15.33,15.33,0,0,0-4.35,1.9,9.2,9.2,0,0,0-5.64-7.34,5,5,0,0,0,1.63-3.74,5.1,5.1,0,1,0-10.19,0,5,5,0,0,0,1.63,3.74,9.23,9.23,0,0,0-5.71,8.49,1,1,0,0,0,2,0,7.14,7.14,0,0,1,14.27,0v.21a17.94,17.94,0,0,0-6.8,14.06,1,1,0,0,0,2,0,16,16,0,0,1,31.94,0,1,1,0,1,0,2,0,17.86,17.86,0,0,0-6.79-14.06v-.21a7.14,7.14,0,0,1,14.27,0,1,1,0,1,0,2,0A9.22,9.22,0,0,0,195.51,1060.9Zm-40.17-.68a3.06,3.06,0,1,1,3.06-3.06A3,3,0,0,1,155.34,1060.22Zm10.88-2a7.48,7.48,0,1,1,7.47,7.48A7.45,7.45,0,0,1,166.22,1058.18Zm25.82,2a3.06,3.06,0,1,1,3.06-3.06A3,3,0,0,1,192,1060.22Z"/><path class="cls-7" d="M400,284.51h-3.7V263.18H400Z"/><path class="cls-7" d="M407.24,268.66l.1,1.83a5.73,5.73,0,0,1,4.62-2.12q4.95,0,5,5.67v10.47h-3.56V274.24a3.28,3.28,0,0,0-.65-2.23,2.74,2.74,0,0,0-2.14-.73,3.42,3.42,0,0,0-3.2,2v11.28h-3.56V268.66Z"/><path class="cls-7" d="M424.78,264.81v3.85h2.8v2.64h-2.8v8.85a2,2,0,0,0,.36,1.31,1.66,1.66,0,0,0,1.28.4,5.4,5.4,0,0,0,1.25-.15v2.76a8.93,8.93,0,0,1-2.35.33q-4.1,0-4.1-4.52v-9h-2.6v-2.64h2.6v-3.85Z"/><path class="cls-7" d="M437,284.8a7.37,7.37,0,0,1-5.49-2.13,7.72,7.72,0,0,1-2.1-5.67v-.44a9.47,9.47,0,0,1,.91-4.24,6.9,6.9,0,0,1,2.58-2.91,6.72,6.72,0,0,1,3.69-1,6.25,6.25,0,0,1,5,2.06,8.74,8.74,0,0,1,1.76,5.85v1.43H433a4.76,4.76,0,0,0,1.31,3.11,3.93,3.93,0,0,0,2.89,1.14,4.84,4.84,0,0,0,4-2l1.92,1.84a6.53,6.53,0,0,1-2.54,2.2A8,8,0,0,1,437,284.8Zm-.43-13.58a3,3,0,0,0-2.36,1,5.28,5.28,0,0,0-1.15,2.86h6.78v-.27a4.37,4.37,0,0,0-.95-2.7A3,3,0,0,0,436.55,271.22Z"/><path class="cls-7" d="M454.09,271.91a8.53,8.53,0,0,0-1.45-.11,3.25,3.25,0,0,0-3.29,1.87v10.84h-3.56V268.66h3.4l.09,1.77a4,4,0,0,1,3.57-2.06,3.46,3.46,0,0,1,1.26.2Z"/><path class="cls-7" d="M459.35,268.66l.1,1.83a5.71,5.71,0,0,1,4.61-2.12q4.95,0,5,5.67v10.47h-3.56V274.24a3.28,3.28,0,0,0-.65-2.23,2.7,2.7,0,0,0-2.13-.73,3.42,3.42,0,0,0-3.21,2v11.28H456V268.66Z"/><path class="cls-7" d="M479.41,284.8a7.37,7.37,0,0,1-5.49-2.13,7.72,7.72,0,0,1-2.1-5.67v-.44a9.61,9.61,0,0,1,.91-4.24,7,7,0,0,1,2.58-2.91,6.72,6.72,0,0,1,3.69-1,6.24,6.24,0,0,1,5,2.06,8.74,8.74,0,0,1,1.77,5.85v1.43H475.41a4.76,4.76,0,0,0,1.31,3.11,3.94,3.94,0,0,0,2.89,1.14,4.84,4.84,0,0,0,4-2l1.92,1.84A6.49,6.49,0,0,1,483,284,8,8,0,0,1,479.41,284.8ZM479,271.22a3,3,0,0,0-2.36,1,5.28,5.28,0,0,0-1.15,2.86h6.78v-.27a4.37,4.37,0,0,0-.95-2.7A3,3,0,0,0,479,271.22Z"/><path class="cls-7" d="M492.69,264.81v3.85h2.79v2.64h-2.79v8.85a2,2,0,0,0,.36,1.31,1.65,1.65,0,0,0,1.28.4,5.32,5.32,0,0,0,1.24-.15v2.76a8.92,8.92,0,0,1-2.34.33c-2.74,0-4.1-1.51-4.1-4.52v-9h-2.61v-2.64h2.61v-3.85Z"/><circle class="cls-8" cx="445.67" cy="127.01" r="125"/><path class="cls-3" d="M342.11,143.17a35.46,35.46,0,0,0,35.42,35.43H525.35A24.26,24.26,0,0,0,530,130.52a35.07,35.07,0,0,0,.76-7.3,35.46,35.46,0,0,0-46.09-33.8A57.7,57.7,0,0,0,373.28,108,35.47,35.47,0,0,0,342.11,143.17Z"/><circle class="cls-10" cx="493.78" cy="172.36" r="36.35"/><path class="cls-3" d="M493.78,144.14A28.22,28.22,0,1,0,522,172.36,28.24,28.24,0,0,0,493.78,144.14Zm21.93,41.26h-8.5a48.26,48.26,0,0,0,1.65-11.09h10.36A25.18,25.18,0,0,1,515.71,185.4Zm-14.39,11.35a24.69,24.69,0,0,0,5-8.66h7.5A25.68,25.68,0,0,1,501.32,196.75Zm-27.62-8.66h7.5a24.69,24.69,0,0,0,5,8.66A25.68,25.68,0,0,1,473.7,188.09Zm-5.36-13.78H478.7a48.26,48.26,0,0,0,1.65,11.09h-8.5A25.18,25.18,0,0,1,468.34,174.31Zm3.16-14.38h8.68a49.33,49.33,0,0,0-1.51,11.7h-10.4A25.34,25.34,0,0,1,471.5,159.93Zm14.74-12a25.07,25.07,0,0,0-5.25,9.27h-7.76A25.6,25.6,0,0,1,486.24,148Zm28.09,9.27h-7.76a25.07,25.07,0,0,0-5.25-9.27A25.6,25.6,0,0,1,514.33,157.24Zm-8.13,14.39H481.36a45.69,45.69,0,0,1,1.65-11.7h21.54A45.69,45.69,0,0,1,506.2,171.63Zm-1.83,13.77H483.19a44.74,44.74,0,0,1-1.8-11.09h24.77A44.29,44.29,0,0,1,504.37,185.4Zm-.93,2.69c-2.3,5.81-5.81,9.6-9.66,9.6s-7.36-3.79-9.66-9.6Zm-19.55-30.85c2.29-6.15,5.91-10.21,9.89-10.21s7.6,4.06,9.89,10.21Zm25,14.39a48.83,48.83,0,0,0-1.5-11.7h8.69a25.45,25.45,0,0,1,3.22,11.7Z"/><path class="cls-7" d="M677.6,1178.75v-21.32h7.31a8.91,8.91,0,0,1,5.51,1.45,5.09,5.09,0,0,1,1.89,4.32,4.65,4.65,0,0,1-.79,2.63,5.12,5.12,0,0,1-2.32,1.82,4.7,4.7,0,0,1,2.68,1.77,5.12,5.12,0,0,1,.94,3.11,5.65,5.65,0,0,1-1.93,4.61,8.33,8.33,0,0,1-5.51,1.61Zm3.71-12.34h3.63a4.21,4.21,0,0,0,2.7-.79,2.68,2.68,0,0,0,1-2.22,2.72,2.72,0,0,0-.9-2.28,4.57,4.57,0,0,0-2.81-.71h-3.6Zm0,2.72v6.66h4.11a4,4,0,0,0,2.73-.86,3.05,3.05,0,0,0,1-2.4q0-3.33-3.4-3.4Z"/><path class="cls-7" d="M704.18,1166.16a8.6,8.6,0,0,0-1.45-.12,3.27,3.27,0,0,0-3.3,1.87v10.84h-3.55V1162.9h3.39l.09,1.78a4,4,0,0,1,3.58-2.07,3.32,3.32,0,0,1,1.26.21Z"/><path class="cls-7" d="M715.16,1178.75a5.36,5.36,0,0,1-.41-1.48,5.51,5.51,0,0,1-4.16,1.78,5.61,5.61,0,0,1-3.9-1.37,4.36,4.36,0,0,1-1.51-3.36,4.49,4.49,0,0,1,1.89-3.89,9.06,9.06,0,0,1,5.38-1.36h2.18v-1a2.77,2.77,0,0,0-.69-2,2.71,2.71,0,0,0-2.09-.74,3.11,3.11,0,0,0-2,.61,1.87,1.87,0,0,0-.78,1.54h-3.56a4,4,0,0,1,.87-2.44,5.76,5.76,0,0,1,2.35-1.77,8.21,8.21,0,0,1,3.31-.65,6.65,6.65,0,0,1,4.44,1.4,5,5,0,0,1,1.7,3.93v7.15a8,8,0,0,0,.6,3.41v.25Zm-3.91-2.56a4.06,4.06,0,0,0,2-.51,3.39,3.39,0,0,0,1.4-1.38v-3h-1.92a5.23,5.23,0,0,0-3,.69,2.25,2.25,0,0,0-1,2,2.06,2.06,0,0,0,.69,1.63A2.6,2.6,0,0,0,711.25,1176.19Z"/><path class="cls-7" d="M724.92,1162.9l.11,1.84a5.69,5.69,0,0,1,4.61-2.13q5,0,5,5.67v10.47h-3.56v-10.26a3.29,3.29,0,0,0-.65-2.24,2.77,2.77,0,0,0-2.13-.72,3.43,3.43,0,0,0-3.21,1.94v11.28h-3.56V1162.9Z"/><path class="cls-7" d="M744.52,1176.2a3.22,3.22,0,0,0,2.21-.77,2.69,2.69,0,0,0,.94-1.92H751a5.26,5.26,0,0,1-.92,2.76,6,6,0,0,1-2.35,2,6.94,6.94,0,0,1-3.19.75,6.74,6.74,0,0,1-5.27-2.16,8.51,8.51,0,0,1-1.95-5.94v-.37a8.39,8.39,0,0,1,1.93-5.79,6.71,6.71,0,0,1,5.28-2.18,6.49,6.49,0,0,1,4.6,1.65,5.9,5.9,0,0,1,1.87,4.33h-3.35a3.25,3.25,0,0,0-.93-2.24,3,3,0,0,0-2.22-.88,3.11,3.11,0,0,0-2.67,1.25,6.34,6.34,0,0,0-1,3.8v.57a6.52,6.52,0,0,0,.93,3.85A3.13,3.13,0,0,0,744.52,1176.2Z"/><path class="cls-7" d="M756.92,1164.63a5.56,5.56,0,0,1,4.41-2c3.37,0,5.09,1.93,5.14,5.79v10.35h-3.56v-10.22a3.14,3.14,0,0,0-.71-2.32,2.89,2.89,0,0,0-2.09-.68,3.41,3.41,0,0,0-3.19,1.9v11.32h-3.56v-22.5h3.56Z"/><path class="cls-7" d="M794.3,1168.65a13.13,13.13,0,0,1-1.08,5.5,8.27,8.27,0,0,1-3.1,3.63,9.07,9.07,0,0,1-9.26,0,8.27,8.27,0,0,1-3.13-3.61,12.66,12.66,0,0,1-1.13-5.41v-1.2a13,13,0,0,1,1.11-5.51,8.32,8.32,0,0,1,3.12-3.65,9.1,9.1,0,0,1,9.24,0,8.25,8.25,0,0,1,3.12,3.61,13,13,0,0,1,1.11,5.47Zm-3.71-1.12a9.27,9.27,0,0,0-1.34-5.43,4.73,4.73,0,0,0-7.56,0,9.19,9.19,0,0,0-1.38,5.33v1.23a9.27,9.27,0,0,0,1.37,5.43,4.74,4.74,0,0,0,7.59,0,9.46,9.46,0,0,0,1.32-5.47Z"/><path class="cls-7" d="M798.6,1178.75v-13.21h-2.42v-2.64h2.42v-1.45a5.48,5.48,0,0,1,1.46-4.07,5.62,5.62,0,0,1,4.11-1.43,8.06,8.06,0,0,1,2,.26l-.09,2.78a6.93,6.93,0,0,0-1.36-.11c-1.7,0-2.55.87-2.55,2.62v1.4h3.22v2.64h-3.22v13.21Z"/><path class="cls-7" d="M808.93,1178.75v-13.21h-2.41v-2.64h2.41v-1.45a5.44,5.44,0,0,1,1.47-4.07,5.59,5.59,0,0,1,4.1-1.43,8,8,0,0,1,2,.26l-.09,2.78a6.86,6.86,0,0,0-1.36-.11c-1.7,0-2.55.87-2.55,2.62v1.4h3.23v2.64h-3.23v13.21Z"/><path class="cls-7" d="M818,1158.79a1.9,1.9,0,0,1,.52-1.36,2.29,2.29,0,0,1,3,0,2,2,0,0,1,0,2.7,2.36,2.36,0,0,1-3,0A1.89,1.89,0,0,1,818,1158.79Zm3.78,20h-3.56V1162.9h3.56Z"/><path class="cls-7" d="M831.89,1176.2a3.2,3.2,0,0,0,2.21-.77,2.65,2.65,0,0,0,.94-1.92h3.35a5.17,5.17,0,0,1-.92,2.76,6.09,6.09,0,0,1-2.34,2,7,7,0,0,1-3.2.75,6.75,6.75,0,0,1-5.27-2.16,8.51,8.51,0,0,1-1.95-5.94v-.37a8.44,8.44,0,0,1,1.93-5.79,6.71,6.71,0,0,1,5.28-2.18,6.49,6.49,0,0,1,4.6,1.65,5.9,5.9,0,0,1,1.87,4.33H835a3.25,3.25,0,0,0-.93-2.24,3,3,0,0,0-2.22-.88,3.13,3.13,0,0,0-2.67,1.25,6.41,6.41,0,0,0-1,3.8v.57a6.52,6.52,0,0,0,.93,3.85A3.14,3.14,0,0,0,831.89,1176.2Z"/><path class="cls-7" d="M847.76,1179.05a7.36,7.36,0,0,1-5.48-2.13,7.73,7.73,0,0,1-2.11-5.68v-.44a9.5,9.5,0,0,1,.92-4.24,6.94,6.94,0,0,1,2.57-2.91,6.81,6.81,0,0,1,3.69-1,6.2,6.2,0,0,1,5,2.07,8.69,8.69,0,0,1,1.77,5.84V1172H843.76a4.78,4.78,0,0,0,1.31,3.1,4,4,0,0,0,2.9,1.14,4.79,4.79,0,0,0,4-2l1.92,1.83a6.39,6.39,0,0,1-2.54,2.2A8,8,0,0,1,847.76,1179.05Zm-.42-13.58a3,3,0,0,0-2.37,1,5.39,5.39,0,0,0-1.15,2.86h6.78v-.26a4.32,4.32,0,0,0-1-2.71A3,3,0,0,0,847.34,1165.47Z"/><circle class="cls-8" cx="765.24" cy="1020.86" r="125"/><polygon class="cls-11" points="686.2 1061 686.2 1083.15 690.63 1083.15 690.63 1061 708.35 1061 708.35 959.07 686.2 959.07 686.2 1061"/><polygon class="cls-12" points="805.85 972.37 805.85 959.07 783.69 959.07 783.69 950.21 712.78 950.21 712.78 959.07 734.94 959.07 734.94 972.37 734.94 981.23 734.94 994.52 734.94 1003.39 734.94 1016.68 734.94 1025.54 734.94 1038.84 734.94 1047.7 734.94 1061 734.94 1065.43 734.94 1078.72 796.98 1078.72 796.98 1061 805.85 1061 805.85 1047.7 779.26 1047.7 779.26 1038.84 805.85 1038.84 805.85 1025.54 779.26 1025.54 779.26 1016.68 805.85 1016.68 805.85 1003.39 779.26 1003.39 779.26 994.52 805.85 994.52 805.85 981.23 779.26 981.23 779.26 972.37 805.85 972.37"/><rect class="cls-3" x="743.81" y="1061" width="8.86" height="17.73"/><rect class="cls-3" x="761.53" y="1061" width="8.86" height="17.73"/><rect class="cls-3" x="779.26" y="1061" width="8.86" height="17.73"/><rect class="cls-3" x="779.26" y="1038.84" width="22.16" height="8.86"/><rect class="cls-3" x="779.26" y="1016.68" width="22.16" height="8.86"/><rect class="cls-3" x="779.26" y="994.52" width="22.16" height="8.86"/><rect class="cls-3" x="779.26" y="972.37" width="22.16" height="8.86"/><rect class="cls-3" x="761.53" y="1038.84" width="8.86" height="8.86"/><rect class="cls-3" x="761.53" y="1016.68" width="8.86" height="8.86"/><rect class="cls-3" x="761.53" y="994.52" width="8.86" height="8.86"/><rect class="cls-3" x="761.53" y="972.37" width="8.86" height="8.86"/><rect class="cls-3" x="743.81" y="1038.84" width="8.86" height="8.86"/><rect class="cls-3" x="743.81" y="1016.68" width="8.86" height="8.86"/><rect class="cls-3" x="743.81" y="994.52" width="8.86" height="8.86"/><rect class="cls-3" x="743.81" y="972.37" width="8.86" height="8.86"/><rect class="cls-13" x="708.35" y="959.07" width="26.59" height="101.93"/><rect class="cls-13" x="690.63" y="1061" width="44.32" height="22.16"/><rect class="cls-14" x="708.35" y="1029.98" width="26.59" height="4.43"/><rect class="cls-14" x="708.35" y="1007.82" width="26.59" height="4.43"/><rect class="cls-14" x="708.35" y="985.66" width="26.59" height="4.43"/><rect class="cls-14" x="708.35" y="967.93" width="26.59" height="4.43"/><rect class="cls-3" x="699.49" y="1061" width="2.96" height="22.16"/><rect class="cls-3" x="699.49" y="1061" width="26.59" height="2.46"/><rect class="cls-3" x="711.31" y="1061" width="2.96" height="22.16"/><rect class="cls-3" x="723.12" y="1061" width="2.96" height="22.16"/><rect class="cls-15" x="734.94" y="1074.29" width="79.77" height="4.43"/><rect class="cls-15" x="730.51" y="1078.72" width="84.2" height="4.43"/><rect class="cls-15" x="681.76" y="1056.57" width="53.18" height="4.43"/><path class="cls-16" d="M849.1,1076.11a6.36,6.36,0,0,0-8.5-6.09,4.83,4.83,0,0,0-4.36-2.79,4.74,4.74,0,0,0-3,1.07,4.82,4.82,0,0,0-4.7-5.93,4.8,4.8,0,0,0-4,2.15,7.9,7.9,0,0,0-3.46-.81c-.16,0-.34.06-.5.07v-1a4.09,4.09,0,0,0-4.07-4.09,4,4,0,0,0-2.58,1,6.09,6.09,0,1,0-11.93,2.45,6,6,0,0,0-3.78-1.35,6.1,6.1,0,0,0-5.5,3.52,8.11,8.11,0,0,0-9,12.64,6.21,6.21,0,0,0-1.7,4.25,6.11,6.11,0,0,0,6.11,6.12h22.95a5.38,5.38,0,0,0,7.81,1h2.83a6.41,6.41,0,0,0,2.77.65,7,7,0,0,0,2.93-.65h16.88a4.87,4.87,0,0,0,3.49-8.22A6.49,6.49,0,0,0,849.1,1076.11Z"/><path class="cls-7" d="M371.53,1178.75v-21.32h6.3a9.9,9.9,0,0,1,5,1.26,8.65,8.65,0,0,1,3.39,3.57,11.34,11.34,0,0,1,1.2,5.3v1.07a11.23,11.23,0,0,1-1.21,5.33,8.48,8.48,0,0,1-3.44,3.55,10.35,10.35,0,0,1-5.12,1.24Zm3.71-18.34v15.38h2.41a5.55,5.55,0,0,0,4.48-1.82,7.94,7.94,0,0,0,1.59-5.24v-1.18a8.21,8.21,0,0,0-1.51-5.31,5.36,5.36,0,0,0-4.38-1.83Z"/><path class="cls-7" d="M400,1178.75a5,5,0,0,1-.41-1.48,6,6,0,0,1-8.06.41,4.33,4.33,0,0,1-1.51-3.36,4.51,4.51,0,0,1,1.88-3.89,9.09,9.09,0,0,1,5.39-1.36h2.18v-1a2.49,2.49,0,0,0-2.79-2.71,3.11,3.11,0,0,0-2,.61,1.89,1.89,0,0,0-.77,1.54h-3.56a4,4,0,0,1,.86-2.44,5.83,5.83,0,0,1,2.35-1.77,8.26,8.26,0,0,1,3.32-.65,6.67,6.67,0,0,1,4.44,1.4,5,5,0,0,1,1.7,3.93v7.15a8,8,0,0,0,.6,3.41v.25Zm-3.92-2.56a4.07,4.07,0,0,0,2-.51,3.39,3.39,0,0,0,1.4-1.38v-3h-1.92a5.21,5.21,0,0,0-3,.69,2.22,2.22,0,0,0-1,2,2.08,2.08,0,0,0,.68,1.63A2.62,2.62,0,0,0,396,1176.19Z"/><path class="cls-7" d="M410.88,1159.05v3.85h2.79v2.64h-2.79v8.85a2,2,0,0,0,.35,1.31,1.67,1.67,0,0,0,1.29.4,5.89,5.89,0,0,0,1.24-.14v2.75a9,9,0,0,1-2.34.34c-2.74,0-4.1-1.51-4.1-4.53v-9h-2.61v-2.64h2.61v-3.85Z"/><path class="cls-7" d="M425.56,1178.75a5.36,5.36,0,0,1-.41-1.48,5.51,5.51,0,0,1-4.16,1.78,5.61,5.61,0,0,1-3.9-1.37,4.35,4.35,0,0,1-1.5-3.36,4.48,4.48,0,0,1,1.88-3.89,9.06,9.06,0,0,1,5.38-1.36H425v-1a2.77,2.77,0,0,0-.69-2,2.71,2.71,0,0,0-2.09-.74,3.11,3.11,0,0,0-2,.61,1.87,1.87,0,0,0-.78,1.54h-3.56a4,4,0,0,1,.87-2.44,5.76,5.76,0,0,1,2.35-1.77,8.23,8.23,0,0,1,3.32-.65,6.64,6.64,0,0,1,4.43,1.4,5,5,0,0,1,1.7,3.93v7.15a8,8,0,0,0,.6,3.41v.25Zm-3.91-2.56a4.06,4.06,0,0,0,2-.51,3.39,3.39,0,0,0,1.4-1.38v-3h-1.92a5.23,5.23,0,0,0-3,.69,2.25,2.25,0,0,0-1,2,2.06,2.06,0,0,0,.69,1.63A2.6,2.6,0,0,0,421.65,1176.19Z"/><path class="cls-7" d="M455.81,1171.81a7.63,7.63,0,0,1-2.52,5.32,8.55,8.55,0,0,1-5.84,1.92,8.36,8.36,0,0,1-4.49-1.21,7.89,7.89,0,0,1-3-3.44,12.41,12.41,0,0,1-1.1-5.17v-2a12.57,12.57,0,0,1,1.07-5.32,8.07,8.07,0,0,1,3.07-3.54,8.55,8.55,0,0,1,4.62-1.25,8.28,8.28,0,0,1,5.69,1.91,8,8,0,0,1,2.5,5.42h-3.69a5.27,5.27,0,0,0-1.34-3.32,4.43,4.43,0,0,0-3.16-1,4.31,4.31,0,0,0-3.71,1.77,8.78,8.78,0,0,0-1.33,5.18V1169a9.4,9.4,0,0,0,1.24,5.28,4.12,4.12,0,0,0,3.63,1.82,4.81,4.81,0,0,0,3.28-1,5.19,5.19,0,0,0,1.39-3.27Z"/><path class="cls-7" d="M465.46,1179.05a7.37,7.37,0,0,1-5.49-2.13,7.76,7.76,0,0,1-2.1-5.68v-.44a9.5,9.5,0,0,1,.91-4.24,6.9,6.9,0,0,1,2.58-2.91,6.81,6.81,0,0,1,3.69-1,6.21,6.21,0,0,1,5,2.07,8.69,8.69,0,0,1,1.76,5.84V1172H461.46a4.73,4.73,0,0,0,1.31,3.1,3.94,3.94,0,0,0,2.89,1.14,4.83,4.83,0,0,0,4-2l1.92,1.83a6.41,6.41,0,0,1-2.55,2.2A8,8,0,0,1,465.46,1179.05Zm-.43-13.58a3,3,0,0,0-2.36,1,5.31,5.31,0,0,0-1.15,2.86h6.78v-.26a4.38,4.38,0,0,0-.95-2.71A3,3,0,0,0,465,1165.47Z"/><path class="cls-7" d="M477.58,1162.9l.1,1.84a5.69,5.69,0,0,1,4.62-2.13q4.95,0,5,5.67v10.47h-3.56v-10.26a3.24,3.24,0,0,0-.66-2.24,2.74,2.74,0,0,0-2.13-.72,3.45,3.45,0,0,0-3.21,1.94v11.28h-3.56V1162.9Z"/><path class="cls-7" d="M495.12,1159.05v3.85h2.8v2.64h-2.8v8.85a2,2,0,0,0,.36,1.31,1.66,1.66,0,0,0,1.28.4A6,6,0,0,0,498,1176v2.75a9,9,0,0,1-2.35.34q-4.1,0-4.1-4.53v-9H489v-2.64h2.61v-3.85Z"/><path class="cls-7" d="M507.32,1179.05a7.37,7.37,0,0,1-5.49-2.13,7.76,7.76,0,0,1-2.1-5.68v-.44a9.5,9.5,0,0,1,.91-4.24,6.94,6.94,0,0,1,2.57-2.91,6.86,6.86,0,0,1,3.7-1,6.22,6.22,0,0,1,5,2.07,8.74,8.74,0,0,1,1.76,5.84V1172H503.32a4.68,4.68,0,0,0,1.31,3.1,3.93,3.93,0,0,0,2.89,1.14,4.83,4.83,0,0,0,4-2l1.91,1.83a6.32,6.32,0,0,1-2.54,2.2A8,8,0,0,1,507.32,1179.05Zm-.43-13.58a3,3,0,0,0-2.36,1,5.23,5.23,0,0,0-1.15,2.86h6.78v-.26a4.38,4.38,0,0,0-1-2.71A3,3,0,0,0,506.89,1165.47Z"/><path class="cls-7" d="M524.43,1166.16A8.6,8.6,0,0,0,523,1166a3.25,3.25,0,0,0-3.29,1.87v10.84h-3.56V1162.9h3.4l.08,1.78a4,4,0,0,1,3.58-2.07,3.25,3.25,0,0,1,1.26.21Z"/><circle class="cls-8" cx="447.11" cy="1020.86" r="125"/><path class="cls-7" d="M38.8,263.36,45,279.71l6.14-16.35h4.79v21.33H52.19v-7l.37-9.4-6.3,16.43H43.61l-6.29-16.42.37,9.39v7H34V263.36Z"/><path class="cls-7" d="M59,276.62a9.45,9.45,0,0,1,.92-4.2,6.78,6.78,0,0,1,2.6-2.87,7.27,7.27,0,0,1,3.83-1,6.94,6.94,0,0,1,5.21,2.06,8.17,8.17,0,0,1,2.16,5.48l0,.84a9.45,9.45,0,0,1-.9,4.19A6.61,6.61,0,0,1,70.21,284a7.31,7.31,0,0,1-3.88,1A6.86,6.86,0,0,1,61,282.75a8.51,8.51,0,0,1-2-5.95Zm3.56.31a6.41,6.41,0,0,0,1,3.83,3.54,3.54,0,0,0,5.62,0,7.06,7.06,0,0,0,1-4.12,6.31,6.31,0,0,0-1-3.81,3.48,3.48,0,0,0-5.57,0A6.87,6.87,0,0,0,62.51,276.93Z"/><path class="cls-7" d="M90.31,276.93a9.49,9.49,0,0,1-1.65,5.87A5.36,5.36,0,0,1,84.12,285a5.15,5.15,0,0,1-4.33-2l-.18,1.71H76.39v-22.5H80v8.18a5.12,5.12,0,0,1,4.14-1.82,5.44,5.44,0,0,1,4.56,2.15,9.7,9.7,0,0,1,1.66,6Zm-3.56-.31a6.78,6.78,0,0,0-.91-3.87,3,3,0,0,0-2.64-1.29,3.3,3.3,0,0,0-3.25,2V280a3.33,3.33,0,0,0,3.28,2.06,3,3,0,0,0,2.58-1.24,6.58,6.58,0,0,0,.94-3.77Z"/><path class="cls-7" d="M93,264.73a1.93,1.93,0,0,1,.52-1.37,2.33,2.33,0,0,1,3,0,1.85,1.85,0,0,1,.53,1.37,1.82,1.82,0,0,1-.53,1.34,2.36,2.36,0,0,1-3,0A1.89,1.89,0,0,1,93,264.73Zm3.78,20H93.21V268.84h3.56Z"/><path class="cls-7" d="M104.13,284.69h-3.56v-22.5h3.56Z"/><path class="cls-7" d="M114.69,285a7.37,7.37,0,0,1-5.49-2.13,7.72,7.72,0,0,1-2.1-5.67v-.44a9.5,9.5,0,0,1,.92-4.24,6.88,6.88,0,0,1,2.57-2.91,6.81,6.81,0,0,1,3.69-1,6.24,6.24,0,0,1,5,2.06,8.74,8.74,0,0,1,1.77,5.85v1.43H110.69A4.76,4.76,0,0,0,112,281a3.94,3.94,0,0,0,2.89,1.14,4.85,4.85,0,0,0,4-2L120.8,282a6.53,6.53,0,0,1-2.54,2.2A8,8,0,0,1,114.69,285Zm-.43-13.57a3,3,0,0,0-2.36,1,5.28,5.28,0,0,0-1.15,2.86h6.78V275a4.31,4.31,0,0,0-1-2.7A3,3,0,0,0,114.26,271.41Z"/><path class="cls-7" d="M131,284.69V263.36h6.3a9.88,9.88,0,0,1,5,1.26,8.56,8.56,0,0,1,3.39,3.58,11.34,11.34,0,0,1,1.2,5.3v1.07a11.23,11.23,0,0,1-1.21,5.33,8.47,8.47,0,0,1-3.44,3.55,10.35,10.35,0,0,1-5.12,1.24Zm3.71-18.34v15.38h2.42a5.54,5.54,0,0,0,4.47-1.82,8,8,0,0,0,1.59-5.24v-1.18a8.14,8.14,0,0,0-1.51-5.31,5.34,5.34,0,0,0-4.38-1.83Z"/><path class="cls-7" d="M157,285a7.37,7.37,0,0,1-5.49-2.13,7.72,7.72,0,0,1-2.1-5.67v-.44a9.5,9.5,0,0,1,.91-4.24,6.9,6.9,0,0,1,2.58-2.91,6.81,6.81,0,0,1,3.69-1,6.24,6.24,0,0,1,5,2.06,8.74,8.74,0,0,1,1.76,5.85v1.43H153a4.76,4.76,0,0,0,1.31,3.11,3.94,3.94,0,0,0,2.89,1.14,4.85,4.85,0,0,0,4-2l1.92,1.83a6.49,6.49,0,0,1-2.55,2.2A8,8,0,0,1,157,285Zm-.43-13.57a3,3,0,0,0-2.36,1,5.28,5.28,0,0,0-1.15,2.86h6.78V275a4.37,4.37,0,0,0-1-2.7A3,3,0,0,0,156.53,271.41Z"/><path class="cls-7" d="M171.17,280.18l3.36-11.34h3.68l-5.5,15.85h-3.09l-5.54-15.85h3.7Z"/><path class="cls-7" d="M180.13,264.73a1.89,1.89,0,0,1,.52-1.37,2.33,2.33,0,0,1,3,0,1.89,1.89,0,0,1,.53,1.37,1.86,1.86,0,0,1-.53,1.34,2.36,2.36,0,0,1-3,0A1.85,1.85,0,0,1,180.13,264.73Zm3.78,20h-3.56V268.84h3.56Z"/><path class="cls-7" d="M194,282.14a3.25,3.25,0,0,0,2.21-.77,2.65,2.65,0,0,0,.94-1.92h3.35a5.32,5.32,0,0,1-.92,2.76,6.13,6.13,0,0,1-2.35,2A6.93,6.93,0,0,1,194,285a6.73,6.73,0,0,1-5.27-2.15,8.53,8.53,0,0,1-2-5.95v-.36a8.41,8.41,0,0,1,1.93-5.8,6.7,6.7,0,0,1,5.28-2.17,6.49,6.49,0,0,1,4.6,1.65,5.9,5.9,0,0,1,1.87,4.33h-3.35a3.29,3.29,0,0,0-.93-2.25,3,3,0,0,0-2.22-.87,3.12,3.12,0,0,0-2.67,1.25,6.41,6.41,0,0,0-1,3.8V277a6.52,6.52,0,0,0,.93,3.85A3.14,3.14,0,0,0,194,282.14Z"/><path class="cls-7" d="M209.87,285a7.37,7.37,0,0,1-5.49-2.13,7.72,7.72,0,0,1-2.1-5.67v-.44a9.5,9.5,0,0,1,.92-4.24,6.88,6.88,0,0,1,2.57-2.91,6.81,6.81,0,0,1,3.69-1,6.24,6.24,0,0,1,5,2.06,8.74,8.74,0,0,1,1.77,5.85v1.43H205.87a4.76,4.76,0,0,0,1.31,3.11,3.94,3.94,0,0,0,2.89,1.14,4.84,4.84,0,0,0,4-2L216,282a6.46,6.46,0,0,1-2.54,2.2A8,8,0,0,1,209.87,285Zm-.43-13.57a3,3,0,0,0-2.36,1,5.28,5.28,0,0,0-1.15,2.86h6.78V275a4.31,4.31,0,0,0-1-2.7A3,3,0,0,0,209.44,271.41Z"/><circle class="cls-8" cx="125" cy="126.8" r="125"/><rect class="cls-17" x="59.73" y="90.79" width="120.05" height="84.27"/><path class="cls-18" d="M183.49,167.19V89.92a6.11,6.11,0,0,0-6.1-6.1H60.93a6.11,6.11,0,0,0-6.1,6.1v77.27H46.68c.72,5.52,4.55,9.76,9.14,9.76h126c4.59,0,8.42-4.24,9.14-9.76ZM61.8,90.79H176.52v76.4H61.8Zm65.63,30.07a8.3,8.3,0,1,1-8.3-8.29A8.3,8.3,0,0,1,127.43,120.86Zm-8.59-20.72a29.7,29.7,0,1,0,29.7,29.7A29.74,29.74,0,0,0,118.84,100.14Zm16.87,49v-8.42h0c-.1-4.23-4.81-8.9-9-8.9H111c-4.21,0-8.92,4.67-9,8.9h0v8.42a25.63,25.63,0,1,1,33.74,0Z"/><path class="cls-19" d="M127.74,120.86a8.3,8.3,0,1,1-8.29-8.29A8.29,8.29,0,0,1,127.74,120.86Zm-8.58-20.72a29.7,29.7,0,1,0,29.7,29.7A29.74,29.74,0,0,0,119.16,100.14Zm16.86,49v-8.42h0c-.1-4.23-4.81-8.9-9-8.9H111.32c-4.21,0-8.92,4.67-9,8.9h0v8.42a25.64,25.64,0,1,1,33.73,0Z"/><circle class="cls-13" cx="181.48" cy="135.25" r="13.83"/><path class="cls-11" d="M181.43,113c-17,0-26,13-23.32,27.36,2.63,14.55,23.32,46.64,23.32,46.64s21.22-34,23.32-46.47C207.21,125.58,198.26,113,181.43,113Zm0,32.79a10.7,10.7,0,1,1,10.7-10.7A10.74,10.74,0,0,1,181.43,145.74Z"/><path class="cls-7" d="M745.49,277a2.58,2.58,0,0,0-1-2.17,11.92,11.92,0,0,0-3.57-1.54,17.15,17.15,0,0,1-4.1-1.73,5.47,5.47,0,0,1-2.91-4.77,5.2,5.2,0,0,1,2.1-4.25,8.52,8.52,0,0,1,5.45-1.67,9.15,9.15,0,0,1,4,.82,6.48,6.48,0,0,1,2.74,2.34,5.94,5.94,0,0,1,1,3.36h-3.69a3.34,3.34,0,0,0-1-2.62,4.33,4.33,0,0,0-3-.94,4.52,4.52,0,0,0-2.81.77,2.59,2.59,0,0,0-1,2.17,2.33,2.33,0,0,0,1.09,2,12.41,12.41,0,0,0,3.57,1.52,16.78,16.78,0,0,1,4,1.69,6.45,6.45,0,0,1,2.21,2.16,5.65,5.65,0,0,1,.7,2.87,5.07,5.07,0,0,1-2,4.24,8.85,8.85,0,0,1-5.54,1.57,10.42,10.42,0,0,1-4.26-.85,7.16,7.16,0,0,1-3-2.37,6,6,0,0,1-1.07-3.52H737a3.46,3.46,0,0,0,1.2,2.82,5.29,5.29,0,0,0,3.45,1,4.58,4.58,0,0,0,2.9-.78A2.52,2.52,0,0,0,745.49,277Z"/><path class="cls-7" d="M761.27,282.5a5.87,5.87,0,0,1-.41-1.48,5.54,5.54,0,0,1-4.16,1.77,5.6,5.6,0,0,1-3.9-1.36,4.37,4.37,0,0,1-1.5-3.37,4.5,4.5,0,0,1,1.88-3.89,9.13,9.13,0,0,1,5.38-1.35h2.18v-1a2.81,2.81,0,0,0-.68-2,2.71,2.71,0,0,0-2.1-.74,3.11,3.11,0,0,0-2,.61,1.87,1.87,0,0,0-.78,1.54h-3.56a3.94,3.94,0,0,1,.87-2.44,5.78,5.78,0,0,1,2.35-1.78,8.26,8.26,0,0,1,3.32-.64,6.59,6.59,0,0,1,4.43,1.4,5,5,0,0,1,1.7,3.93v7.15a8.11,8.11,0,0,0,.6,3.41v.25Zm-3.91-2.56a4,4,0,0,0,2-.52,3.37,3.37,0,0,0,1.4-1.37v-3h-1.91a5.27,5.27,0,0,0-3,.69,2.24,2.24,0,0,0-1,1.95,2.06,2.06,0,0,0,.68,1.63A2.65,2.65,0,0,0,757.36,279.94Z"/><path class="cls-7" d="M777.2,282.5a5.87,5.87,0,0,1-.41-1.48,6,6,0,0,1-8,.41,4.35,4.35,0,0,1-1.51-3.37,4.5,4.5,0,0,1,1.88-3.89,9.13,9.13,0,0,1,5.38-1.35h2.19v-1a2.77,2.77,0,0,0-.69-2,2.71,2.71,0,0,0-2.1-.74,3.11,3.11,0,0,0-2,.61,1.87,1.87,0,0,0-.78,1.54h-3.56a3.94,3.94,0,0,1,.87-2.44,5.78,5.78,0,0,1,2.35-1.78,8.26,8.26,0,0,1,3.32-.64,6.64,6.64,0,0,1,4.44,1.4,5,5,0,0,1,1.69,3.93v7.15a7.94,7.94,0,0,0,.61,3.41v.25Zm-3.91-2.56a4,4,0,0,0,2-.52,3.49,3.49,0,0,0,1.4-1.37v-3h-1.92a5.27,5.27,0,0,0-3,.69,2.24,2.24,0,0,0-1,1.95,2.06,2.06,0,0,0,.68,1.63A2.65,2.65,0,0,0,773.29,279.94Z"/><path class="cls-7" d="M795.15,277a2.58,2.58,0,0,0-1-2.17,11.71,11.71,0,0,0-3.56-1.54,17,17,0,0,1-4.1-1.73,5.46,5.46,0,0,1-2.92-4.77,5.2,5.2,0,0,1,2.1-4.25,8.53,8.53,0,0,1,5.46-1.67,9.18,9.18,0,0,1,4,.82,6.6,6.6,0,0,1,2.74,2.34,6,6,0,0,1,1,3.36h-3.69a3.37,3.37,0,0,0-1-2.62,4.33,4.33,0,0,0-3-.94,4.57,4.57,0,0,0-2.82.77,2.58,2.58,0,0,0-1,2.17,2.35,2.35,0,0,0,1.08,2,12.5,12.5,0,0,0,3.58,1.52,16.51,16.51,0,0,1,4,1.69,6.4,6.4,0,0,1,2.22,2.16,5.65,5.65,0,0,1,.7,2.87,5.07,5.07,0,0,1-2,4.24,8.88,8.88,0,0,1-5.55,1.57,10.41,10.41,0,0,1-4.25-.85,7.1,7.1,0,0,1-3-2.37,5.9,5.9,0,0,1-1.08-3.52h3.71a3.46,3.46,0,0,0,1.2,2.82,5.28,5.28,0,0,0,3.44,1,4.59,4.59,0,0,0,2.91-.78A2.51,2.51,0,0,0,795.15,277Z"/><path class="cls-7" d="M423.32,794.64a2.56,2.56,0,0,0-1-2.16,11.92,11.92,0,0,0-3.57-1.54,17.75,17.75,0,0,1-4.1-1.73,5.47,5.47,0,0,1-2.91-4.78,5.19,5.19,0,0,1,2.1-4.24,8.47,8.47,0,0,1,5.46-1.67,9.21,9.21,0,0,1,4,.82,6.51,6.51,0,0,1,2.74,2.33,6,6,0,0,1,1,3.36h-3.69a3.33,3.33,0,0,0-1.05-2.61,4.31,4.31,0,0,0-3-.94,4.5,4.5,0,0,0-2.82.77,2.59,2.59,0,0,0-1,2.17,2.37,2.37,0,0,0,1.09,2,12.41,12.41,0,0,0,3.57,1.52,16.23,16.23,0,0,1,4,1.68,6.38,6.38,0,0,1,2.21,2.17,5.64,5.64,0,0,1,.71,2.86,5.1,5.1,0,0,1-2,4.25,8.85,8.85,0,0,1-5.54,1.57,10.33,10.33,0,0,1-4.26-.86,7.13,7.13,0,0,1-3-2.36,5.9,5.9,0,0,1-1.08-3.52h3.71a3.44,3.44,0,0,0,1.2,2.81,5.21,5.21,0,0,0,3.44,1,4.59,4.59,0,0,0,2.91-.78A2.53,2.53,0,0,0,423.32,794.64Z"/><path class="cls-7" d="M441.92,795.17h-8.26l-1.73,5h-3.86l8.06-21.33h3.33l8.07,21.33h-3.87Zm-7.22-3h6.18l-3.09-8.84Z"/><path class="cls-7" d="M460.79,794.64a2.56,2.56,0,0,0-1-2.16,11.83,11.83,0,0,0-3.56-1.54,17.38,17.38,0,0,1-4.1-1.73,5.46,5.46,0,0,1-2.92-4.78,5.19,5.19,0,0,1,2.1-4.24,8.47,8.47,0,0,1,5.46-1.67,9.18,9.18,0,0,1,4,.82,6.51,6.51,0,0,1,2.74,2.33,6,6,0,0,1,1,3.36h-3.69a3.33,3.33,0,0,0-1.05-2.61,4.29,4.29,0,0,0-3-.94,4.5,4.5,0,0,0-2.82.77,2.58,2.58,0,0,0-1,2.17,2.36,2.36,0,0,0,1.08,2,12.41,12.41,0,0,0,3.57,1.52,16.23,16.23,0,0,1,4,1.68,6.42,6.42,0,0,1,2.22,2.17,5.74,5.74,0,0,1,.7,2.86,5.09,5.09,0,0,1-2,4.25,8.9,8.9,0,0,1-5.55,1.57,10.33,10.33,0,0,1-4.26-.86,7.19,7.19,0,0,1-3-2.36,5.9,5.9,0,0,1-1.08-3.52h3.71a3.44,3.44,0,0,0,1.2,2.81,5.23,5.23,0,0,0,3.44,1,4.59,4.59,0,0,0,2.91-.78A2.53,2.53,0,0,0,460.79,794.64Z"/><path class="cls-7" d="M479.92,790.62h-8.76v6.56h10.23v3H467.45V778.81h13.84v3H471.16v5.89h8.76Z"/><circle class="cls-8" cx="766.06" cy="125" r="125"/><path class="cls-3" d="M662.5,141.16a35.47,35.47,0,0,0,35.42,35.43H845.74a24.26,24.26,0,0,0,4.61-48.08,35.07,35.07,0,0,0,.76-7.3A35.46,35.46,0,0,0,805,87.41,57.69,57.69,0,0,0,693.68,106,35.48,35.48,0,0,0,662.5,141.16Z"/><circle class="cls-20" cx="814.17" cy="170.35" r="36.35"/><path class="cls-3" d="M829.23,185.7a1.49,1.49,0,0,1-.33,2.09l-.21.16a29.86,29.86,0,0,1-3.22,2.13,23.35,23.35,0,0,1-34-23.33l-5.1-1.4,8.32-5,4.58,8.59-4.88-1.34a20.37,20.37,0,0,0,29.69,19.87,28.58,28.58,0,0,0,2.83-1.9l.22-.16A1.5,1.5,0,0,1,829.23,185.7Zm8-10.1a23.38,23.38,0,0,0-39.1-22.72,1.5,1.5,0,1,0,2.13,2.12,20.37,20.37,0,0,1,34.14,19.59l-5-1.78,3.92,8.91,8.67-4.41Zm-25.4,1.89h.1a1.26,1.26,0,0,0,1-.44l11.41-13.39-1.9-1.62-10.28,12.07-3.57-6-2.15,1.28,4.47,7.44A1.26,1.26,0,0,0,811.79,177.49Z"/><path class="cls-11" d="M472.68,550.45a26,26,0,1,1-26-26A26,26,0,0,1,472.68,550.45Zm-26.9-64.91a93.05,93.05,0,1,0,93.05,93.05A93.15,93.15,0,0,0,445.78,485.54Zm52.84,153.37V612.52h0c-.31-13.22-15.07-27.86-28.26-27.86H421.21c-13.19,0-27.95,14.64-28.25,27.86h0v26.39a80.32,80.32,0,1,1,105.69,0Z"/><path class="cls-7" d="M441.43,986.19h9.86v19.91h-9.86Z"/><path class="cls-7" d="M378.57,960.4H514.05v39.07H378.57Z"/><rect class="cls-7" x="372.74" y="965.16" width="146.75" height="26.09" rx="2.16"/><rect class="cls-21" x="397.14" y="976.31" width="27.53" height="3.89" rx="1.58"/><path class="cls-22" d="M378,960.4h136.4V996H378Z"/><path class="cls-23" d="M377.58,965.16H514.89v26.09H377.58Z"/><rect class="cls-7" x="392.86" y="1003.45" width="107.01" height="5.3" rx="2.16"/><rect class="cls-22" x="388.59" y="974.18" width="8.04" height="8.04" rx="2.16"/><rect class="cls-22" x="400.43" y="975.34" width="38.2" height="5.3" rx="2.16"/><rect class="cls-7" x="489.67" y="976.53" width="4.43" height="4.43" rx="1.8"/><rect class="cls-7" x="499.13" y="976.53" width="4.43" height="4.43" rx="1.8"/><rect class="cls-7" x="461.31" y="976.53" width="4.43" height="4.43" rx="1.8"/><rect class="cls-7" x="452.01" y="976.53" width="4.43" height="4.43" rx="1.8"/><rect class="cls-7" x="480.22" y="976.53" width="4.43" height="4.43" rx="1.8"/><rect class="cls-7" x="470.76" y="976.53" width="4.43" height="4.43" rx="1.8"/><rect class="cls-7" x="484.95" y="983.98" width="4.43" height="4.43" rx="1.8"/><rect class="cls-7" x="494.4" y="983.98" width="4.43" height="4.43" rx="1.8"/><rect class="cls-7" x="456.58" y="983.98" width="4.43" height="4.43" rx="1.8"/><rect class="cls-7" x="475.49" y="983.98" width="4.43" height="4.43" rx="1.8"/><rect class="cls-7" x="466.03" y="983.98" width="4.43" height="4.43" rx="1.8"/><rect class="cls-7" x="484.95" y="969.44" width="4.43" height="4.43" rx="1.8"/><rect class="cls-7" x="494.4" y="969.44" width="4.43" height="4.43" rx="1.8"/><rect class="cls-7" x="456.58" y="969.44" width="4.43" height="4.43" rx="1.8"/><rect class="cls-7" x="475.49" y="969.44" width="4.43" height="4.43" rx="1.8"/><rect class="cls-7" x="466.03" y="969.44" width="4.43" height="4.43" rx="1.8"/><path class="cls-7" d="M441.43,1029.25h9.86v19.9h-9.86Z"/><path class="cls-7" d="M378.57,1003.46H514.05v39.07H378.57Z"/><rect class="cls-7" x="372.74" y="1008.22" width="146.75" height="26.09" rx="2.16"/><rect class="cls-24" x="397.14" y="1019.37" width="27.53" height="3.89" rx="1.58"/><path class="cls-22" d="M378,1003.46h136.4v35.59H378Z"/><path class="cls-25" d="M377.58,1008.22H514.89v26.09H377.58Z"/><rect class="cls-7" x="392.86" y="1046.5" width="107.01" height="5.3" rx="2.16"/><rect class="cls-22" x="388.59" y="1017.23" width="8.04" height="8.04" rx="2.16"/><rect class="cls-22" x="400.43" y="1018.4" width="38.2" height="5.3" rx="2.16"/><rect class="cls-7" x="489.67" y="1019.59" width="4.43" height="4.43" rx="1.8"/><rect class="cls-7" x="499.13" y="1019.59" width="4.43" height="4.43" rx="1.8"/><rect class="cls-7" x="461.31" y="1019.59" width="4.43" height="4.43" rx="1.8"/><rect class="cls-7" x="452.01" y="1019.59" width="4.43" height="4.43" rx="1.8"/><rect class="cls-7" x="480.22" y="1019.59" width="4.43" height="4.43" rx="1.8"/><rect class="cls-7" x="470.76" y="1019.59" width="4.43" height="4.43" rx="1.8"/><rect class="cls-7" x="484.95" y="1027.04" width="4.43" height="4.43" rx="1.8"/><rect class="cls-7" x="494.4" y="1027.04" width="4.43" height="4.43" rx="1.8"/><rect class="cls-7" x="456.58" y="1027.04" width="4.43" height="4.43" rx="1.8"/><rect class="cls-7" x="475.49" y="1027.04" width="4.43" height="4.43" rx="1.8"/><rect class="cls-7" x="466.03" y="1027.04" width="4.43" height="4.43" rx="1.8"/><rect class="cls-7" x="484.95" y="1012.5" width="4.43" height="4.43" rx="1.8"/><rect class="cls-7" x="494.4" y="1012.5" width="4.43" height="4.43" rx="1.8"/><rect class="cls-7" x="456.58" y="1012.5" width="4.43" height="4.43" rx="1.8"/><rect class="cls-7" x="475.49" y="1012.5" width="4.43" height="4.43" rx="1.8"/><rect class="cls-7" x="466.03" y="1012.5" width="4.43" height="4.43" rx="1.8"/><path class="cls-7" d="M441.43,1072.29h9.86v19.9h-9.86Z"/><path class="cls-7" d="M378.57,1046.5H514.05v39.07H378.57Z"/><rect class="cls-7" x="372.74" y="1051.26" width="146.75" height="26.09" rx="2.16"/><rect class="cls-26" x="397.14" y="1062.41" width="27.53" height="3.89" rx="1.58"/><path class="cls-22" d="M378,1046.5h136.4v35.59H378Z"/><path class="cls-27" d="M377.58,1051.26H514.89v26.09H377.58Z"/><rect class="cls-7" x="392.86" y="1089.54" width="107.01" height="5.3" rx="2.16"/><rect class="cls-22" x="388.59" y="1060.28" width="8.04" height="8.04" rx="2.16"/><rect class="cls-22" x="400.43" y="1061.44" width="38.2" height="5.3" rx="2.16"/><rect class="cls-7" x="489.67" y="1062.63" width="4.43" height="4.43" rx="1.8"/><rect class="cls-7" x="499.13" y="1062.63" width="4.43" height="4.43" rx="1.8"/><rect class="cls-7" x="461.31" y="1062.63" width="4.43" height="4.43" rx="1.8"/><rect class="cls-7" x="452.01" y="1062.63" width="4.43" height="4.43" rx="1.8"/><rect class="cls-7" x="480.22" y="1062.63" width="4.43" height="4.43" rx="1.8"/><rect class="cls-7" x="470.76" y="1062.63" width="4.43" height="4.43" rx="1.8"/><rect class="cls-7" x="484.95" y="1070.08" width="4.43" height="4.43" rx="1.8"/><rect class="cls-7" x="494.4" y="1070.08" width="4.43" height="4.43" rx="1.8"/><rect class="cls-7" x="456.58" y="1070.08" width="4.43" height="4.43" rx="1.8"/><rect class="cls-7" x="475.49" y="1070.08" width="4.43" height="4.43" rx="1.8"/><rect class="cls-7" x="466.03" y="1070.08" width="4.43" height="4.43" rx="1.8"/><rect class="cls-7" x="484.95" y="1055.54" width="4.43" height="4.43" rx="1.8"/><rect class="cls-7" x="494.4" y="1055.54" width="4.43" height="4.43" rx="1.8"/><rect class="cls-7" x="456.58" y="1055.54" width="4.43" height="4.43" rx="1.8"/><rect class="cls-7" x="475.49" y="1055.54" width="4.43" height="4.43" rx="1.8"/><rect class="cls-7" x="466.03" y="1055.54" width="4.43" height="4.43" rx="1.8"/><path class="cls-7" d="M445.78,868a1.5,1.5,0,0,1-1.5-1.5V825.21a1.5,1.5,0,0,1,3,0v41.32A1.5,1.5,0,0,1,445.78,868Z"/><path class="cls-7" d="M445.78,877.4c-1.9-5.12-5.13-11.46-8.56-15.39l8.56,3.1,8.56-3.1C450.91,865.94,447.67,872.28,445.78,877.4Z"/><path class="cls-7" d="M445.92,371.54a1.5,1.5,0,0,1-1.5-1.5v-26.8H124.17V314.56a1.5,1.5,0,0,1,3,0v25.68H447.42V370A1.5,1.5,0,0,1,445.92,371.54Z"/><path class="cls-7" d="M125.67,303.7c-1.89,5.11-5.13,11.45-8.56,15.38l8.56-3.09,8.56,3.09C130.81,315.15,127.57,308.81,125.67,303.7Z"/><path class="cls-7" d="M445.86,371.54a1.5,1.5,0,0,1-1.5-1.5v-29.8h318.1V314.56a1.5,1.5,0,1,1,3,0v28.68H447.36V370A1.5,1.5,0,0,1,445.86,371.54Z"/><path class="cls-7" d="M764,303.7c-1.89,5.11-5.13,11.45-8.56,15.38L764,316l8.56,3.09C769.09,315.15,765.86,308.81,764,303.7Z"/><path class="cls-7" d="M445.86,357.39a1.5,1.5,0,0,1-1.5-1.5V314.56a1.5,1.5,0,0,1,3,0v41.33A1.5,1.5,0,0,1,445.86,357.39Z"/><path class="cls-7" d="M445.86,303.7c1.89,5.11,5.13,11.45,8.56,15.38L445.86,316l-8.56,3.09C440.73,315.15,444,308.81,445.86,303.7Z"/></g></g></svg>